<?xml version="1.0" encoding="UTF-8" standalone="no"?>
<!DOCTYPE svg PUBLIC "-//W3C//DTD SVG 1.1//EN" "http://www.w3.org/Graphics/SVG/1.1/DTD/svg11.dtd">
<svg width="100%" height="100%" viewBox="0 0 317 323" version="1.1" xmlns="http://www.w3.org/2000/svg" xmlns:xlink="http://www.w3.org/1999/xlink" xml:space="preserve" xmlns:serif="http://www.serif.com/" style="fill-rule:evenodd;clip-rule:evenodd;stroke-linejoin:round;stroke-miterlimit:2;">
    <g transform="matrix(5.55556,0,0,5.55556,-2.77778,0)">
        <g>
            <path d="M32,0C30.979,0 29.975,0.076 28.985,0.21C27.953,0.072 26.972,0 26,0C18.638,0 11.999,3.571 7.34,9.264C7.293,9.306 7.259,9.356 7.221,9.406C5.736,11.245 4.46,13.304 3.428,15.532C3.402,15.581 3.379,15.629 3.36,15.682C2.649,17.239 2.056,18.875 1.6,20.579C1.555,20.675 1.535,20.78 1.522,20.889C0.861,23.465 0.5,26.185 0.5,29C0.5,33.404 1.372,37.579 2.923,41.321C2.937,41.361 2.95,41.399 2.969,41.437C3.899,43.655 5.069,45.717 6.442,47.582C6.477,47.63 6.506,47.681 6.549,47.722C7.939,49.587 9.532,51.248 11.289,52.664C11.339,52.719 11.399,52.76 11.461,52.803C15.588,56.075 20.599,58 26,58C26.972,58 27.953,57.928 28.985,57.79C29.975,57.924 30.979,58 32,58C46.061,58 57.5,44.991 57.5,29C57.5,13.009 46.061,0 32,0ZM21.44,2.614C21.109,2.786 20.782,2.966 20.459,3.153C20.278,3.258 20.096,3.359 19.918,3.469C19.641,3.639 19.37,3.819 19.1,4L17.175,4C18.637,3.316 20.163,2.777 21.754,2.442C21.647,2.495 21.546,2.559 21.44,2.614ZM11.36,46L7.774,46C6.892,44.754 6.109,43.415 5.429,42L9.217,42C9.374,42.354 9.535,42.705 9.704,43.051C9.777,43.2 9.853,43.347 9.929,43.495C10.134,43.897 10.346,44.292 10.567,44.681C10.649,44.826 10.728,44.973 10.813,45.117C10.989,45.416 11.174,45.708 11.36,46ZM4.968,17L8.795,17C8.62,17.437 8.454,17.879 8.297,18.327C8.254,18.451 8.21,18.574 8.168,18.698C8.024,19.128 7.89,19.562 7.763,20L3.857,20C4.175,18.969 4.547,17.969 4.968,17ZM2.5,29C2.5,28.326 2.536,27.662 2.578,27L6.565,27C6.564,27.016 6.564,27.032 6.563,27.048C6.526,27.694 6.5,28.343 6.5,29C6.5,29.335 6.512,29.667 6.522,30L2.539,30C2.528,29.666 2.5,29.337 2.5,29ZM6.636,32C6.674,32.421 6.723,32.839 6.777,33.255C6.781,33.285 6.783,33.316 6.787,33.347C6.861,33.903 6.951,34.454 7.052,35L3.108,35C2.913,34.018 2.759,33.019 2.66,32L6.636,32ZM7.256,22C7.23,22.118 7.208,22.238 7.184,22.356C7.157,22.488 7.129,22.619 7.103,22.751C6.981,23.378 6.873,24.011 6.788,24.653C6.784,24.683 6.782,24.714 6.778,24.745C6.766,24.83 6.759,24.915 6.748,25L2.779,25C2.911,23.982 3.078,22.978 3.307,22L7.256,22ZM7.495,37C7.526,37.122 7.555,37.246 7.587,37.367C7.599,37.411 7.609,37.457 7.621,37.501C7.786,38.11 7.971,38.709 8.169,39.301C8.211,39.426 8.255,39.548 8.298,39.672C8.335,39.782 8.372,39.892 8.411,40L4.558,40C4.179,39.029 3.853,38.027 3.575,37L7.495,37ZM10.812,12.884C10.728,13.027 10.648,13.175 10.566,13.32C10.345,13.709 10.132,14.105 9.928,14.506C9.853,14.654 9.776,14.8 9.703,14.95C9.695,14.966 9.686,14.983 9.678,15L5.929,15C6.686,13.573 7.558,12.238 8.525,11L12.028,11C11.906,11.175 11.783,11.349 11.664,11.527C11.369,11.97 11.085,12.422 10.812,12.884ZM13.732,6L16.494,6C16.246,6.217 15.998,6.435 15.757,6.662C15.556,6.852 15.361,7.049 15.165,7.246C14.967,7.445 14.771,7.647 14.579,7.852C14.394,8.049 14.209,8.245 14.029,8.448C13.869,8.628 13.716,8.815 13.561,9L10.259,9C11.333,7.883 12.492,6.876 13.732,6ZM9.324,48L12.756,48C12.869,48.148 12.981,48.296 13.097,48.441C13.399,48.821 13.71,49.191 14.029,49.552C14.208,49.755 14.394,49.951 14.579,50.148C14.772,50.354 14.968,50.556 15.167,50.755C15.247,50.835 15.323,50.921 15.404,51L12.396,51C11.297,50.101 10.27,49.097 9.324,48ZM21.753,55.558C19.46,55.075 17.293,54.189 15.283,53L17.702,53C17.83,53.099 17.962,53.192 18.091,53.288C18.298,53.442 18.505,53.597 18.716,53.744C19.109,54.018 19.51,54.281 19.917,54.531C20.095,54.64 20.277,54.742 20.458,54.847C20.781,55.034 21.108,55.214 21.439,55.386C21.546,55.441 21.647,55.505 21.753,55.558ZM32,56C31.205,56 30.42,55.953 29.646,55.864L29.259,55.81C29.205,55.803 29.152,55.794 29.099,55.787C28.753,55.738 28.41,55.681 28.07,55.615C28.041,55.609 28.013,55.603 27.985,55.597C27.654,55.532 27.326,55.459 27.001,55.378C26.952,55.366 26.903,55.352 26.854,55.339C26.551,55.261 26.249,55.179 25.951,55.088C25.86,55.06 25.769,55.028 25.678,54.999C25.423,54.918 25.169,54.835 24.918,54.744C24.714,54.67 24.513,54.588 24.312,54.508C24.175,54.454 24.036,54.403 23.901,54.346C18.524,52.071 14.065,47.598 11.352,41.88C11.327,41.828 11.304,41.773 11.28,41.721C11.135,41.41 10.994,41.096 10.859,40.778C10.805,40.651 10.755,40.522 10.703,40.394C10.602,40.146 10.502,39.897 10.408,39.645C10.347,39.483 10.29,39.318 10.232,39.154C10.153,38.932 10.075,38.709 10.002,38.484C9.942,38.3 9.885,38.114 9.828,37.929C9.763,37.718 9.7,37.506 9.64,37.293C9.584,37.098 9.531,36.9 9.48,36.703C9.426,36.494 9.374,36.283 9.324,36.072C9.276,35.87 9.23,35.668 9.186,35.464C9.14,35.251 9.098,35.037 9.057,34.822C9.018,34.617 8.979,34.412 8.943,34.205C8.905,33.984 8.872,33.762 8.839,33.539C8.809,33.337 8.778,33.136 8.752,32.932C8.721,32.692 8.697,32.449 8.672,32.207C8.652,32.018 8.63,31.83 8.614,31.64C8.59,31.362 8.574,31.082 8.558,30.801C8.549,30.643 8.536,30.487 8.529,30.329C8.511,29.889 8.5,29.446 8.5,29C8.5,28.554 8.511,28.111 8.529,27.67C8.536,27.512 8.549,27.355 8.558,27.198C8.574,26.918 8.59,26.637 8.614,26.359C8.63,26.169 8.652,25.981 8.672,25.792C8.697,25.55 8.722,25.308 8.752,25.067C8.778,24.864 8.809,24.662 8.839,24.46C8.872,24.237 8.905,24.015 8.943,23.794C8.978,23.587 9.017,23.382 9.057,23.177C9.098,22.962 9.141,22.748 9.186,22.535C9.23,22.331 9.276,22.129 9.324,21.927C9.374,21.716 9.426,21.505 9.48,21.296C9.531,21.098 9.584,20.901 9.639,20.705C9.699,20.492 9.762,20.28 9.827,20.069C9.884,19.883 9.941,19.698 10.001,19.514C10.075,19.289 10.153,19.066 10.232,18.843C10.29,18.679 10.347,18.515 10.408,18.353C10.503,18.101 10.602,17.852 10.703,17.604C10.755,17.476 10.805,17.347 10.859,17.22C10.994,16.902 11.135,16.588 11.28,16.277C11.305,16.224 11.327,16.17 11.352,16.118C14.065,10.4 18.524,5.928 23.901,3.652C24.037,3.595 24.175,3.544 24.312,3.49C24.513,3.41 24.714,3.328 24.918,3.254C25.169,3.163 25.423,3.081 25.678,2.999C25.769,2.97 25.859,2.938 25.951,2.91C26.249,2.819 26.551,2.736 26.854,2.659C26.902,2.648 26.951,2.633 27,2.621C27.325,2.54 27.653,2.468 27.984,2.402C28.013,2.396 28.041,2.39 28.069,2.384C28.409,2.318 28.752,2.261 29.098,2.212C29.151,2.204 29.205,2.196 29.258,2.189L29.645,2.135C30.42,2.047 31.205,2 32,2C44.958,2 55.5,14.112 55.5,29C55.5,43.888 44.958,56 32,56Z" style="fill:rgb(216,58,86);fill-rule:nonzero;"/>
            <path d="M14.167,29C14.167,28.371 14.192,27.739 14.241,27.121C14.284,26.571 13.874,26.089 13.323,26.045C12.77,26.005 12.291,26.413 12.247,26.963C12.194,27.632 12.167,28.318 12.167,29L12.167,29.021C12.167,29.573 12.615,30.01 13.167,30.01C13.719,30.01 14.167,29.552 14.167,29Z" style="fill:rgb(216,58,86);fill-rule:nonzero;"/>
            <path d="M49.134,23.292C49.248,23.746 49.655,24.048 50.103,24.048C50.184,24.048 50.266,24.038 50.348,24.018C50.883,23.883 51.208,23.34 51.074,22.804C50.906,22.136 50.709,21.47 50.487,20.824C50.308,20.302 49.74,20.021 49.217,20.202C48.695,20.381 48.416,20.95 48.595,21.472C48.798,22.065 48.979,22.678 49.134,23.292Z" style="fill:rgb(216,58,86);fill-rule:nonzero;"/>
            <path d="M45.022,43.019C44.622,43.511 44.199,43.982 43.765,44.421C43.376,44.813 43.379,45.446 43.771,45.835C43.966,46.028 44.221,46.125 44.475,46.125C44.732,46.125 44.99,46.026 45.185,45.829C45.666,45.344 46.133,44.823 46.574,44.281C46.923,43.852 46.857,43.222 46.429,42.874C46.001,42.525 45.371,42.591 45.022,43.019Z" style="fill:rgb(216,58,86);fill-rule:nonzero;"/>
            <path d="M14.856,34.669C14.723,34.133 14.178,33.805 13.644,33.94C13.108,34.073 12.782,34.616 12.915,35.152C13.081,35.819 13.277,36.486 13.498,37.134C13.64,37.55 14.028,37.812 14.444,37.812C14.551,37.812 14.66,37.794 14.767,37.758C15.289,37.58 15.569,37.012 15.391,36.489C15.189,35.895 15.009,35.282 14.856,34.669Z" style="fill:rgb(216,58,86);fill-rule:nonzero;"/>
            <path d="M41.858,9.449C41.274,9.068 40.664,8.717 40.046,8.406C39.552,8.156 38.952,8.357 38.703,8.848C38.454,9.341 38.652,9.943 39.145,10.191C39.698,10.47 40.243,10.784 40.766,11.125C40.934,11.235 41.124,11.287 41.311,11.287C41.638,11.287 41.958,11.127 42.15,10.833C42.451,10.371 42.321,9.751 41.858,9.449Z" style="fill:rgb(216,58,86);fill-rule:nonzero;"/>
            <path d="M39.254,47.753C38.698,48.038 38.124,48.293 37.548,48.51C37.031,48.704 36.77,49.281 36.965,49.798C37.116,50.199 37.496,50.446 37.901,50.446C38.018,50.446 38.137,50.425 38.254,50.381C38.901,50.137 39.545,49.852 40.168,49.532C40.659,49.28 40.854,48.677 40.601,48.186C40.348,47.695 39.745,47.5 39.254,47.753Z" style="fill:rgb(216,58,86);fill-rule:nonzero;"/>
            <path d="M47.73,15.277C47.341,14.702 46.923,14.143 46.487,13.614C46.136,13.188 45.505,13.126 45.079,13.478C44.653,13.829 44.592,14.459 44.943,14.886C45.339,15.367 45.719,15.876 46.073,16.398C46.266,16.684 46.581,16.837 46.902,16.837C47.095,16.837 47.29,16.781 47.462,16.665C47.92,16.355 48.04,15.734 47.73,15.277Z" style="fill:rgb(216,58,86);fill-rule:nonzero;"/>
            <path d="M50.833,27.968C50.281,27.968 49.833,28.448 49.833,29C49.833,29.613 49.809,30.232 49.762,30.838C49.72,31.389 50.131,31.87 50.682,31.912C50.708,31.914 50.734,31.915 50.76,31.915C51.277,31.915 51.716,31.517 51.756,30.992C51.807,30.334 51.833,29.664 51.833,28.999L51.833,28.934C51.833,28.383 51.386,27.968 50.833,27.968Z" style="fill:rgb(216,58,86);fill-rule:nonzero;"/>
            <path d="M49.901,35.782C49.377,35.606 48.811,35.888 48.634,36.411C48.432,37.01 48.203,37.605 47.953,38.18C47.733,38.686 47.964,39.276 48.471,39.496C48.601,39.553 48.737,39.579 48.87,39.579C49.256,39.579 49.623,39.354 49.787,38.978C50.06,38.351 50.31,37.701 50.53,37.048C50.707,36.525 50.425,35.958 49.901,35.782Z" style="fill:rgb(216,58,86);fill-rule:nonzero;"/>
            <path d="M34.049,6.595C33.371,6.516 32.682,6.476 32,6.476L31.958,6.476C31.406,6.476 30.979,6.924 30.979,7.476C30.979,8.028 31.448,8.476 32,8.476C32.605,8.476 33.217,8.511 33.819,8.581C33.858,8.586 33.897,8.588 33.936,8.588C34.436,8.588 34.869,8.213 34.928,7.703C34.991,7.154 34.598,6.658 34.049,6.595Z" style="fill:rgb(216,58,86);fill-rule:nonzero;"/>
            <path d="M17.903,41.568C17.594,41.109 16.972,40.989 16.515,41.298C16.057,41.607 15.936,42.228 16.245,42.686C16.633,43.261 17.05,43.821 17.484,44.351C17.682,44.592 17.969,44.717 18.258,44.717C18.481,44.717 18.706,44.643 18.892,44.49C19.319,44.139 19.381,43.51 19.031,43.082C18.636,42.602 18.256,42.092 17.903,41.568Z" style="fill:rgb(216,58,86);fill-rule:nonzero;"/>
            <path d="M15.547,18.465C15.04,18.245 14.452,18.474 14.23,18.981C13.955,19.61 13.704,20.259 13.483,20.909C13.306,21.432 13.586,22 14.109,22.178C14.215,22.214 14.324,22.231 14.43,22.231C14.847,22.231 15.236,21.968 15.377,21.552C15.579,20.955 15.81,20.36 16.062,19.782C16.285,19.276 16.054,18.686 15.547,18.465Z" style="fill:rgb(216,58,86);fill-rule:nonzero;"/>
            <path d="M32,49.524C31.378,49.524 30.753,49.487 30.142,49.414C29.597,49.356 29.096,49.74 29.03,50.289C28.965,50.837 29.356,51.335 29.905,51.401C30.595,51.483 31.301,51.525 32.001,51.525L32.087,51.525C32.639,51.525 33.044,51.077 33.044,50.525C33.044,49.973 32.552,49.524 32,49.524Z" style="fill:rgb(216,58,86);fill-rule:nonzero;"/>
            <path d="M18.846,12.139C18.365,12.624 17.896,13.143 17.455,13.684C17.105,14.112 17.169,14.742 17.597,15.091C17.783,15.243 18.007,15.317 18.229,15.317C18.519,15.317 18.806,15.192 19.004,14.95C19.405,14.459 19.829,13.988 20.265,13.55C20.654,13.158 20.652,12.525 20.261,12.135C19.869,11.746 19.237,11.749 18.846,12.139Z" style="fill:rgb(216,58,86);fill-rule:nonzero;"/>
            <path d="M25.789,7.602C25.141,7.845 24.496,8.129 23.873,8.447C23.381,8.697 23.185,9.3 23.436,9.792C23.612,10.139 23.963,10.338 24.328,10.338C24.481,10.338 24.636,10.303 24.781,10.229C25.337,9.946 25.912,9.692 26.489,9.476C27.006,9.282 27.269,8.706 27.075,8.189C26.883,7.67 26.305,7.408 25.789,7.602Z" style="fill:rgb(216,58,86);fill-rule:nonzero;"/>
            <path d="M24.819,47.791C24.269,47.512 23.724,47.196 23.2,46.853C22.737,46.551 22.119,46.681 21.815,47.142C21.513,47.604 21.642,48.224 22.104,48.526C22.689,48.909 23.298,49.262 23.913,49.574C24.058,49.648 24.213,49.682 24.365,49.682C24.73,49.682 25.081,49.482 25.258,49.135C25.508,48.643 25.311,48.041 24.819,47.791Z" style="fill:rgb(216,58,86);fill-rule:nonzero;"/>
            <g transform="matrix(1,0,0,1,-8.66073,12.0048)">
                <path d="M33.951,25.995C33.407,25.995 32.975,25.771 32.655,25.323C32.335,24.875 32.107,24.319 31.971,23.655C31.835,22.991 31.767,22.347 31.767,21.723C31.767,21.355 31.787,21.015 31.827,20.703C31.867,20.391 31.919,20.107 31.983,19.851C31.871,19.627 31.791,19.375 31.743,19.095C31.695,18.815 31.671,18.643 31.671,18.579C31.671,18.371 31.711,18.199 31.791,18.063C31.871,17.927 31.943,17.859 32.007,17.859C32.007,17.859 32.039,17.927 32.103,18.063C32.167,18.199 32.243,18.355 32.331,18.531C32.419,18.707 32.487,18.851 32.535,18.963C32.791,19.475 33.171,20.015 33.675,20.583C34.179,21.151 34.759,21.683 35.415,22.179C36.071,22.675 36.767,23.091 37.503,23.427C38.191,22.803 38.795,22.191 39.315,21.591C39.835,20.991 40.319,20.371 40.767,19.731C41.231,19.075 41.675,18.395 42.099,17.691C42.523,16.987 42.983,16.219 43.479,15.387C43.511,15.307 43.543,15.223 43.575,15.135C43.607,15.047 43.631,14.971 43.647,14.907C43.103,15.403 42.479,15.911 41.775,16.431C41.071,16.951 40.335,17.431 39.567,17.871C38.799,18.311 38.039,18.667 37.287,18.939C36.535,19.211 35.839,19.355 35.199,19.371C34.767,19.371 34.439,19.247 34.215,18.999C33.991,18.751 33.879,18.475 33.879,18.171C33.879,17.723 33.999,17.267 34.239,16.803C34.479,16.339 34.787,15.899 35.163,15.483C35.539,15.067 35.927,14.699 36.327,14.379C36.375,14.347 36.423,14.327 36.471,14.319C36.519,14.311 36.567,14.307 36.615,14.307C36.727,14.307 36.823,14.331 36.903,14.379C36.983,14.427 37.023,14.475 37.023,14.523C37.023,14.523 37.019,14.543 37.011,14.583C37.003,14.623 36.975,14.651 36.927,14.667C36.639,14.891 36.331,15.143 36.003,15.423C35.675,15.703 35.399,16.015 35.175,16.359C34.951,16.703 34.839,17.083 34.839,17.499C34.839,17.755 34.915,17.955 35.067,18.099C35.219,18.243 35.487,18.315 35.871,18.315C36.895,18.315 37.919,18.051 38.943,17.523C39.967,16.995 40.967,16.311 41.943,15.471C42.919,14.631 43.855,13.763 44.751,12.867C45.071,12.451 45.383,12.167 45.687,12.015C45.991,11.863 46.255,11.787 46.479,11.787C47.007,11.787 47.271,11.947 47.271,12.267C47.271,12.379 47.247,12.483 47.199,12.579C47.151,12.675 47.103,12.763 47.055,12.843C46.511,13.547 45.927,14.331 45.303,15.195C44.679,16.059 44.023,16.939 43.335,17.835C42.647,18.731 41.943,19.619 41.223,20.499C40.503,21.379 39.783,22.195 39.063,22.947C38.855,23.155 38.583,23.403 38.247,23.691C38.247,23.691 38.279,23.707 38.343,23.739C39.047,23.995 39.755,24.199 40.467,24.351C41.179,24.503 41.911,24.579 42.663,24.579C43.255,24.579 43.895,24.531 44.583,24.435C45.271,24.339 45.955,24.191 46.635,23.991C47.315,23.791 47.935,23.527 48.495,23.199C49.055,22.871 49.503,22.471 49.839,21.999C50.175,21.527 50.343,20.979 50.343,20.355C50.343,19.795 50.163,19.331 49.803,18.963C49.443,18.595 48.991,18.323 48.447,18.147C47.903,17.971 47.359,17.883 46.815,17.883L46.719,17.883C46.671,17.931 46.599,17.955 46.503,17.955C46.247,17.955 46.067,17.855 45.963,17.655C45.859,17.455 45.807,17.299 45.807,17.187C45.807,16.979 45.915,16.839 46.131,16.767C46.347,16.695 46.559,16.659 46.767,16.659L47.007,16.659C47.567,16.627 48.175,16.463 48.831,16.167C49.487,15.871 50.119,15.487 50.727,15.015C51.335,14.543 51.831,14.027 52.215,13.467C52.599,12.907 52.791,12.363 52.791,11.835C52.791,11.243 52.567,10.763 52.119,10.395C51.671,10.027 51.067,9.743 50.307,9.543C49.547,9.343 48.711,9.207 47.799,9.135C46.887,9.063 45.959,9.027 45.015,9.027C43.959,9.027 42.819,9.099 41.595,9.243C40.371,9.387 39.127,9.611 37.863,9.915C36.599,10.219 35.379,10.599 34.203,11.055C33.027,11.511 31.951,12.051 30.975,12.675C29.999,13.299 29.183,14.003 28.527,14.787C27.871,15.571 27.431,16.451 27.207,17.427C27.159,17.667 27.135,17.883 27.135,18.075C27.135,18.715 27.339,19.259 27.747,19.707C28.155,20.155 28.583,20.411 29.031,20.475C29.191,20.491 29.295,20.531 29.343,20.595C29.391,20.659 29.415,20.707 29.415,20.739C29.415,20.803 29.355,20.879 29.235,20.967C29.115,21.055 28.983,21.099 28.839,21.099C28.407,21.099 27.967,20.931 27.519,20.595C27.071,20.259 26.699,19.823 26.403,19.287C26.107,18.751 25.959,18.195 25.959,17.619C25.959,17.363 25.983,17.115 26.031,16.875C26.239,15.883 26.675,14.979 27.339,14.163C28.003,13.347 28.835,12.619 29.835,11.979C30.835,11.339 31.939,10.787 33.147,10.323C34.355,9.859 35.607,9.475 36.903,9.171C38.199,8.867 39.487,8.639 40.767,8.487C42.047,8.335 43.247,8.259 44.367,8.259C45.151,8.259 45.991,8.295 46.887,8.367C47.783,8.439 48.663,8.551 49.527,8.703C50.391,8.855 51.175,9.071 51.879,9.351C52.583,9.631 53.147,9.975 53.571,10.383C53.995,10.791 54.207,11.275 54.207,11.835C54.207,12.475 53.987,13.087 53.547,13.671C53.107,14.255 52.543,14.783 51.855,15.255C51.167,15.727 50.439,16.127 49.671,16.455C48.903,16.783 48.199,17.011 47.559,17.139C48.135,17.283 48.715,17.511 49.299,17.823C49.883,18.135 50.371,18.531 50.763,19.011C51.155,19.491 51.351,20.075 51.351,20.763C51.351,21.643 51.123,22.399 50.667,23.031C50.211,23.663 49.611,24.183 48.867,24.591C48.123,24.999 47.315,25.303 46.443,25.503C45.571,25.703 44.711,25.803 43.863,25.803C43.159,25.803 42.519,25.767 41.943,25.695C41.367,25.623 40.823,25.523 40.311,25.395C39.815,25.267 39.331,25.123 38.859,24.963C38.387,24.803 37.895,24.635 37.383,24.459C36.871,24.859 36.295,25.215 35.655,25.527C35.015,25.839 34.447,25.995 33.951,25.995ZM34.767,24.915C35.039,24.915 35.335,24.835 35.655,24.675C35.975,24.515 36.295,24.331 36.615,24.123C35.735,23.691 34.939,23.175 34.227,22.575C33.515,21.975 32.935,21.355 32.487,20.715C32.487,21.131 32.531,21.583 32.619,22.071C32.707,22.559 32.839,23.019 33.015,23.451C33.191,23.883 33.423,24.235 33.711,24.507C33.999,24.779 34.351,24.915 34.767,24.915Z" style="fill:rgb(216,58,86);"/>
            </g>
        </g>
    </g>
</svg>
