<?xml version="1.0" encoding="UTF-8" standalone="no"?>
<!DOCTYPE svg PUBLIC "-//W3C//DTD SVG 1.1//EN" "http://www.w3.org/Graphics/SVG/1.1/DTD/svg11.dtd">
<svg width="100%" height="100%" viewBox="0 0 827 998" version="1.1" xmlns="http://www.w3.org/2000/svg" xmlns:xlink="http://www.w3.org/1999/xlink" xml:space="preserve" xmlns:serif="http://www.serif.com/" style="fill-rule:evenodd;clip-rule:evenodd;stroke-linejoin:round;stroke-miterlimit:2;">
    <g transform="matrix(1.33333,0,0,1.33333,-1900.86,-30.4539)">
        <g transform="matrix(4.16667,0,0,4.16667,0,0)">
            <path d="M437.243,126.397C428.761,121.771 431.074,99.407 431.074,99.407L418.371,100.225L418.371,99.41L417.012,99.817L415.653,99.41L415.653,100.225L402.95,99.407C402.95,99.407 405.263,121.771 396.781,126.397C388.299,131.024 338.178,133.337 343.576,185L490.448,185C495.846,133.337 445.725,131.024 437.243,126.397Z" style="fill:rgb(247,161,153);fill-rule:nonzero;"/>
        </g>
        <g transform="matrix(4.16667,0,0,4.16667,0,0)">
            <path d="M401.169,120.628C411.315,119.116 421.455,117.555 431.588,115.947C430.163,108.236 431.074,99.407 431.074,99.407L418.371,100.225L418.371,99.41L417.012,99.817L415.653,99.41L415.653,100.225L402.949,99.407C402.949,99.407 404.289,112.401 401.169,120.628Z" style="fill:rgb(223,135,126);fill-rule:nonzero;"/>
        </g>
        <g transform="matrix(4.16667,0,0,4.16667,0,0)">
            <path d="M439.882,126C435.647,123.691 434.087,116.99 433.588,110.82C429.86,112.229 422.407,113.051 417.622,113.051C411.878,113.051 404.609,111.871 400.502,109.906C400.085,116.314 398.588,123.576 394.143,126C385.603,130.658 337.144,132.987 342.578,185L490.446,185C495.88,132.987 448.421,130.658 439.882,126Z" style="fill:rgb(241,139,81);fill-rule:nonzero;"/>
        </g>
        <g transform="matrix(4.16667,0,0,4.16667,0,0)">
            <path d="M416.944,138.052C428.604,138.052 439.062,134.176 446.209,128.041C443.611,127.304 441.549,126.676 440.31,126C436.075,123.691 434.515,116.99 434.016,110.82C430.288,112.229 422.835,113.051 418.05,113.051C412.306,113.051 405.037,111.871 400.93,109.906C400.513,116.314 399.016,123.576 394.57,126C393.222,126.736 390.876,127.414 387.906,128.238C395.046,134.26 405.408,138.052 416.944,138.052Z" style="fill:rgb(248,158,100);fill-rule:nonzero;"/>
        </g>
        <g transform="matrix(4.16667,0,0,4.16667,0,0)">
            <path d="M363.501,179.51L371.104,172.33L378.266,179.491L379.562,178.195L371.14,169.773L362.243,178.177L363.501,179.51Z" style="fill:rgb(118,91,103);fill-rule:nonzero;"/>
        </g>
        <g transform="matrix(4.16667,0,0,4.16667,0,0)">
            <path d="M456.247,179.251L465.011,172.278L472.224,179.491L473.52,178.195L465.15,169.825L455.105,177.817L456.247,179.251Z" style="fill:rgb(118,91,103);fill-rule:nonzero;"/>
        </g>
        <g transform="matrix(4.16667,0,0,4.16667,0,0)">
            <path d="M440.753,179.282L448.988,172.297L456.182,179.491L457.478,178.195L449.09,169.806L439.567,177.884L440.753,179.282Z" style="fill:rgb(118,91,103);fill-rule:nonzero;"/>
        </g>
        <g transform="matrix(4.16667,0,0,4.16667,0,0)">
            <path d="M425.835,179.51L433.437,172.33L440.599,179.491L441.895,178.195L433.474,169.773L424.576,178.177L425.835,179.51Z" style="fill:rgb(118,91,103);fill-rule:nonzero;"/>
        </g>
        <g transform="matrix(4.16667,0,0,4.16667,0,0)">
            <path d="M409.424,179.381L417.854,172.267L425.695,179.314L426.92,177.95L417.891,169.836L408.242,177.98L409.424,179.381Z" style="fill:rgb(118,91,103);fill-rule:nonzero;"/>
        </g>
        <g transform="matrix(4.16667,0,0,4.16667,0,0)">
            <path d="M394.669,179.51L402.271,172.33L409.433,179.491L410.729,178.195L402.307,169.773L393.41,178.177L394.669,179.51Z" style="fill:rgb(118,91,103);fill-rule:nonzero;"/>
        </g>
        <g transform="matrix(4.16667,0,0,4.16667,0,0)">
            <path d="M378.396,179.377L386.691,172.271L394.417,179.216L395.642,177.852L386.72,169.832L377.203,177.985L378.396,179.377Z" style="fill:rgb(118,91,103);fill-rule:nonzero;"/>
        </g>
        <g transform="matrix(4.16667,0,0,4.16667,0,0)">
            <path d="M363.215,171.54L371.112,164.082L378.56,171.53L379.267,170.823L371.132,162.688L362.529,170.813L363.215,171.54Z" style="fill:rgb(118,91,103);fill-rule:nonzero;"/>
        </g>
        <g transform="matrix(4.16667,0,0,4.16667,0,0)">
            <path d="M455.987,171.259L465.042,164.054L472.518,171.53L473.226,170.823L465.118,162.716L455.365,170.476L455.987,171.259Z" style="fill:rgb(118,91,103);fill-rule:nonzero;"/>
        </g>
        <g transform="matrix(4.16667,0,0,4.16667,0,0)">
            <path d="M440.483,171.298L449.011,164.064L456.477,171.53L457.184,170.823L449.066,162.706L439.836,170.535L440.483,171.298Z" style="fill:rgb(118,91,103);fill-rule:nonzero;"/>
        </g>
        <g transform="matrix(4.16667,0,0,4.16667,0,0)">
            <path d="M425.549,171.54L433.445,164.082L440.893,171.53L441.601,170.823L433.465,162.688L424.862,170.813L425.549,171.54Z" style="fill:rgb(118,91,103);fill-rule:nonzero;"/>
        </g>
        <g transform="matrix(4.16667,0,0,4.16667,0,0)">
            <path d="M409.155,171.396L417.862,164.048L425.973,171.337L426.642,170.593L417.883,162.722L408.51,170.632L409.155,171.396Z" style="fill:rgb(118,91,103);fill-rule:nonzero;"/>
        </g>
        <g transform="matrix(4.16667,0,0,4.16667,0,0)">
            <path d="M394.383,171.54L402.279,164.082L409.727,171.53L410.434,170.823L402.299,162.688L393.696,170.813L394.383,171.54Z" style="fill:rgb(118,91,103);fill-rule:nonzero;"/>
        </g>
        <g transform="matrix(4.16667,0,0,4.16667,0,0)">
            <path d="M378.125,171.394L386.697,164.05L394.695,171.239L395.364,170.496L386.713,162.72L377.474,170.634L378.125,171.394Z" style="fill:rgb(118,91,103);fill-rule:nonzero;"/>
        </g>
        <g transform="matrix(4.16667,0,0,4.16667,0,0)">
            <path d="M365.372,166.302C365.372,155.699 364.091,145.992 361.968,138.47C349.966,146.259 339.945,159.797 342.578,185L363.95,185C364.861,179.341 365.372,172.999 365.372,166.302Z" style="fill:rgb(248,158,100);fill-rule:nonzero;"/>
        </g>
        <g transform="matrix(4.16667,0,0,4.16667,0,0)">
            <path d="M470.896,138.059C468.702,145.637 467.372,155.503 467.372,166.302C467.372,172.999 467.883,179.341 468.794,185L490.446,185C493.126,159.343 482.935,145.78 470.896,138.059Z" style="fill:rgb(248,158,100);fill-rule:nonzero;"/>
        </g>
        <g transform="matrix(4.16667,0,0,4.16667,0,0)">
            <path d="M392.175,66.671C389.676,58.917 383.758,60.712 383.204,60.9C382.623,60.967 376.506,61.876 377.563,69.953C378.626,78.079 383.341,82.482 387.761,81.189C392.311,80.467 394.689,74.47 392.175,66.671Z" style="fill:rgb(223,135,126);fill-rule:nonzero;"/>
        </g>
        <g transform="matrix(4.16667,0,0,4.16667,0,0)">
            <path d="M442.077,66.671C444.576,58.917 450.494,60.712 451.048,60.9C451.629,60.967 457.746,61.876 456.689,69.953C455.626,78.079 450.912,82.482 446.491,81.189C441.941,80.467 439.563,74.47 442.077,66.671Z" style="fill:rgb(223,135,126);fill-rule:nonzero;"/>
        </g>
        <g transform="matrix(4.16667,0,0,4.16667,0,0)">
            <path d="M386.112,54.925C389.209,20.935 415.05,22.839 417.487,23.095C419.924,22.839 445.765,20.935 448.862,54.925C451.977,89.118 436.747,111.449 417.487,110.221C398.227,111.449 382.997,89.118 386.112,54.925Z" style="fill:rgb(247,161,153);fill-rule:nonzero;"/>
        </g>
        <g transform="matrix(4.16667,0,0,4.16667,0,0)">
            <path d="M384.872,31.052C384.872,31.052 377.872,35.552 382.872,51.052L385.872,68.552L388.372,69.052C388.372,69.052 387.372,42.552 395.872,36.552C404.372,30.552 384.872,31.052 384.872,31.052Z" style="fill:rgb(241,93,88);fill-rule:nonzero;"/>
        </g>
        <g transform="matrix(4.16667,0,0,4.16667,0,0)">
            <path d="M438.372,33.552C438.372,33.552 404.872,53.052 386.872,37.552C368.872,22.052 387.872,14.052 395.372,15.052C395.372,15.052 392.872,6.552 402.872,5.552C412.872,4.552 410.872,14.552 425.872,14.552C440.872,14.552 448.372,15.552 446.872,28.052C446.872,28.052 454.372,23.552 456.872,32.052C459.372,40.552 449.872,68.552 449.872,68.552L448.872,73.052L446.372,73.052L446.372,49.052C446.372,49.052 436.872,52.052 438.372,33.552Z" style="fill:rgb(242,109,100);fill-rule:nonzero;"/>
        </g>
        <g transform="matrix(4.16667,0,0,4.16667,0,0)">
            <path d="M456.872,32.052C454.372,23.552 446.872,28.052 446.872,28.052C447.736,20.854 445.61,17.474 440.792,15.897C439.788,23.102 437.472,30.062 433.31,36.143C436.453,34.665 438.372,33.552 438.372,33.552C436.872,52.052 446.372,49.052 446.372,49.052L446.372,73.052L448.872,73.052L449.872,68.552C449.872,68.552 459.372,40.552 456.872,32.052Z" style="fill:rgb(241,93,88);fill-rule:nonzero;"/>
        </g>
        <g transform="matrix(4.16667,0,0,4.16667,0,0)">
            <path d="M421.943,58.911C422.373,60.471 422.704,62.042 423.003,63.616C423.299,65.191 423.549,66.771 423.772,68.354C423.89,69.144 423.973,69.939 424.075,70.731C424.179,71.524 424.258,72.319 424.334,73.114C424.501,74.703 424.618,76.297 424.712,77.895L424.738,78.325L424.428,78.516C423.41,79.143 422.377,79.749 421.335,80.341C420.284,80.919 419.236,81.503 418.142,82.02C419.018,81.185 419.94,80.419 420.859,79.647C421.787,78.888 422.724,78.143 423.676,77.42L423.392,78.041C423.134,76.462 422.9,74.88 422.716,73.293C422.616,72.5 422.519,71.707 422.448,70.911C422.374,70.116 422.28,69.322 422.223,68.525C422.094,66.932 421.992,65.336 421.937,63.734C421.884,62.132 421.864,60.527 421.943,58.911Z" style="fill:rgb(223,135,126);fill-rule:nonzero;"/>
        </g>
        <g transform="matrix(4.16667,0,0,4.16667,0,0)">
            <path d="M430.661,88.126C424.509,94.106 414.088,93.774 406.195,88.445" style="fill:white;fill-rule:nonzero;"/>
        </g>
        <g transform="matrix(4.16667,0,0,4.16667,0,0)">
            <path d="M441.856,56.391C441.856,56.391 441.587,56.242 441.116,55.981C440.887,55.856 440.609,55.704 440.291,55.53C439.979,55.365 439.627,55.178 439.242,54.975C438.845,54.805 438.448,54.577 438.004,54.403C437.789,54.307 437.568,54.208 437.342,54.108C437.115,54.025 436.882,53.94 436.645,53.854C436.185,53.65 435.683,53.575 435.205,53.406C434.71,53.355 434.223,53.166 433.728,53.185L432.991,53.125C432.749,53.154 432.506,53.162 432.263,53.176C431.771,53.155 431.314,53.338 430.839,53.397C430.366,53.472 429.941,53.701 429.496,53.818L429.167,53.92L428.868,54.072C428.665,54.167 428.468,54.259 428.279,54.347C427.904,54.533 427.519,54.668 427.229,54.869C426.931,55.056 426.648,55.203 426.415,55.331C425.948,55.584 425.649,55.716 425.649,55.716C425.649,55.716 425.767,55.432 426.031,54.956C426.164,54.719 426.324,54.424 426.535,54.104C426.721,53.759 427.016,53.445 427.351,53.105C427.697,52.779 428.009,52.33 428.499,52.046C428.977,51.753 429.45,51.357 430.044,51.137C430.337,51.018 430.643,50.912 430.954,50.803C431.259,50.672 431.588,50.616 431.925,50.578C432.26,50.531 432.599,50.479 432.941,50.448C433.281,50.452 433.624,50.476 433.966,50.496C434.66,50.51 435.301,50.739 435.944,50.896C436.253,51.007 436.548,51.141 436.841,51.269C437.138,51.388 437.417,51.527 437.672,51.697C437.931,51.857 438.189,52.007 438.431,52.17C438.657,52.349 438.879,52.525 439.095,52.695C439.532,53.025 439.863,53.43 440.195,53.76C440.817,54.47 441.246,55.122 441.499,55.609C441.762,56.089 441.856,56.391 441.856,56.391Z" style="fill:rgb(45,35,52);fill-rule:nonzero;"/>
        </g>
        <g transform="matrix(4.16667,0,0,4.16667,0,0)">
            <path d="M409.667,56.391C409.667,56.391 409.398,56.242 408.927,55.981C408.698,55.856 408.421,55.704 408.102,55.53C407.79,55.365 407.438,55.178 407.053,54.975C406.656,54.805 406.26,54.577 405.815,54.403C405.6,54.307 405.379,54.208 405.154,54.108C404.926,54.025 404.693,53.94 404.456,53.854C403.996,53.65 403.494,53.575 403.017,53.406C402.521,53.355 402.034,53.166 401.539,53.185L400.802,53.125C400.56,53.154 400.317,53.162 400.074,53.176C399.582,53.155 399.125,53.338 398.65,53.397C398.177,53.472 397.752,53.701 397.307,53.818L396.979,53.92L396.679,54.072C396.476,54.167 396.279,54.259 396.09,54.347C395.715,54.533 395.33,54.668 395.04,54.869C394.742,55.056 394.459,55.203 394.227,55.331C393.759,55.584 393.46,55.716 393.46,55.716C393.46,55.716 393.579,55.432 393.842,54.956C393.975,54.719 394.135,54.424 394.346,54.104C394.532,53.759 394.827,53.445 395.162,53.105C395.508,52.779 395.82,52.33 396.31,52.046C396.788,51.753 397.261,51.357 397.855,51.137C398.148,51.018 398.454,50.912 398.765,50.803C399.07,50.672 399.4,50.616 399.736,50.578C400.071,50.531 400.41,50.479 400.752,50.448C401.093,50.452 401.435,50.476 401.777,50.496C402.471,50.51 403.112,50.739 403.755,50.896C404.064,51.007 404.359,51.141 404.652,51.269C404.949,51.388 405.229,51.527 405.483,51.697C405.743,51.857 406,52.007 406.242,52.17C406.469,52.349 406.69,52.525 406.906,52.695C407.344,53.025 407.675,53.43 408.006,53.76C408.628,54.47 409.057,55.122 409.31,55.609C409.573,56.089 409.667,56.391 409.667,56.391Z" style="fill:rgb(45,35,52);fill-rule:nonzero;"/>
        </g>
        <g transform="matrix(4.16667,0,0,4.16667,0,0)">
            <path d="M383.041,60.546L391.921,67.38L414.39,68.085L414.613,67.772L414.634,67.744C414.754,67.58 415.392,66.75 416.312,65.989C417.234,65.22 418.42,64.556 419.587,64.564C420.214,64.566 420.855,64.735 421.551,65.207C422.245,65.679 422.99,66.472 423.734,67.723L423.942,68.073L447.158,68.073L454.131,61.536L453.15,60.49L446.591,66.639L424.35,66.639L424.35,67.356L424.966,66.99C424.145,65.609 423.273,64.646 422.359,64.022C421.448,63.397 420.49,63.127 419.587,63.13C417.774,63.14 416.263,64.133 415.19,65.061C414.117,65.997 413.466,66.912 413.445,66.94L414.029,67.356L414.051,66.639L392.429,65.961L383.916,59.409L383.041,60.546Z" style="fill:rgb(118,91,103);fill-rule:nonzero;"/>
        </g>
        <g transform="matrix(4.16667,0,0,4.16667,0,0)">
            <path d="M391.505,67.356C391.505,73.576 396.547,78.618 402.767,78.618C408.987,78.618 414.029,73.576 414.029,67.356C414.029,61.136 408.987,56.094 402.767,56.094C396.547,56.094 391.505,61.136 391.505,67.356Z" style="fill:rgb(143,195,215);fill-rule:nonzero;"/>
        </g>
        <g transform="matrix(4.16667,0,0,4.16667,0,0)">
            <path d="M392.222,67.356L390.788,67.356C390.788,73.972 396.151,79.335 402.767,79.335C409.383,79.335 414.746,73.972 414.746,67.356C414.746,60.74 409.383,55.377 402.767,55.377C396.151,55.377 390.788,60.74 390.788,67.356L392.222,67.356C392.222,64.442 393.401,61.81 395.31,59.9C397.221,57.99 399.853,56.811 402.767,56.811C405.681,56.811 408.313,57.99 410.223,59.9C412.133,61.81 413.312,64.442 413.312,67.356C413.312,70.27 412.133,72.902 410.223,74.813C408.313,76.722 405.681,77.901 402.767,77.901C399.853,77.901 397.221,76.722 395.31,74.813C393.401,72.902 392.222,70.27 392.222,67.356Z" style="fill:rgb(118,91,103);fill-rule:nonzero;"/>
        </g>
        <g transform="matrix(4.16667,0,0,4.16667,0,0)">
            <path d="M424.35,67.356C424.35,73.576 429.392,78.618 435.612,78.618C441.832,78.618 446.874,73.576 446.874,67.356C446.874,61.136 441.832,56.094 435.612,56.094C429.392,56.094 424.35,61.136 424.35,67.356Z" style="fill:rgb(143,195,215);fill-rule:nonzero;"/>
        </g>
        <g transform="matrix(4.16667,0,0,4.16667,0,0)">
            <path d="M425.067,67.356L423.633,67.356C423.633,73.972 428.996,79.335 435.612,79.335C442.228,79.335 447.591,73.972 447.591,67.356C447.591,60.74 442.228,55.377 435.612,55.377C428.996,55.377 423.633,60.74 423.633,67.356L425.067,67.356C425.067,64.442 426.246,61.81 428.156,59.9C430.066,57.99 432.698,56.811 435.612,56.811C438.526,56.811 441.158,57.99 443.069,59.9C444.978,61.81 446.157,64.442 446.157,67.356C446.157,70.27 444.978,72.902 443.069,74.813C441.158,76.722 438.526,77.901 435.612,77.901C432.698,77.901 430.066,76.722 428.156,74.813C426.246,72.902 425.067,70.27 425.067,67.356Z" style="fill:rgb(118,91,103);fill-rule:nonzero;"/>
        </g>
        <g transform="matrix(4.16667,0,0,4.16667,0,0)">
            <path d="M408.646,68.708C408.646,68.708 408.576,68.432 408.419,67.97C408.262,67.509 408.018,66.858 407.637,66.146C407.251,65.441 406.712,64.672 405.961,64.113C405.59,63.83 405.165,63.605 404.704,63.464C404.477,63.384 404.245,63.31 403.994,63.293C403.749,63.26 403.507,63.209 403.249,63.234C403.011,63.244 402.708,63.213 402.523,63.248C402.263,63.297 401.937,63.31 401.736,63.389C401.33,63.522 400.867,63.676 400.518,63.967C400.145,64.223 399.856,64.574 399.596,64.922C399.362,65.291 399.162,65.668 399.015,66.04C398.725,66.786 398.578,67.466 398.492,67.944C398.407,68.424 398.382,68.708 398.382,68.708C398.382,68.708 398.306,68.434 398.255,67.936C398.209,67.44 398.179,66.713 398.357,65.846C398.443,65.412 398.592,64.945 398.825,64.474C399.079,64.017 399.386,63.522 399.857,63.149C400.299,62.747 400.85,62.452 401.49,62.262C401.808,62.154 402.048,62.15 402.332,62.089C402.696,62.025 402.958,62.057 403.277,62.04C403.582,62.023 403.889,62.087 404.195,62.137C404.503,62.171 404.798,62.268 405.089,62.378C405.389,62.461 405.655,62.616 405.914,62.776C406.185,62.914 406.405,63.119 406.629,63.304C407.505,64.082 407.992,65.051 408.264,65.877C408.543,66.709 408.622,67.429 408.651,67.926C408.676,68.426 408.646,68.708 408.646,68.708Z" style="fill:rgb(45,35,52);fill-rule:nonzero;"/>
        </g>
        <g transform="matrix(4.16667,0,0,4.16667,0,0)">
            <path d="M437.572,68.242C437.572,68.242 437.502,67.966 437.345,67.503C437.188,67.042 436.944,66.392 436.563,65.68C436.177,64.974 435.638,64.206 434.886,63.646C434.516,63.363 434.091,63.138 433.63,62.998C433.402,62.918 433.171,62.843 432.92,62.827C432.675,62.794 432.432,62.742 432.175,62.768C431.937,62.777 431.634,62.746 431.449,62.781C431.189,62.831 430.863,62.843 430.662,62.923C430.256,63.055 429.793,63.21 429.444,63.5C429.07,63.757 428.782,64.108 428.522,64.456C428.288,64.825 428.087,65.201 427.941,65.574C427.651,66.319 427.504,66.999 427.418,67.478C427.333,67.958 427.308,68.242 427.308,68.242C427.308,68.242 427.232,67.967 427.181,67.469C427.134,66.973 427.105,66.247 427.283,65.379C427.369,64.945 427.517,64.479 427.751,64.007C428.005,63.551 428.312,63.055 428.783,62.683C429.225,62.281 429.776,61.985 430.416,61.795C430.733,61.687 430.973,61.684 431.258,61.622C431.622,61.558 431.884,61.59 432.203,61.574C432.507,61.556 432.815,61.62 433.121,61.671C433.429,61.704 433.724,61.802 434.015,61.911C434.314,61.994 434.581,62.15 434.84,62.309C435.111,62.448 435.33,62.652 435.555,62.837C436.431,63.615 436.918,64.585 437.19,65.41C437.469,66.243 437.548,66.962 437.577,67.46C437.602,67.959 437.572,68.242 437.572,68.242Z" style="fill:rgb(45,35,52);fill-rule:nonzero;"/>
        </g>
    </g>
</svg>
