<?xml version="1.0" encoding="UTF-8" standalone="no"?>
<!DOCTYPE svg PUBLIC "-//W3C//DTD SVG 1.1//EN" "http://www.w3.org/Graphics/SVG/1.1/DTD/svg11.dtd">
<svg width="100%" height="100%" viewBox="0 0 859 981" version="1.1" xmlns="http://www.w3.org/2000/svg" xmlns:xlink="http://www.w3.org/1999/xlink" xml:space="preserve" xmlns:serif="http://www.serif.com/" style="fill-rule:evenodd;clip-rule:evenodd;stroke-linejoin:round;stroke-miterlimit:2;">
    <g transform="matrix(1.33333,0,0,1.33333,-2830.55,-47.4074)">
        <g transform="matrix(4.16667,0,0,4.16667,0,0)">
            <path d="M607.243,126.397C598.761,121.771 601.074,99.407 601.074,99.407L588.371,100.225L588.371,99.41L587.012,99.817L585.653,99.41L585.653,100.225L572.95,99.407C572.95,99.407 575.263,121.771 566.781,126.397C558.299,131.024 508.178,133.337 513.576,185L660.448,185C665.846,133.337 615.725,131.024 607.243,126.397Z" style="fill:rgb(246,150,124);fill-rule:nonzero;"/>
        </g>
        <g transform="matrix(4.16667,0,0,4.16667,0,0)">
            <path d="M571.169,120.628C581.315,119.116 591.455,117.555 601.588,115.947C600.163,108.236 601.074,99.407 601.074,99.407L588.371,100.225L588.371,99.41L587.012,99.817L585.653,99.41L585.653,100.225L572.95,99.407C572.95,99.407 574.289,112.401 571.169,120.628Z" style="fill:rgb(216,127,104);fill-rule:nonzero;"/>
        </g>
        <g transform="matrix(4.16667,0,0,4.16667,0,0)">
            <path d="M615.39,128.995C608.485,135.155 598.336,139.052 587.012,139.052C575.688,139.052 565.539,135.155 558.634,128.995C541.943,133.487 509.157,142.705 513.576,185L660.448,185C664.867,142.705 632.081,133.487 615.39,128.995Z" style="fill:rgb(242,109,100);fill-rule:nonzero;"/>
        </g>
        <g transform="matrix(4.16667,0,0,4.16667,0,0)">
            <path d="M513.205,176.218C513.149,178.981 513.25,181.891 513.576,185L660.448,185C662.366,166.644 657.272,154.524 649.531,146.311C603.687,154.317 558.32,164.762 513.205,176.218Z" style="fill:rgb(241,93,88);fill-rule:nonzero;"/>
        </g>
        <g transform="matrix(4.16667,0,0,4.16667,0,0)">
            <path d="M556.372,127.051L565.039,185.052L509.705,185.052C509.705,185.052 503.705,135.718 556.372,127.051Z" style="fill:rgb(118,91,103);fill-rule:nonzero;"/>
        </g>
        <g transform="matrix(4.16667,0,0,4.16667,0,0)">
            <path d="M556.372,127.051L565.039,185.052L541.705,148.385L551.039,135.718L539.039,131.052C539.039,131.052 547.039,127.385 556.372,127.051Z" style="fill:rgb(144,110,126);fill-rule:nonzero;"/>
        </g>
        <g transform="matrix(4.16667,0,0,4.16667,0,0)">
            <path d="M617.165,127.051L608.499,185.052L663.832,185.052C663.832,185.052 669.832,135.718 617.165,127.051Z" style="fill:rgb(118,91,103);fill-rule:nonzero;"/>
        </g>
        <g transform="matrix(4.16667,0,0,4.16667,0,0)">
            <path d="M617.165,127.051L608.499,185.052L631.832,148.385L622.499,135.718L634.499,131.052C634.499,131.052 626.499,127.385 617.165,127.051Z" style="fill:rgb(144,110,126);fill-rule:nonzero;"/>
        </g>
        <g transform="matrix(4.16667,0,0,4.16667,0,0)">
            <path d="M562.175,66.671C559.676,58.917 553.758,60.712 553.204,60.9C552.623,60.967 546.506,61.876 547.563,69.953C548.626,78.079 553.341,82.482 557.761,81.189C562.311,80.467 564.689,74.47 562.175,66.671Z" style="fill:rgb(216,127,104);fill-rule:nonzero;"/>
        </g>
        <g transform="matrix(4.16667,0,0,4.16667,0,0)">
            <path d="M612.077,66.671C614.576,58.917 620.494,60.712 621.048,60.9C621.629,60.967 627.746,61.876 626.689,69.953C625.626,78.079 620.912,82.482 616.491,81.189C611.941,80.467 609.563,74.47 612.077,66.671Z" style="fill:rgb(216,127,104);fill-rule:nonzero;"/>
        </g>
        <g transform="matrix(4.16667,0,0,4.16667,0,0)">
            <path d="M556.112,54.925C559.209,20.935 585.05,22.839 587.487,23.095C589.924,22.839 615.765,20.935 618.862,54.925C621.977,89.118 606.747,111.449 587.487,110.221C568.227,111.449 552.997,89.118 556.112,54.925Z" style="fill:rgb(246,150,124);fill-rule:nonzero;"/>
        </g>
        <g transform="matrix(4.16667,0,0,4.16667,0,0)">
            <path d="M591.943,58.911C592.373,60.471 592.704,62.042 593.003,63.616C593.299,65.191 593.549,66.771 593.772,68.354C593.89,69.144 593.973,69.939 594.075,70.731C594.179,71.524 594.258,72.319 594.334,73.114C594.501,74.703 594.618,76.297 594.712,77.895L594.738,78.325L594.428,78.516C593.41,79.143 592.377,79.749 591.335,80.341C590.284,80.919 589.236,81.503 588.142,82.02C589.018,81.185 589.94,80.419 590.859,79.647C591.787,78.888 592.724,78.143 593.676,77.42L593.392,78.041C593.134,76.462 592.9,74.88 592.716,73.293C592.615,72.5 592.519,71.707 592.448,70.911C592.374,70.116 592.28,69.322 592.223,68.525C592.094,66.932 591.992,65.336 591.937,63.734C591.884,62.132 591.864,60.527 591.943,58.911Z" style="fill:rgb(171,102,85);fill-rule:nonzero;"/>
        </g>
        <g transform="matrix(4.16667,0,0,4.16667,0,0)">
            <path d="M600.661,88.126C594.509,94.106 584.932,93.715 577.039,88.385" style="fill:white;fill-rule:nonzero;"/>
        </g>
        <g transform="matrix(4.16667,0,0,4.16667,0,0)">
            <path d="M611.856,56.391C611.856,56.391 610.662,55.945 608.871,55.275C608.439,55.141 608.01,54.946 607.536,54.813C607.3,54.745 607.073,54.649 606.834,54.575C606.589,54.52 606.352,54.442 606.109,54.372C605.629,54.21 605.126,54.153 604.643,54.012C604.149,53.981 603.664,53.807 603.178,53.833L602.455,53.769C602.217,53.797 601.979,53.795 601.74,53.801C601.257,53.768 600.8,53.913 600.323,53.943C600.079,53.944 599.858,54.027 599.628,54.084C599.398,54.139 599.173,54.202 598.942,54.247C598.467,54.307 598.068,54.539 597.644,54.654C597.231,54.794 596.808,54.887 596.479,55.057C596.137,55.206 595.811,55.32 595.544,55.421C595.005,55.621 594.649,55.716 594.649,55.716C594.649,55.716 594.743,55.388 594.991,54.849C595.117,54.581 595.269,54.246 595.476,53.88C595.66,53.493 595.975,53.152 596.314,52.755C596.675,52.384 597.018,51.904 597.543,51.58C598.056,51.252 598.568,50.809 599.219,50.572C599.538,50.436 599.872,50.319 600.212,50.198C600.547,50.054 600.907,49.997 601.275,49.949C601.641,49.897 602.012,49.835 602.386,49.804C602.758,49.806 603.132,49.828 603.507,49.847C604.265,49.868 604.967,50.097 605.667,50.276C606.006,50.386 606.325,50.536 606.643,50.675C606.963,50.81 607.272,50.952 607.546,51.14C607.826,51.316 608.104,51.48 608.363,51.661C608.612,51.854 608.851,52.042 609.075,52.238C609.537,52.608 609.895,53.042 610.237,53.415C610.88,54.211 611.304,54.945 611.538,55.5C611.787,56.044 611.856,56.391 611.856,56.391Z" style="fill:rgb(45,35,52);fill-rule:nonzero;"/>
        </g>
        <g transform="matrix(4.16667,0,0,4.16667,0,0)">
            <path d="M582.818,55.733C582.818,55.733 581.559,55.369 579.671,54.824C579.217,54.718 578.758,54.556 578.259,54.456C577.773,54.318 577.262,54.22 576.749,54.115C576.239,53.993 575.711,53.961 575.197,53.86C574.678,53.861 574.159,53.724 573.651,53.782L572.887,53.768C572.64,53.813 572.39,53.828 572.14,53.852C571.63,53.854 571.161,54.027 570.666,54.094C570.412,54.113 570.184,54.204 569.95,54.281C569.715,54.352 569.485,54.431 569.249,54.493C568.762,54.586 568.36,54.839 567.931,54.987C567.515,55.158 567.083,55.274 566.755,55.468C566.413,55.642 566.086,55.778 565.818,55.898C565.278,56.135 564.92,56.253 564.92,56.253C564.92,56.253 565.006,55.914 565.239,55.352C565.358,55.072 565.502,54.723 565.699,54.34C565.872,53.935 566.185,53.576 566.514,53.152C566.864,52.754 567.203,52.254 567.722,51.897C567.967,51.7 568.232,51.513 568.501,51.312C568.766,51.102 569.058,50.924 569.384,50.786C570.028,50.508 570.69,50.141 571.439,50.035C571.807,49.959 572.18,49.873 572.558,49.817C572.936,49.795 573.317,49.79 573.698,49.783C574.468,49.752 575.2,49.926 575.925,50.055C576.281,50.135 576.617,50.265 576.952,50.38C577.288,50.493 577.617,50.606 577.913,50.775C578.526,51.065 579.085,51.393 579.572,51.759C580.077,52.096 580.487,52.502 580.87,52.853C581.605,53.603 582.109,54.313 582.404,54.856C582.712,55.386 582.818,55.733 582.818,55.733Z" style="fill:rgb(45,35,52);fill-rule:nonzero;"/>
        </g>
        <g transform="matrix(4.16667,0,0,4.16667,0,0)">
            <path d="M578.646,68.708C578.646,68.708 578.576,68.432 578.419,67.97C578.262,67.509 578.018,66.858 577.637,66.146C577.251,65.441 576.712,64.672 575.961,64.113C575.59,63.83 575.165,63.605 574.704,63.464C574.477,63.384 574.245,63.31 573.994,63.293C573.749,63.26 573.507,63.209 573.249,63.234C573.011,63.244 572.708,63.213 572.523,63.248C572.263,63.297 571.937,63.31 571.736,63.389C571.33,63.522 570.867,63.676 570.518,63.967C570.145,64.223 569.856,64.574 569.596,64.922C569.362,65.291 569.162,65.668 569.015,66.04C568.725,66.786 568.578,67.466 568.492,67.944C568.407,68.424 568.382,68.708 568.382,68.708C568.382,68.708 568.306,68.434 568.255,67.936C568.208,67.44 568.179,66.713 568.357,65.846C568.443,65.412 568.592,64.945 568.825,64.474C569.079,64.017 569.386,63.522 569.857,63.149C570.299,62.747 570.85,62.452 571.49,62.262C571.808,62.154 572.047,62.15 572.332,62.089C572.696,62.025 572.958,62.057 573.277,62.04C573.581,62.023 573.89,62.087 574.195,62.137C574.503,62.171 574.799,62.268 575.089,62.378C575.389,62.461 575.655,62.616 575.914,62.776C576.185,62.914 576.404,63.119 576.629,63.304C577.505,64.082 577.992,65.051 578.264,65.877C578.543,66.709 578.622,67.429 578.651,67.926C578.676,68.426 578.646,68.708 578.646,68.708Z" style="fill:rgb(45,35,52);fill-rule:nonzero;"/>
        </g>
        <g transform="matrix(4.16667,0,0,4.16667,0,0)">
            <path d="M607.572,68.242C607.572,68.242 607.502,67.966 607.345,67.503C607.188,67.042 606.944,66.392 606.563,65.68C606.177,64.974 605.638,64.206 604.886,63.646C604.516,63.363 604.091,63.138 603.63,62.998C603.403,62.918 603.171,62.843 602.92,62.827C602.675,62.794 602.432,62.742 602.175,62.768C601.937,62.777 601.633,62.746 601.449,62.781C601.189,62.831 600.863,62.843 600.662,62.923C600.256,63.055 599.793,63.21 599.444,63.5C599.07,63.757 598.782,64.108 598.522,64.456C598.288,64.825 598.088,65.201 597.941,65.574C597.651,66.319 597.504,66.999 597.418,67.478C597.333,67.958 597.308,68.242 597.308,68.242C597.308,68.242 597.232,67.967 597.181,67.469C597.134,66.973 597.105,66.247 597.283,65.379C597.369,64.945 597.518,64.479 597.751,64.007C598.005,63.551 598.312,63.055 598.783,62.683C599.225,62.281 599.776,61.985 600.416,61.795C600.734,61.687 600.973,61.684 601.258,61.622C601.622,61.558 601.883,61.59 602.203,61.574C602.507,61.556 602.815,61.62 603.12,61.671C603.429,61.704 603.724,61.802 604.015,61.911C604.314,61.994 604.581,62.15 604.84,62.309C605.111,62.448 605.33,62.652 605.555,62.837C606.431,63.615 606.918,64.585 607.19,65.41C607.469,66.243 607.548,66.962 607.577,67.46C607.602,67.959 607.572,68.242 607.572,68.242Z" style="fill:rgb(45,35,52);fill-rule:nonzero;"/>
        </g>
        <g transform="matrix(4.16667,0,0,4.16667,0,0)">
            <path d="M572.039,88.052L588.039,88.052L604.705,88.385C604.705,88.385 600.809,81.353 588.142,82.02C575.476,82.686 574.372,85.719 572.039,88.052Z" style="fill:rgb(45,35,52);fill-rule:nonzero;"/>
        </g>
        <g transform="matrix(4.16667,0,0,4.16667,0,0)">
            <path d="M567.705,32.719C567.705,32.719 580.705,49.385 599.372,46.385L595.039,40.385C595.039,40.385 606.372,45.719 625.372,40.719C625.372,40.719 626.705,20.052 594.372,15.385C594.372,15.385 609.705,16.719 620.372,23.052C620.372,23.052 589.039,-9.615 563.372,23.052C563.372,23.052 548.705,23.385 548.039,39.719C547.372,56.052 551.372,62.052 551.372,62.052C551.372,62.052 554.705,59.385 555.705,65.052C556.705,70.719 555.705,79.385 559.372,87.385L565.372,83.052C565.372,83.052 557.705,65.052 559.372,50.052C559.372,50.052 569.039,48.052 567.705,32.719Z" style="fill:rgb(45,35,52);fill-rule:nonzero;"/>
        </g>
        <g transform="matrix(4.16667,0,0,4.16667,0,0)">
            <path d="M620.705,37.719C620.705,37.719 625.039,74.385 614.705,89.052L610.705,84.052C610.705,84.052 622.039,64.052 613.372,40.052L620.705,37.719Z" style="fill:rgb(45,35,52);fill-rule:nonzero;"/>
        </g>
    </g>
</svg>
