<?xml version="1.0" encoding="UTF-8" standalone="no"?>
<!DOCTYPE svg PUBLIC "-//W3C//DTD SVG 1.1//EN" "http://www.w3.org/Graphics/SVG/1.1/DTD/svg11.dtd">
<svg width="100%" height="100%" viewBox="0 0 821 991" version="1.1" xmlns="http://www.w3.org/2000/svg" xmlns:xlink="http://www.w3.org/1999/xlink" xml:space="preserve" xmlns:serif="http://www.serif.com/" style="fill-rule:evenodd;clip-rule:evenodd;stroke-linejoin:round;stroke-miterlimit:2;">
    <g transform="matrix(1.33333,0,0,1.33333,-962.057,-1298.33)">
        <g transform="matrix(4.16667,0,0,4.16667,0,0)">
            <path d="M267.243,353.397C258.76,348.771 261.074,326.406 261.074,326.406L248.371,327.225L248.371,326.409L247.012,326.817L245.653,326.409L245.653,327.225L232.95,326.406C232.95,326.406 235.263,348.771 226.781,353.397C218.299,358.024 168.178,360.337 173.576,412L320.449,412C325.846,360.337 275.725,358.024 267.243,353.397Z" style="fill:rgb(247,161,153);fill-rule:nonzero;"/>
        </g>
        <g transform="matrix(4.16667,0,0,4.16667,0,0)">
            <path d="M231.169,347.628C241.316,346.116 251.455,344.555 261.588,342.947C260.163,335.236 261.074,326.406 261.074,326.406L248.371,327.225L248.371,326.409L247.012,326.817L245.653,326.409L245.653,327.225L232.95,326.406C232.95,326.406 234.289,339.401 231.169,347.628Z" style="fill:rgb(223,135,126);fill-rule:nonzero;"/>
        </g>
        <g transform="matrix(4.16667,0,0,4.16667,0,0)">
            <path d="M275.285,355.967C267.754,360.366 257.721,363.051 246.705,363.051C235.783,363.051 225.828,360.412 218.319,356.08C201.533,360.604 169.185,369.973 173.576,412L320.449,412C324.877,369.617 291.943,360.448 275.285,355.967Z" style="fill:rgb(88,168,205);fill-rule:nonzero;"/>
        </g>
        <g transform="matrix(4.16667,0,0,4.16667,0,0)">
            <path d="M309.879,373.699C303.134,376.936 295.678,378.034 288.287,380.331C277.839,383.579 267.354,386.704 256.836,389.717C235.753,395.754 214.571,401.435 193.391,407.124C187.351,408.747 181.312,410.374 175.274,412L320.449,412C322.337,393.925 317.421,381.905 309.879,373.699Z" style="fill:rgb(85,149,187);fill-rule:nonzero;"/>
        </g>
        <g transform="matrix(4.16667,0,0,4.16667,0,0)">
            <path d="M212.409,357.752C194.981,363.008 169.658,374.501 173.576,412L233.424,412L212.409,357.752Z" style="fill:rgb(248,158,100);fill-rule:nonzero;"/>
        </g>
        <g transform="matrix(4.16667,0,0,4.16667,0,0)">
            <path d="M281.193,357.625L271.646,412L320.449,412C324.398,374.194 298.629,362.822 281.193,357.625Z" style="fill:rgb(248,158,100);fill-rule:nonzero;"/>
        </g>
        <g transform="matrix(4.16667,0,0,4.16667,0,0)">
            <path d="M228.16,412L233.424,412L212.409,357.752C207.925,359.104 202.919,360.875 198.022,363.39L228.16,412Z" style="fill:rgb(241,139,81);fill-rule:nonzero;"/>
        </g>
        <g transform="matrix(4.16667,0,0,4.16667,0,0)">
            <path d="M281.193,357.625L271.646,412L276.036,412L301.206,366.409C294.618,362.102 287.382,359.47 281.193,357.625Z" style="fill:rgb(241,139,81);fill-rule:nonzero;"/>
        </g>
        <g transform="matrix(4.16667,0,0,4.16667,0,0)">
            <path d="M222.175,293.67C219.676,285.917 213.758,287.712 213.204,287.899C212.623,287.967 206.506,288.875 207.563,296.953C208.626,305.078 213.341,309.482 217.761,308.188C222.311,307.467 224.689,301.47 222.175,293.67Z" style="fill:rgb(223,135,126);fill-rule:nonzero;"/>
        </g>
        <g transform="matrix(4.16667,0,0,4.16667,0,0)">
            <path d="M272.077,293.67C274.576,285.917 280.494,287.712 281.048,287.899C281.629,287.967 287.746,288.875 286.689,296.953C285.626,305.078 280.912,309.482 276.491,308.188C271.941,307.467 269.563,301.47 272.077,293.67Z" style="fill:rgb(223,135,126);fill-rule:nonzero;"/>
        </g>
        <g transform="matrix(4.16667,0,0,4.16667,0,0)">
            <path d="M216.112,281.925C219.209,247.934 245.05,249.838 247.487,250.094C249.924,249.838 275.765,247.934 278.862,281.925C281.977,316.118 266.747,338.449 247.487,337.221C228.227,338.449 212.997,316.118 216.112,281.925Z" style="fill:rgb(247,161,153);fill-rule:nonzero;"/>
        </g>
        <g transform="matrix(4.16667,0,0,4.16667,0,0)">
            <path d="M251.943,297.918C252.369,298.703 252.698,299.508 252.995,300.321C253.289,301.133 253.538,301.956 253.76,302.783C253.878,303.196 253.96,303.616 254.062,304.032C254.167,304.447 254.246,304.868 254.322,305.289C254.489,306.128 254.607,306.978 254.702,307.833L254.747,308.232L254.53,308.431C253.837,309.065 253.125,309.682 252.401,310.287C251.665,310.881 250.934,311.48 250.144,312.021C250.656,311.212 251.228,310.46 251.795,309.703C252.374,308.958 252.964,308.224 253.574,307.508L253.402,308.106C253.145,307.285 252.912,306.459 252.728,305.624C252.628,305.207 252.531,304.79 252.46,304.368C252.386,303.946 252.293,303.529 252.235,303.104C252.105,302.256 252.003,301.403 251.945,300.541C251.89,299.678 251.868,298.808 251.943,297.918Z" style="fill:rgb(223,135,126);fill-rule:nonzero;"/>
        </g>
        <g transform="matrix(4.16667,0,0,4.16667,0,0)">
            <path d="M260.661,318.127C254.509,324.107 244.088,323.776 236.195,318.446" style="fill:white;fill-rule:nonzero;"/>
        </g>
        <g transform="matrix(4.16667,0,0,4.16667,0,0)">
            <path d="M271.856,286.393C271.856,286.393 271.587,286.244 271.116,285.983C270.887,285.858 270.609,285.706 270.291,285.531C269.979,285.366 269.627,285.18 269.242,284.977C268.845,284.806 268.449,284.578 268.004,284.404C267.789,284.308 267.568,284.21 267.342,284.109C267.115,284.026 266.882,283.941 266.645,283.855C266.185,283.651 265.683,283.576 265.205,283.407C264.71,283.356 264.223,283.167 263.728,283.187L262.991,283.127C262.749,283.156 262.506,283.164 262.263,283.177C261.771,283.157 261.314,283.34 260.838,283.398C260.366,283.473 259.941,283.702 259.496,283.82L259.167,283.922L258.868,284.073C258.665,284.168 258.467,284.26 258.278,284.348C257.903,284.534 257.519,284.669 257.229,284.871C256.931,285.058 256.648,285.205 256.415,285.332C255.948,285.585 255.649,285.717 255.649,285.717C255.649,285.717 255.768,285.433 256.031,284.957C256.164,284.721 256.324,284.425 256.535,284.105C256.721,283.761 257.015,283.447 257.351,283.106C257.696,282.78 258.009,282.331 258.499,282.047C258.976,281.754 259.45,281.359 260.044,281.139C260.337,281.02 260.643,280.913 260.954,280.804C261.259,280.673 261.588,280.617 261.924,280.579C262.26,280.533 262.599,280.481 262.941,280.449C263.281,280.453 263.624,280.478 263.966,280.497C264.66,280.511 265.301,280.741 265.944,280.897C266.253,281.008 266.548,281.142 266.841,281.27C267.138,281.39 267.417,281.528 267.672,281.698C267.932,281.859 268.189,282.009 268.431,282.171C268.657,282.351 268.879,282.526 269.095,282.697C269.532,283.026 269.863,283.431 270.195,283.762C270.817,284.471 271.246,285.124 271.499,285.61C271.762,286.09 271.856,286.393 271.856,286.393Z" style="fill:rgb(45,35,52);fill-rule:nonzero;"/>
        </g>
        <g transform="matrix(4.16667,0,0,4.16667,0,0)">
            <path d="M239.667,286.393C239.667,286.393 239.398,286.244 238.927,285.983C238.698,285.858 238.421,285.706 238.102,285.531C237.79,285.366 237.438,285.18 237.054,284.977C236.656,284.806 236.26,284.578 235.816,284.404C235.6,284.308 235.379,284.21 235.154,284.109C234.926,284.026 234.693,283.941 234.456,283.855C233.996,283.651 233.494,283.576 233.017,283.407C232.521,283.356 232.034,283.167 231.539,283.187L230.802,283.127C230.56,283.156 230.317,283.164 230.075,283.177C229.582,283.157 229.125,283.34 228.65,283.398C228.177,283.473 227.752,283.702 227.307,283.82L226.979,283.922L226.679,284.073C226.476,284.168 226.279,284.26 226.09,284.348C225.715,284.534 225.33,284.669 225.041,284.871C224.742,285.058 224.459,285.205 224.227,285.332C223.759,285.585 223.46,285.717 223.46,285.717C223.46,285.717 223.579,285.433 223.842,284.957C223.975,284.721 224.135,284.425 224.346,284.105C224.532,283.761 224.827,283.447 225.162,283.106C225.508,282.78 225.82,282.331 226.31,282.047C226.788,281.755 227.261,281.359 227.855,281.139C228.148,281.02 228.454,280.913 228.765,280.804C229.071,280.673 229.4,280.617 229.736,280.579C230.071,280.533 230.41,280.481 230.752,280.449C231.093,280.453 231.435,280.478 231.777,280.497C232.471,280.511 233.112,280.741 233.756,280.897C234.064,281.008 234.359,281.142 234.652,281.27C234.949,281.389 235.229,281.528 235.483,281.699C235.743,281.858 236.001,282.009 236.242,282.171C236.469,282.351 236.69,282.526 236.906,282.697C237.343,283.026 237.675,283.431 238.006,283.762C238.628,284.471 239.057,285.124 239.31,285.61C239.573,286.09 239.667,286.393 239.667,286.393Z" style="fill:rgb(45,35,52);fill-rule:nonzero;"/>
        </g>
        <g transform="matrix(4.16667,0,0,4.16667,0,0)">
            <path d="M238.646,298.71C238.646,298.71 238.576,298.434 238.419,297.972C238.262,297.51 238.018,296.86 237.637,296.148C237.251,295.442 236.712,294.674 235.961,294.114C235.59,293.831 235.165,293.606 234.704,293.466C234.477,293.386 234.245,293.311 233.994,293.295C233.749,293.262 233.507,293.21 233.249,293.235C233.158,293.239 233.058,293.237 232.959,293.235C232.797,293.231 232.637,293.227 232.523,293.249C232.263,293.298 231.937,293.311 231.736,293.391C231.33,293.523 230.867,293.678 230.519,293.969C230.145,294.225 229.856,294.576 229.596,294.924C229.362,295.293 229.162,295.669 229.015,296.042C228.725,296.787 228.578,297.467 228.492,297.946C228.407,298.426 228.382,298.71 228.382,298.71C228.382,298.71 228.306,298.435 228.255,297.937C228.209,297.441 228.179,296.715 228.357,295.847C228.443,295.413 228.592,294.947 228.825,294.475C229.079,294.019 229.386,293.523 229.857,293.15C230.299,292.749 230.85,292.454 231.49,292.263C231.808,292.155 232.047,292.152 232.332,292.09C232.696,292.026 232.958,292.058 233.277,292.042C233.581,292.024 233.889,292.088 234.195,292.139C234.503,292.172 234.798,292.27 235.089,292.379C235.389,292.462 235.655,292.618 235.914,292.777C236.185,292.916 236.404,293.12 236.629,293.305C237.505,294.083 237.992,295.052 238.264,295.878C238.543,296.711 238.622,297.43 238.651,297.927C238.676,298.427 238.646,298.71 238.646,298.71Z" style="fill:rgb(45,35,52);fill-rule:nonzero;"/>
        </g>
        <g transform="matrix(4.16667,0,0,4.16667,0,0)">
            <path d="M267.572,298.243C267.572,298.243 267.502,297.967 267.345,297.505C267.188,297.044 266.944,296.393 266.563,295.681C266.177,294.976 265.638,294.207 264.887,293.648C264.516,293.365 264.091,293.14 263.63,292.999C263.402,292.919 263.171,292.844 262.92,292.828C262.675,292.795 262.432,292.744 262.175,292.769C261.937,292.779 261.634,292.748 261.449,292.783C261.189,292.832 260.863,292.845 260.661,292.924C260.256,293.056 259.793,293.211 259.444,293.502C259.07,293.758 258.782,294.109 258.522,294.457C258.288,294.826 258.087,295.202 257.941,295.575C257.651,296.321 257.504,297 257.418,297.479C257.333,297.959 257.308,298.243 257.308,298.243C257.308,298.243 257.232,297.969 257.181,297.471C257.134,296.975 257.105,296.248 257.282,295.381C257.368,294.947 257.518,294.48 257.751,294.009C258.005,293.552 258.312,293.057 258.782,292.684C259.225,292.282 259.776,291.987 260.415,291.797C260.733,291.688 260.972,291.685 261.258,291.624C261.622,291.56 261.884,291.592 262.203,291.575C262.507,291.558 262.815,291.622 263.121,291.672C263.429,291.705 263.724,291.803 264.015,291.913C264.314,291.996 264.581,292.151 264.84,292.311C265.111,292.449 265.33,292.654 265.555,292.839C266.431,293.616 266.918,294.586 267.19,295.412C267.469,296.244 267.548,296.964 267.577,297.461C267.602,297.96 267.572,298.243 267.572,298.243Z" style="fill:rgb(45,35,52);fill-rule:nonzero;"/>
        </g>
        <g transform="matrix(4.16667,0,0,4.16667,0,0)">
            <path d="M195.598,294.554C195.598,294.554 195.721,294.17 195.951,293.451C196.072,293.093 196.186,292.635 196.435,292.142C196.672,291.646 196.889,291.04 197.292,290.45C197.98,289.196 199.124,287.853 200.534,286.472C201.936,285.088 203.609,283.63 204.615,281.582C205.431,280.01 205.689,278.078 205.688,276.067C205.689,278.078 205.431,280.01 204.615,281.582C203.609,283.63 201.936,285.088 200.534,286.472C199.124,287.853 197.98,289.196 197.292,290.45C196.889,291.04 196.672,291.646 196.435,292.142C196.186,292.635 196.072,293.093 195.951,293.451C195.721,294.17 195.598,294.554 195.598,294.554ZM205.297,270.812C205.297,270.534 205.301,270.256 205.308,269.978C205.34,268.494 205.483,266.985 205.715,265.452C205.955,263.922 206.295,262.365 206.87,260.823C207.024,260.439 207.156,260.049 207.358,259.674C207.543,259.296 207.719,258.917 207.991,258.525L208.374,257.948L208.757,257.497L208.95,257.271L209.022,257.187L209.119,257.084L209.227,256.984L209.66,256.577C209.67,256.569 209.679,256.562 209.689,256.553C209.679,256.562 209.67,256.569 209.66,256.577L209.227,256.984L209.119,257.084L209.022,257.187L208.95,257.271L208.757,257.497L208.374,257.948L207.991,258.525C207.719,258.917 207.543,259.296 207.358,259.674C207.156,260.049 207.024,260.439 206.87,260.823C206.295,262.365 205.955,263.922 205.715,265.452C205.483,266.985 205.34,268.494 205.308,269.978C205.301,270.256 205.297,270.534 205.297,270.812ZM210.974,257.993C211.692,257.364 212.54,256.786 213.426,256.28L213.426,256.286C212.541,256.791 211.691,257.365 210.974,257.993ZM209.713,256.532C209.714,256.53 209.715,256.529 209.716,256.529C209.715,256.529 209.714,256.53 209.713,256.532Z" style="fill:rgb(186,184,189);fill-rule:nonzero;"/>
        </g>
        <g transform="matrix(4.16667,0,0,4.16667,0,0)">
            <path d="M265.039,252.718C265.039,252.718 276.372,253.052 280.039,267.051C283.705,281.051 279.705,283.718 279.705,295.051C279.705,295.051 279.705,302.051 278.039,304.385L275.705,281.385C275.705,281.385 260.039,273.051 265.039,252.718Z" style="fill:rgb(164,85,83);fill-rule:nonzero;"/>
        </g>
        <g transform="matrix(4.16667,0,0,4.16667,0,0)">
            <path d="M225.348,296.028C224.866,297.091 224.158,298.012 223.335,298.934C222.529,299.863 221.504,300.717 220.573,301.968C220.327,302.242 220.144,302.636 219.939,302.978C219.717,303.314 219.599,303.722 219.471,304.119L219.288,304.716L219.226,305.322C219.21,305.719 219.109,306.146 219.181,306.516C219.197,306.671 219.213,306.827 219.229,306.982C217.408,299.245 222.466,299.701 225.838,294.855L225.72,295.239L225.348,296.028ZM244.593,233.96C242.701,233.685 240.667,233.548 238.524,233.96C237.093,234.218 235.634,234.719 234.294,235.511C232.941,236.289 231.768,237.381 230.737,238.562C228.673,240.946 227.117,243.679 225.243,246.12C223.401,248.583 221.104,250.671 218.341,251.964C217.643,252.312 216.983,252.551 216.19,252.857C215.443,253.143 214.698,253.42 213.911,253.812C212.37,254.564 210.97,255.418 209.66,256.577L209.227,256.984L209.119,257.084L209.022,257.187L208.95,257.271L208.757,257.497L208.374,257.948L207.991,258.525C207.719,258.917 207.543,259.296 207.358,259.674C207.156,260.049 207.024,260.439 206.87,260.823C206.295,262.365 205.955,263.922 205.715,265.452C205.483,266.985 205.34,268.494 205.308,269.978C205.299,270.349 205.295,270.719 205.298,271.09L205.304,271.374L205.323,271.708L205.386,272.238C205.469,272.942 205.551,273.638 205.631,274.325C205.791,276.942 205.664,279.56 204.615,281.582C203.609,283.63 201.936,285.088 200.534,286.472C199.124,287.853 197.98,289.196 197.292,290.45C196.889,291.04 196.672,291.646 196.435,292.142C196.186,292.635 196.072,293.093 195.951,293.451C195.721,294.17 195.598,294.554 195.598,294.554C195.598,294.554 195.756,294.184 196.052,293.49C196.324,292.791 196.842,291.808 197.619,290.66C198.374,289.488 199.559,288.28 201.038,287.02C202.494,285.766 204.381,284.38 205.634,282.112C205.97,281.567 206.158,280.936 206.429,280.328C206.58,279.69 206.79,279.04 206.897,278.37C206.97,277.698 207.085,277.014 207.108,276.315C207.111,275.614 207.114,274.903 207.118,274.181C207.062,273.492 207.005,272.794 206.948,272.087L206.905,271.555C206.893,271.391 206.905,271.487 206.903,271.354L206.907,271.1C206.917,270.753 206.933,270.402 206.955,270.047C207.047,268.632 207.195,267.183 207.452,265.74C207.71,264.299 208.065,262.852 208.606,261.497C208.749,261.163 208.873,260.816 209.052,260.507C209.217,260.187 209.38,259.859 209.566,259.611L209.826,259.201L210.21,258.756L210.404,258.532L210.453,258.476L210.459,258.468L210.538,258.395L210.974,257.993C211.789,257.279 212.771,256.631 213.787,256.08C213.327,256.376 212.887,256.679 212.485,256.993C212.274,257.151 212.069,257.319 211.867,257.493L211.634,257.691C211.365,257.937 211.106,258.196 210.857,258.468C207.234,262.342 207.661,272.13 207.705,272.385C210.372,287.718 201.039,284.718 198.039,295.718C195.039,306.718 209.882,313.857 206.372,317.718C199.705,325.051 196.372,315.385 196.372,315.385C195.039,321.051 201.039,329.385 208.372,328.385C215.313,327.438 222.844,322.009 220.239,310.69L221.038,312.601C221.27,313.186 221.553,313.76 221.747,314.356L222.294,316.158L222.652,317.993C222.689,318.608 222.779,319.23 222.782,319.848C222.727,320.459 222.788,321.094 222.647,321.695C222.547,322.305 222.449,322.919 222.231,323.5C222.079,324.106 221.806,324.664 221.548,325.235C220.977,326.342 220.256,327.401 219.341,328.293C218.47,329.232 217.419,330.005 216.311,330.686C215.198,331.369 213.991,331.892 212.733,332.33C214.023,332.064 215.33,331.72 216.555,331.154C217.769,330.583 218.964,329.906 220,329.006C221.067,328.142 221.966,327.067 222.717,325.891C223.063,325.285 223.433,324.683 223.661,324.015C223.954,323.37 224.121,322.687 224.284,321.999C224.489,321.317 224.485,320.609 224.591,319.909C224.639,319.208 224.596,318.506 224.598,317.8C224.528,317.106 224.431,316.412 224.333,315.718C224.184,315.039 224.003,314.368 223.836,313.692C223.653,313.021 223.386,312.386 223.163,311.73L222.503,309.886C222.397,309.577 222.27,309.258 222.179,308.958L221.992,308.109C221.823,307.546 221.806,306.989 221.758,306.434C221.761,305.346 222.041,304.457 222.73,303.6C223.399,302.735 224.436,301.892 225.407,300.863C225.904,300.383 226.365,299.787 226.81,299.218C227.206,298.594 227.659,298.001 227.946,297.315L228.425,296.311L228.767,295.268C228.872,294.919 229.005,294.572 229.084,294.22L229.28,293.161L229.47,292.1L229.544,291.046L229.669,289.036L229.778,287.055C229.817,286.401 229.81,285.709 229.929,285.122C230.126,283.903 230.225,282.673 230.591,281.466C230.765,280.869 230.848,280.233 231.093,279.666L231.703,278.014L232.303,277.146L233.053,276.29C233.339,276.049 233.611,275.788 233.902,275.551C234.221,275.352 234.521,275.124 234.85,274.937C235.198,274.78 235.53,274.594 235.887,274.449L236.998,274.082L238.17,273.838C238.567,273.774 238.979,273.749 239.383,273.701L242.055,273.408L243.372,273.253C243.816,273.188 244.283,273.06 244.736,272.965C245.641,272.738 246.577,272.601 247.446,272.293L250.047,271.366L250.385,271.196C263.735,268.374 266.372,256.718 266.372,256.718C268.301,248.652 259.747,235.026 244.593,233.96Z" style="fill:rgb(126,62,58);fill-rule:nonzero;"/>
        </g>
        <g transform="matrix(4.16667,0,0,4.16667,0,0)">
            <path d="M212.485,256.993C212.49,256.989 212.495,256.985 212.499,256.982C212.495,256.985 212.49,256.989 212.485,256.993Z" style="fill:rgb(186,184,189);fill-rule:nonzero;"/>
        </g>
        <g transform="matrix(4.16667,0,0,4.16667,0,0)">
            <path d="M223.844,323.566C224.03,323.057 224.158,322.529 224.284,321.999C224.489,321.317 224.485,320.609 224.591,319.909C224.608,319.657 224.614,319.405 224.614,319.153C224.614,319.405 224.608,319.657 224.591,319.909C224.485,320.609 224.489,321.317 224.284,321.999C224.158,322.529 224.03,323.057 223.844,323.566ZM220.6,317.326C220.709,316.609 220.767,315.855 220.767,315.063C220.767,315.855 220.709,316.609 220.6,317.326ZM229.131,293.966L229.28,293.161L229.47,292.1L229.544,291.046L229.666,289.085L229.544,291.046L229.47,292.1L229.28,293.161L229.131,293.966Z" style="fill:rgb(211,132,126);fill-rule:nonzero;"/>
        </g>
        <g transform="matrix(4.16667,0,0,4.16667,0,0)">
            <path d="M212.733,332.33C213.991,331.892 215.198,331.369 216.311,330.686C217.419,330.005 218.47,329.232 219.341,328.293C220.256,327.401 220.977,326.342 221.548,325.235C221.806,324.664 222.079,324.106 222.231,323.5C222.449,322.919 222.547,322.305 222.647,321.695C222.788,321.094 222.727,320.459 222.782,319.848C222.779,319.23 222.689,318.608 222.652,317.993L222.294,316.158L221.747,314.356C221.553,313.76 221.27,313.186 221.038,312.601L220.239,310.69C220.601,312.26 220.767,313.716 220.767,315.063C220.767,315.855 220.709,316.609 220.6,317.326C219.556,324.182 213.784,327.647 208.372,328.385C207.964,328.44 207.562,328.467 207.163,328.467C201.076,328.467 196.19,322.213 196.185,317.062C196.185,316.486 196.245,315.923 196.372,315.385C196.372,315.385 198.124,320.466 201.628,320.466C202.957,320.466 204.539,319.734 206.372,317.718C206.746,317.307 206.911,316.859 206.913,316.373C206.923,312.717 197.635,306.919 197.636,298.68C197.636,297.726 197.76,296.739 198.039,295.718C200.67,286.072 208.171,287.192 208.179,277.272C208.18,275.881 208.033,274.271 207.705,272.385C207.696,272.329 207.668,271.822 207.668,271.021C207.667,268.147 208.023,261.499 210.857,258.468C211.106,258.196 211.365,257.937 211.634,257.691L211.867,257.493C212.069,257.319 212.274,257.151 212.485,256.993C212.49,256.989 212.495,256.985 212.499,256.982C212.787,256.758 213.109,256.546 213.427,256.332C213.616,265.143 216.107,273.673 222.129,281.294C224.386,284.149 226.919,286.785 229.666,289.085L229.544,291.046L229.47,292.1L229.28,293.161L229.131,293.966L229.084,294.22C229.005,294.572 228.872,294.919 228.767,295.268L228.425,296.311L228.238,296.703L227.946,297.315C227.659,298.001 227.206,298.594 226.81,299.218C226.365,299.787 225.904,300.383 225.407,300.863C224.436,301.892 223.399,302.735 222.73,303.6C222.041,304.457 221.761,305.346 221.758,306.434C221.806,306.989 221.823,307.546 221.992,308.109L222.179,308.958C222.27,309.258 222.397,309.577 222.503,309.886L223.163,311.73C223.386,312.386 223.653,313.021 223.836,313.692C224.003,314.368 224.184,315.039 224.333,315.718C224.431,316.412 224.528,317.106 224.598,317.8L224.598,317.866C224.598,318.296 224.614,318.725 224.614,319.153C224.614,319.405 224.608,319.657 224.591,319.909C224.485,320.609 224.489,321.317 224.284,321.999C224.158,322.529 224.03,323.057 223.844,323.566C223.789,323.718 223.728,323.867 223.661,324.015C223.433,324.683 223.063,325.285 222.717,325.891C221.966,327.067 221.067,328.142 220,329.006C218.964,329.906 217.769,330.583 216.555,331.154C215.33,331.72 214.023,332.064 212.733,332.33ZM219.229,306.982C219.213,306.827 219.197,306.671 219.181,306.516C219.162,306.421 219.155,306.321 219.155,306.22C219.155,305.928 219.214,305.617 219.226,305.322L219.288,304.716L219.471,304.119C219.599,303.722 219.717,303.314 219.939,302.978C220.144,302.636 220.327,302.242 220.573,301.968C221.504,300.717 222.529,299.863 223.335,298.934C224.158,298.012 224.866,297.091 225.348,296.028L225.72,295.239L225.838,294.855C222.956,298.996 218.844,299.265 218.845,304.084C218.845,304.904 218.964,305.856 219.229,306.982Z" style="fill:rgb(101,53,55);fill-rule:nonzero;"/>
        </g>
    </g>
</svg>
