<?xml version="1.0" encoding="UTF-8" standalone="no"?>
<!DOCTYPE svg PUBLIC "-//W3C//DTD SVG 1.1//EN" "http://www.w3.org/Graphics/SVG/1.1/DTD/svg11.dtd">
<svg width="100%" height="100%" viewBox="0 0 858 978" version="1.1" xmlns="http://www.w3.org/2000/svg" xmlns:xlink="http://www.w3.org/1999/xlink" xml:space="preserve" xmlns:serif="http://www.serif.com/" style="fill-rule:evenodd;clip-rule:evenodd;stroke-linejoin:round;stroke-miterlimit:2;">
    <g transform="matrix(1.33333,0,0,1.33333,0.00360661,-56.6445)">
        <g transform="matrix(4.16667,0,0,4.16667,0,0)">
            <g transform="matrix(1.03275,0,0,1.06155,-0.954794,-0.627555)">
                <path d="M63.038,109.718C63.038,109.718 47.705,119.385 56.038,134.052C64.372,148.718 122.039,144.718 92.372,109.718C67.865,80.807 63.038,109.718 63.038,109.718Z" style="fill:rgb(126,62,58);fill-rule:nonzero;"/>
            </g>
        </g>
        <g transform="matrix(4.16667,0,0,4.16667,0,0)">
            <g transform="matrix(1.03275,0,0,1.06155,-0.954794,-0.627555)">
                <path d="M119.158,72.385C119.158,72.385 112.491,80.385 113.825,88.385C115.743,99.898 98.157,115.051 80.157,110.051C62.157,105.051 81.491,71.385 81.491,71.385L119.158,72.385Z" style="fill:rgb(126,62,58);fill-rule:nonzero;"/>
            </g>
        </g>
        <g transform="matrix(4.16667,0,0,4.16667,0,0)">
            <g transform="matrix(1.03275,0,0,1.06155,-0.954794,-0.627555)">
                <path d="M35.038,72.385C35.038,72.385 41.705,80.385 40.372,88.385C38.453,99.898 56.038,115.051 74.038,110.051C92.038,105.051 72.705,71.385 72.705,71.385L35.038,72.385Z" style="fill:rgb(126,62,58);fill-rule:nonzero;"/>
            </g>
        </g>
        <g transform="matrix(4.16667,0,0,4.16667,0,0)">
            <g transform="matrix(1.03275,0,0,1.06155,-0.954794,-0.627555)">
                <path d="M80.786,97.566C89.075,97.677 97.337,96.204 104.786,92.387C108.727,90.367 111.43,87.596 113.766,84.477C114.519,77.973 119.158,72.385 119.158,72.385L81.491,71.385C81.491,71.385 73.294,85.668 72.55,97.01C75.308,97.332 78.062,97.529 80.786,97.566Z" style="fill:rgb(164,85,83);fill-rule:nonzero;"/>
            </g>
        </g>
        <g transform="matrix(4.16667,0,0,4.16667,0,0)">
            <g transform="matrix(1.03275,0,0,1.06155,-0.954794,-0.627555)">
                <path d="M40.521,86.989C52.807,93.515 67.15,97.383 80.786,97.566C81.082,97.57 81.378,97.556 81.675,97.556C81.167,86.132 72.705,71.385 72.705,71.385L35.038,72.385C35.038,72.385 40.945,79.481 40.521,86.989Z" style="fill:rgb(164,85,83);fill-rule:nonzero;"/>
            </g>
        </g>
        <g transform="matrix(4.16667,0,0,4.16667,0,0)">
            <path d="M97.243,126.397C88.761,121.771 91.074,99.407 91.074,99.407L78.371,100.225L78.371,99.41L77.012,99.817L75.652,99.41L75.652,100.225L62.949,99.407C62.949,99.407 65.262,121.771 56.78,126.397C48.298,131.024 -3.823,133.337 1.574,185L152.45,185C157.847,133.337 105.725,131.024 97.243,126.397Z" style="fill:rgb(247,161,153);fill-rule:nonzero;"/>
        </g>
        <g transform="matrix(4.16667,0,0,4.16667,0,0)">
            <g transform="matrix(1.03275,0,0,1.06155,-0.954794,-0.627555)">
                <path d="M61.168,120.628C71.315,119.116 81.455,117.555 91.588,115.947C90.162,108.236 91.074,99.407 91.074,99.407L78.371,100.225L78.371,99.41L77.011,99.817L75.652,99.41L75.652,100.225L62.949,99.407C62.949,99.407 64.288,112.401 61.168,120.628Z" style="fill:rgb(223,135,126);fill-rule:nonzero;"/>
            </g>
        </g>
        <g transform="matrix(4.16667,0,0,4.16667,0,0)">
            <path d="M114.494,130.376C107.07,137.104 96.112,141.766 83.603,142.97L76.866,167.226L73.301,143.162C59.747,142.378 47.809,137.552 39.889,130.376C22.275,136.02 -3.454,148.256 0.384,185L153.999,185C157.838,148.256 132.108,136.02 114.494,130.376Z" style="fill:rgb(67,133,132);fill-rule:nonzero;"/>
        </g>
        <g transform="matrix(4.16667,0,0,4.16667,0,0)">
            <g transform="matrix(1.03275,0,0,1.06155,-0.954794,-0.627555)">
                <path d="M74.215,149.332L73.301,143.162C59.747,142.378 47.809,137.552 39.889,130.376C36.896,131.335 33.727,132.492 30.546,133.919C36.793,142.409 53.795,148.658 74.215,149.332Z" style="fill:rgb(88,170,166);fill-rule:nonzero;"/>
            </g>
        </g>
        <g transform="matrix(4.16667,0,0,4.16667,0,0)">
            <g transform="matrix(1.03275,0,0,1.06155,-0.954794,-0.627555)">
                <path d="M124.874,134.388C121.347,132.737 117.812,131.439 114.494,130.376C107.07,137.104 96.112,141.766 83.603,142.97L81.839,149.322C101.756,148.613 118.386,142.6 124.874,134.388Z" style="fill:rgb(88,170,166);fill-rule:nonzero;"/>
            </g>
        </g>
        <g transform="matrix(4.16667,0,0,4.16667,0,0)">
            <g transform="matrix(1.03275,0,0,1.06155,-0.954794,-0.627555)">
                <path d="M75.338,173.084C75.338,174.631 76.592,175.885 78.139,175.885C79.686,175.885 80.94,174.631 80.94,173.084C80.94,171.537 79.686,170.283 78.139,170.283C76.592,170.283 75.338,171.537 75.338,173.084Z" style="fill:rgb(88,170,166);fill-rule:nonzero;"/>
            </g>
        </g>
        <g transform="matrix(4.16667,0,0,4.16667,0,0)">
            <g transform="matrix(1.03275,0,0,1.06155,-0.954794,-0.627555)">
                <path d="M52.175,66.671C49.676,58.917 43.758,60.712 43.204,60.9C42.623,60.967 36.506,61.876 37.562,69.953C38.625,78.079 43.34,82.482 47.761,81.189C52.31,80.467 54.689,74.47 52.175,66.671Z" style="fill:rgb(223,135,126);fill-rule:nonzero;"/>
            </g>
        </g>
        <g transform="matrix(4.16667,0,0,4.16667,0,0)">
            <g transform="matrix(1.03275,0,0,1.06155,-0.954794,-0.627555)">
                <path d="M102.077,66.671C104.576,58.917 110.494,60.712 111.048,60.9C111.629,60.967 117.746,61.876 116.689,69.953C115.626,78.079 110.912,82.482 106.491,81.189C101.941,80.467 99.563,74.47 102.077,66.671Z" style="fill:rgb(223,135,126);fill-rule:nonzero;"/>
            </g>
        </g>
        <g transform="matrix(4.16667,0,0,4.16667,0,0)">
            <g transform="matrix(1.03275,0,0,1.06155,-0.954794,-0.627555)">
                <path d="M46.112,54.925C49.209,20.935 75.049,22.839 77.487,23.095C79.924,22.839 105.765,20.935 108.862,54.925C111.977,89.118 96.747,111.449 77.487,110.221C58.226,111.449 42.996,89.118 46.112,54.925Z" style="fill:rgb(247,161,153);fill-rule:nonzero;"/>
            </g>
        </g>
        <g transform="matrix(4.16667,0,0,4.16667,0,0)">
            <g transform="matrix(1.03275,0,0,1.06155,-0.954794,-0.627555)">
                <path d="M45.038,61.385C45.038,61.385 43.372,106.051 69.705,111.051C96.038,116.051 112.372,94.052 110.039,59.052L106.705,58.719C106.705,58.719 104.539,94.052 96.538,94.385C88.538,94.719 100.372,83.385 85.038,82.719C69.705,82.052 62.116,76.941 60.872,89.885C60.038,98.552 49.372,83.719 48.038,60.719C46.705,37.719 45.038,61.385 45.038,61.385Z" style="fill:rgb(164,85,83);fill-rule:nonzero;"/>
            </g>
        </g>
        <g transform="matrix(4.16667,0,0,4.16667,0,0)">
            <g transform="matrix(1.03275,0,0,1.06155,-0.954794,-0.627555)">
                <path d="M49.302,70.983C48.697,67.807 48.25,64.367 48.038,60.719C46.705,37.719 45.038,61.385 45.038,61.385C45.038,61.385 44.858,66.234 45.557,72.913C46.809,72.278 48.055,71.63 49.302,70.983Z" style="fill:rgb(126,62,58);fill-rule:nonzero;"/>
            </g>
        </g>
        <g transform="matrix(4.16667,0,0,4.16667,0,0)">
            <g transform="matrix(1.03275,0,0,1.06155,-0.954794,-0.627555)">
                <path d="M110.069,71.279C110.326,67.414 110.324,63.332 110.039,59.052L106.705,58.719C106.705,58.719 106.407,63.558 105.629,69.668C107.112,70.196 108.593,70.732 110.069,71.279Z" style="fill:rgb(126,62,58);fill-rule:nonzero;"/>
            </g>
        </g>
        <g transform="matrix(4.16667,0,0,4.16667,0,0)">
            <g transform="matrix(1.03275,0,0,1.06155,-0.954794,-0.627555)">
                <path d="M81.942,58.911C82.372,60.471 82.704,62.042 83.003,63.616C83.299,65.191 83.548,66.771 83.772,68.354C83.89,69.144 83.972,69.939 84.074,70.731C84.179,71.524 84.258,72.319 84.333,73.114C84.501,74.703 84.618,76.297 84.712,77.895L84.737,78.325L84.427,78.516C83.409,79.143 82.377,79.749 81.335,80.341C80.283,80.919 79.236,81.503 78.142,82.02C79.018,81.185 79.94,80.419 80.859,79.647C81.787,78.888 82.724,78.143 83.676,77.42L83.391,78.041C83.134,76.462 82.899,74.88 82.715,73.293C82.615,72.5 82.518,71.707 82.447,70.911C82.373,70.116 82.28,69.322 82.222,68.525C82.094,66.932 81.992,65.336 81.937,63.734C81.884,62.132 81.864,60.527 81.942,58.911Z" style="fill:rgb(223,135,126);fill-rule:nonzero;"/>
            </g>
        </g>
        <g transform="matrix(4.16667,0,0,4.16667,0,0)">
            <g transform="matrix(1.03275,0,0,1.06155,-0.954794,-0.627555)">
                <path d="M101.856,56.391C101.856,56.391 101.587,56.242 101.116,55.981C100.887,55.856 100.609,55.704 100.291,55.53C99.978,55.365 99.626,55.178 99.242,54.975C98.845,54.805 98.448,54.577 98.004,54.403C97.789,54.307 97.568,54.208 97.342,54.108C97.114,54.025 96.881,53.94 96.644,53.854C96.184,53.65 95.683,53.575 95.205,53.406C94.709,53.355 94.223,53.166 93.728,53.185L92.991,53.125C92.748,53.154 92.505,53.162 92.263,53.176C91.771,53.155 91.314,53.338 90.839,53.397C90.365,53.472 89.941,53.701 89.495,53.818L89.167,53.92L88.868,54.072C88.664,54.167 88.468,54.259 88.279,54.347C87.904,54.533 87.518,54.668 87.229,54.869C86.931,55.056 86.647,55.203 86.415,55.331C85.948,55.584 85.649,55.716 85.649,55.716C85.649,55.716 85.767,55.432 86.03,54.956C86.164,54.719 86.323,54.424 86.534,54.104C86.721,53.759 87.016,53.445 87.35,53.105C87.696,52.779 88.008,52.33 88.498,52.046C88.976,51.753 89.45,51.357 90.043,51.137C90.337,51.018 90.643,50.912 90.953,50.803C91.259,50.672 91.588,50.616 91.925,50.578C92.26,50.531 92.599,50.479 92.941,50.448C93.281,50.452 93.623,50.476 93.966,50.496C94.66,50.51 95.3,50.739 95.944,50.896C96.252,51.007 96.548,51.141 96.84,51.269C97.137,51.388 97.417,51.527 97.671,51.697C97.931,51.857 98.189,52.007 98.43,52.17C98.657,52.349 98.879,52.525 99.094,52.695C99.532,53.025 99.863,53.43 100.195,53.76C100.817,54.47 101.246,55.122 101.499,55.609C101.762,56.089 101.856,56.391 101.856,56.391Z" style="fill:rgb(45,35,52);fill-rule:nonzero;"/>
            </g>
        </g>
        <g transform="matrix(4.16667,0,0,4.16667,0,0)">
            <g transform="matrix(1.03275,0,0,1.06155,-0.954794,-0.627555)">
                <path d="M69.667,56.391C69.667,56.391 69.398,56.242 68.926,55.981C68.698,55.856 68.42,55.704 68.102,55.53C67.789,55.365 67.437,55.178 67.053,54.975C66.656,54.805 66.259,54.577 65.815,54.403C65.6,54.307 65.379,54.208 65.153,54.108C64.925,54.025 64.692,53.94 64.455,53.854C63.995,53.65 63.494,53.575 63.016,53.406C62.52,53.355 62.034,53.166 61.539,53.185L60.802,53.125C60.559,53.154 60.317,53.162 60.074,53.176C59.582,53.155 59.125,53.338 58.65,53.397C58.176,53.472 57.752,53.701 57.306,53.818L56.978,53.92L56.679,54.072C56.475,54.167 56.279,54.259 56.09,54.347C55.715,54.533 55.33,54.668 55.04,54.869C54.742,55.056 54.458,55.203 54.226,55.331C53.759,55.584 53.46,55.716 53.46,55.716C53.46,55.716 53.578,55.432 53.842,54.956C53.975,54.719 54.135,54.424 54.345,54.104C54.532,53.759 54.827,53.445 55.161,53.105C55.508,52.779 55.819,52.33 56.31,52.046C56.787,51.753 57.261,51.357 57.854,51.137C58.148,51.018 58.454,50.912 58.764,50.803C59.07,50.672 59.399,50.616 59.736,50.578C60.071,50.531 60.41,50.479 60.752,50.448C61.092,50.452 61.434,50.476 61.777,50.496C62.471,50.51 63.112,50.739 63.755,50.896C64.063,51.007 64.359,51.141 64.651,51.269C64.948,51.388 65.228,51.527 65.482,51.697C65.742,51.857 66,52.007 66.242,52.17C66.468,52.349 66.69,52.525 66.905,52.695C67.343,53.025 67.674,53.43 68.005,53.76C68.627,54.47 69.056,55.122 69.309,55.609C69.573,56.089 69.667,56.391 69.667,56.391Z" style="fill:rgb(45,35,52);fill-rule:nonzero;"/>
            </g>
        </g>
        <g transform="matrix(4.16667,0,0,4.16667,0,0)">
            <g transform="matrix(1.03275,0,0,1.06155,-0.954794,-0.627555)">
                <path d="M68.646,68.708C68.646,68.708 68.576,68.432 68.418,67.97C68.261,67.509 68.017,66.858 67.637,66.146C67.251,65.441 66.711,64.672 65.96,64.113C65.59,63.83 65.165,63.605 64.704,63.464C64.476,63.384 64.245,63.31 63.994,63.293C63.749,63.26 63.506,63.209 63.249,63.234C63.011,63.244 62.707,63.213 62.522,63.248C62.263,63.297 61.937,63.31 61.736,63.389C61.33,63.522 60.867,63.676 60.518,63.967C60.144,64.223 59.856,64.574 59.595,64.922C59.362,65.291 59.161,65.668 59.015,66.04C58.724,66.786 58.578,67.466 58.492,67.944C58.406,68.424 58.382,68.708 58.382,68.708C58.382,68.708 58.305,68.434 58.254,67.936C58.208,67.44 58.179,66.713 58.357,65.846C58.443,65.412 58.591,64.945 58.825,64.474C59.078,64.017 59.385,63.522 59.856,63.149C60.299,62.747 60.849,62.452 61.49,62.262C61.807,62.154 62.047,62.15 62.332,62.089C62.696,62.025 62.957,62.057 63.277,62.04C63.581,62.023 63.889,62.087 64.194,62.137C64.502,62.171 64.798,62.268 65.088,62.378C65.388,62.461 65.655,62.616 65.913,62.776C66.185,62.914 66.404,63.119 66.629,63.304C67.504,64.082 67.992,65.051 68.264,65.877C68.543,66.709 68.622,67.429 68.651,67.926C68.676,68.426 68.646,68.708 68.646,68.708Z" style="fill:rgb(45,35,52);fill-rule:nonzero;"/>
            </g>
        </g>
        <g transform="matrix(4.16667,0,0,4.16667,0,0)">
            <g transform="matrix(1.03275,0,0,1.06155,-0.954794,-0.627555)">
                <path d="M97.572,68.242C97.572,68.242 97.502,67.966 97.344,67.503C97.187,67.042 96.943,66.392 96.562,65.68C96.177,64.974 95.637,64.206 94.886,63.646C94.515,63.363 94.09,63.138 93.63,62.998C93.402,62.918 93.171,62.843 92.92,62.827C92.674,62.794 92.432,62.742 92.175,62.768C91.937,62.777 91.633,62.746 91.448,62.781C91.189,62.831 90.863,62.843 90.662,62.923C90.256,63.055 89.793,63.21 89.444,63.5C89.07,63.757 88.782,64.108 88.521,64.456C88.287,64.825 88.087,65.201 87.941,65.574C87.65,66.319 87.504,66.999 87.418,67.478C87.332,67.958 87.308,68.242 87.308,68.242C87.308,68.242 87.231,67.967 87.18,67.469C87.134,66.973 87.104,66.247 87.283,65.379C87.368,64.945 87.517,64.479 87.75,64.007C88.004,63.551 88.311,63.055 88.782,62.683C89.225,62.281 89.775,61.985 90.416,61.795C90.733,61.687 90.973,61.684 91.258,61.622C91.622,61.558 91.883,61.59 92.202,61.574C92.507,61.556 92.815,61.62 93.12,61.671C93.428,61.704 93.724,61.802 94.014,61.911C94.314,61.994 94.581,62.15 94.839,62.309C95.111,62.448 95.33,62.652 95.555,62.837C96.43,63.615 96.918,64.585 97.19,65.41C97.468,66.243 97.547,66.962 97.576,67.46C97.602,67.959 97.572,68.242 97.572,68.242Z" style="fill:rgb(45,35,52);fill-rule:nonzero;"/>
            </g>
        </g>
        <g transform="matrix(4.16667,0,0,4.16667,0,0)">
            <g transform="matrix(1.03275,0,0,1.06155,-0.954794,-0.627555)">
                <path d="M90.661,88.126C84.508,94.106 74.088,93.774 66.195,88.445" style="fill:white;fill-rule:nonzero;"/>
            </g>
        </g>
        <g transform="matrix(4.16667,0,0,4.16667,0,0)">
            <g transform="matrix(1.03275,0,0,1.06155,-0.954794,-0.627555)">
                <path d="M77.948,28.052C77.948,28.052 59.281,24.719 56.281,36.385C53.281,48.052 57.615,63.719 43.948,61.385C43.948,61.385 34.038,63.385 40.372,79.052C40.372,79.052 21.615,61.052 32.615,48.052C41.589,37.447 37.948,14.385 59.948,10.719C81.948,7.052 77.948,23.719 77.948,28.052Z" style="fill:rgb(126,62,58);fill-rule:nonzero;"/>
            </g>
        </g>
        <g transform="matrix(4.16667,0,0,4.16667,0,0)">
            <g transform="matrix(1.03275,0,0,1.06155,-0.954794,-0.627555)">
                <path d="M77.948,28.052C77.948,28.052 59.281,24.719 56.281,36.385C53.281,48.052 57.615,63.719 43.948,61.385C43.948,61.385 34.038,63.385 40.372,79.052C40.372,79.052 21.615,61.052 32.615,48.052C41.589,37.447 37.948,14.385 59.948,10.719C81.948,7.052 77.948,23.719 77.948,28.052Z" style="fill:rgb(164,85,83);fill-rule:nonzero;"/>
            </g>
        </g>
        <g transform="matrix(4.16667,0,0,4.16667,0,0)">
            <g transform="matrix(1.03275,0,0,1.06155,-0.954794,-0.627555)">
                <path d="M76.248,28.052C76.248,28.052 94.914,24.719 97.914,36.385C100.915,48.052 96.581,63.719 110.248,61.385C110.248,61.385 120.158,63.385 113.825,79.052C113.825,79.052 132.581,61.052 121.581,48.052C112.608,37.447 116.248,14.385 94.248,10.719C72.248,7.052 76.248,23.719 76.248,28.052Z" style="fill:rgb(164,85,83);fill-rule:nonzero;"/>
            </g>
        </g>
        <g transform="matrix(4.16667,0,0,4.16667,0,0)">
            <g transform="matrix(1.03275,0,0,1.06155,-0.954794,-0.627555)">
                <path d="M75.942,25.298C77.251,25.268 78.483,25.323 79.744,25.417C80.998,25.513 82.249,25.667 83.495,25.878C85.984,26.299 88.459,26.996 90.808,28.112C93.131,29.229 95.402,30.841 96.868,33.176C97.598,34.33 98.105,35.622 98.376,36.941C98.653,38.262 98.733,39.473 98.814,40.736C98.947,43.235 98.876,45.701 98.77,48.138C98.677,50.573 98.554,52.993 98.718,55.358C98.803,56.536 98.965,57.703 99.302,58.794C99.636,59.883 100.153,60.897 100.947,61.665C101.732,62.438 102.783,62.934 103.912,63.193C105.043,63.459 106.243,63.502 107.437,63.449L107.481,63.448L107.495,63.45C108.259,63.562 108.963,63.766 109.661,64.038C110.351,64.314 111.016,64.668 111.6,65.133C112.18,65.599 112.679,66.182 112.981,66.859C113.296,67.531 113.394,68.278 113.361,68.998C113.337,68.276 113.18,67.555 112.828,66.936C112.488,66.312 111.975,65.804 111.396,65.409C110.813,65.015 110.161,64.731 109.49,64.523C108.821,64.318 108.109,64.181 107.435,64.129L107.492,64.129C106.26,64.26 104.998,64.299 103.734,64.086C102.479,63.88 101.2,63.39 100.182,62.507C99.159,61.631 98.45,60.445 98.019,59.228C97.577,58.006 97.347,56.749 97.195,55.505C96.903,53.011 96.915,50.545 96.889,48.107C96.863,45.671 96.866,43.256 96.655,40.889C96.545,39.725 96.409,38.498 96.144,37.441C95.888,36.382 95.457,35.385 94.853,34.496C93.64,32.715 91.778,31.39 89.713,30.45C87.64,29.501 85.358,28.928 83.046,28.538C81.888,28.345 80.715,28.204 79.538,28.119C78.369,28.033 77.163,27.987 76.034,28.017L75.942,25.298Z" style="fill:rgb(164,85,83);fill-rule:nonzero;"/>
            </g>
        </g>
    </g>
</svg>
