<?xml version="1.0" encoding="UTF-8" standalone="no"?>
<!DOCTYPE svg PUBLIC "-//W3C//DTD SVG 1.1//EN" "http://www.w3.org/Graphics/SVG/1.1/DTD/svg11.dtd">
<svg width="100%" height="100%" viewBox="0 0 847 930" version="1.1" xmlns="http://www.w3.org/2000/svg" xmlns:xlink="http://www.w3.org/1999/xlink" xml:space="preserve" xmlns:serif="http://www.serif.com/" style="fill-rule:evenodd;clip-rule:evenodd;stroke-linejoin:round;stroke-miterlimit:2;">
    <g transform="matrix(1.33333,0,0,1.33333,-1892.61,-1359)">
        <g transform="matrix(4.16667,0,0,4.16667,0,0)">
            <path d="M388.784,304.337C388.784,304.337 380.659,302.531 379.455,309.453C378.251,316.375 383.066,317.88 383.066,317.88C383.066,317.88 375.843,309.754 370.727,315.472C365.61,321.191 374.037,326.006 374.037,326.006C374.037,326.006 364.708,320.89 362.902,327.21C361.096,333.53 368.62,337.443 368.62,337.443C368.62,337.443 360.494,336.841 360.795,340.452C361.096,344.064 368.921,341.054 368.921,341.054C368.921,341.054 357.485,343.161 359.29,352.19C361.096,361.218 370.125,356.102 370.125,356.102C370.125,356.102 363.203,359.714 365.009,371.15C366.814,382.586 418.278,359.413 418.278,359.413L419.181,328.414L388.784,304.337Z" style="fill:rgb(45,35,52);fill-rule:nonzero;"/>
        </g>
        <g transform="matrix(4.16667,0,0,4.16667,0,0)">
            <path d="M448.181,304.337C448.181,304.337 456.307,302.531 457.511,309.453C458.715,316.375 453.899,317.88 453.899,317.88C453.899,317.88 461.122,309.754 466.239,315.472C471.355,321.191 462.928,326.006 462.928,326.006C462.928,326.006 472.258,320.89 474.064,327.21C475.87,333.53 468.345,337.443 468.345,337.443C468.345,337.443 476.471,336.841 476.171,340.452C475.87,344.064 468.044,341.054 468.044,341.054C468.044,341.054 479.481,343.161 477.675,352.19C475.87,361.218 466.841,356.102 466.841,356.102C466.841,356.102 473.763,359.714 471.957,371.15C470.151,382.586 418.687,359.413 418.687,359.413L417.784,328.414L448.181,304.337Z" style="fill:rgb(45,35,52);fill-rule:nonzero;"/>
        </g>
        <g transform="matrix(4.16667,0,0,4.16667,0,0)">
            <path d="M388.784,304.337C388.784,304.337 380.659,302.531 379.455,309.453C378.251,316.375 383.066,317.88 383.066,317.88C383.066,317.88 375.843,309.754 370.727,315.472C365.61,321.191 374.037,326.006 374.037,326.006C374.037,326.006 364.708,320.89 362.902,327.21C361.096,333.53 368.62,337.443 368.62,337.443C368.62,337.443 360.494,336.841 360.795,340.452C361.096,344.064 368.921,341.054 368.921,341.054C368.921,341.054 357.485,343.161 359.29,352.19C361.096,361.218 370.125,356.102 370.125,356.102C370.125,356.102 363.203,359.714 365.009,371.15C366.814,382.586 418.278,359.413 418.278,359.413L419.181,328.414L388.784,304.337Z" style="fill:rgb(30,22,39);fill-rule:nonzero;"/>
        </g>
        <g transform="matrix(4.16667,0,0,4.16667,0,0)">
            <path d="M448.181,304.337C448.181,304.337 456.307,302.531 457.511,309.453C458.715,316.375 453.899,317.88 453.899,317.88C453.899,317.88 461.122,309.754 466.239,315.472C471.355,321.191 462.928,326.006 462.928,326.006C462.928,326.006 472.258,320.89 474.064,327.21C475.87,333.53 468.345,337.443 468.345,337.443C468.345,337.443 476.471,336.841 476.171,340.452C475.87,344.064 468.044,341.054 468.044,341.054C468.044,341.054 479.481,343.161 477.675,352.19C475.87,361.218 466.841,356.102 466.841,356.102C466.841,356.102 473.763,359.714 471.957,371.15C470.151,382.586 418.687,359.413 418.687,359.413L417.784,328.414L448.181,304.337Z" style="fill:rgb(30,22,39);fill-rule:nonzero;"/>
        </g>
        <g transform="matrix(4.16667,0,0,4.16667,0,0)">
            <path d="M437.243,353.397C428.761,348.771 431.074,326.406 431.074,326.406L418.371,327.225L418.371,326.409L417.012,326.817L415.652,326.409L415.652,327.225L402.95,326.406C402.95,326.406 405.263,348.771 396.781,353.397C388.299,358.024 338.178,360.337 343.576,412L490.448,412C495.846,360.337 445.725,358.024 437.243,353.397Z" style="fill:rgb(164,85,83);fill-rule:nonzero;"/>
        </g>
        <g transform="matrix(4.16667,0,0,4.16667,0,0)">
            <path d="M401.169,347.628C411.315,346.116 421.455,344.555 431.588,342.947C430.163,335.236 431.074,326.406 431.074,326.406L418.371,327.225L418.371,326.409L417.012,326.817L415.652,326.409L415.652,327.225L402.949,326.406C402.949,326.406 404.289,339.401 401.169,347.628Z" style="fill:rgb(126,62,58);fill-rule:nonzero;"/>
        </g>
        <g transform="matrix(4.16667,0,0,4.16667,0,0)">
            <path d="M437.688,352.555C434.319,350.747 432.605,346.27 431.767,341.449C427.074,342.497 421.991,343.074 416.679,343.074C411.473,343.074 406.485,342.522 401.869,341.514C401.027,346.31 399.313,350.755 395.959,352.555C387.212,357.248 335.522,359.594 341.088,412L492.559,412C498.126,359.594 446.436,357.248 437.688,352.555Z" style="fill:rgb(242,109,100);fill-rule:nonzero;"/>
            <clipPath id="_clip1">
                <path d="M437.688,352.555C434.319,350.747 432.605,346.27 431.767,341.449C427.074,342.497 421.991,343.074 416.679,343.074C411.473,343.074 406.485,342.522 401.869,341.514C401.027,346.31 399.313,350.755 395.959,352.555C387.212,357.248 335.522,359.594 341.088,412L492.559,412C498.126,359.594 446.436,357.248 437.688,352.555Z" clip-rule="nonzero"/>
            </clipPath>
            <g clip-path="url(#_clip1)">
                <path d="M434.888,350.008L398.76,350.008C399.402,349.113 399.941,348.078 400.393,346.949L433.255,346.949C433.707,348.078 434.246,349.113 434.888,350.008Z" style="fill:rgb(252,215,215);fill-rule:nonzero;"/>
                <path d="M456.178,358.117L377.47,358.117C381.343,356.833 384.982,355.871 388.053,355.059L445.594,355.059C448.665,355.871 452.304,356.833 456.178,358.117Z" style="fill:rgb(252,215,215);fill-rule:nonzero;"/>
                <path d="M473.453,366.227L360.194,366.227C361.879,365.104 363.61,364.088 365.359,363.168L468.288,363.168C470.037,364.088 471.769,365.104 473.453,366.227Z" style="fill:rgb(252,215,215);fill-rule:nonzero;"/>
                <path d="M482.748,374.336L350.899,374.336C351.832,373.256 352.809,372.239 353.824,371.278L479.823,371.278C480.838,372.239 481.815,373.256 482.748,374.336Z" style="fill:rgb(252,215,215);fill-rule:nonzero;"/>
                <path d="M488.187,382.446C487.65,381.385 487.076,380.365 486.468,379.387C487.077,380.367 487.65,381.383 488.187,382.446ZM453.111,382.446L345.461,382.446C345.998,381.383 346.57,380.367 347.179,379.387L464.683,379.387C460.822,380.392 456.965,381.413 453.111,382.446Z" style="fill:rgb(252,215,215);fill-rule:nonzero;"/>
                <path d="M491.266,390.555C490.984,389.504 490.67,388.484 490.326,387.497C490.67,388.485 490.984,389.504 491.266,390.555ZM423.615,390.555L342.382,390.555C342.664,389.504 342.977,388.485 343.321,387.497L434.592,387.497C430.932,388.51 427.272,389.531 423.615,390.555Z" style="fill:rgb(252,215,215);fill-rule:nonzero;"/>
                <path d="M492.71,398.665C492.609,397.62 492.481,396.6 492.327,395.606C492.481,396.6 492.609,397.62 492.71,398.665ZM394.821,398.665L340.937,398.665C341.038,397.62 341.166,396.6 341.321,395.606L405.669,395.606C402.052,396.627 398.438,397.647 394.821,398.665Z" style="fill:rgb(252,215,215);fill-rule:nonzero;"/>
                <path d="M492.934,406.774C492.971,405.734 492.984,404.714 492.974,403.716C492.976,403.942 492.977,404.168 492.977,404.397C492.977,405.176 492.963,405.969 492.934,406.774ZM365.619,406.774L340.713,406.774C340.684,405.969 340.67,405.176 340.67,404.397C340.67,404.168 340.671,403.942 340.673,403.716L376.752,403.716C373.042,404.744 369.334,405.763 365.619,406.774Z" style="fill:rgb(252,215,215);fill-rule:nonzero;"/>
            </g>
        </g>
        <g transform="matrix(4.16667,0,0,4.16667,0,0)">
            <path d="M490.448,412L346.011,412L490.448,412Z" style="fill:rgb(122,66,67);fill-rule:nonzero;"/>
        </g>
        <g transform="matrix(4.16667,0,0,4.16667,0,0)">
            <path d="M492.559,412L346.011,412C352.556,410.298 359.093,408.551 365.619,406.774L492.934,406.774C492.874,408.459 492.75,410.199 492.559,412ZM492.974,403.716L376.752,403.716C382.778,402.047 388.802,400.359 394.821,398.665L492.71,398.665C492.866,400.285 492.956,401.968 492.974,403.716ZM492.327,395.606L405.669,395.606C411.65,393.919 417.631,392.231 423.615,390.555L491.266,390.555C491.697,392.162 492.053,393.844 492.327,395.606ZM490.326,387.497L434.592,387.497C440.759,385.789 446.931,384.102 453.111,382.446L488.187,382.446C488.989,384.032 489.706,385.714 490.326,387.497ZM486.468,379.387L464.683,379.387C470.807,377.793 476.94,376.238 483.087,374.733C484.3,376.174 485.433,377.722 486.468,379.387Z" style="fill:rgb(216,92,83);fill-rule:nonzero;"/>
        </g>
        <g transform="matrix(4.16667,0,0,4.16667,0,0)">
            <path d="M488.187,382.446L453.111,382.446C456.965,381.413 460.822,380.392 464.683,379.387L486.468,379.387C487.076,380.365 487.65,381.385 488.187,382.446Z" style="fill:rgb(189,160,162);fill-rule:nonzero;"/>
        </g>
        <g transform="matrix(4.16667,0,0,4.16667,0,0)">
            <path d="M491.266,390.555L423.615,390.555C427.272,389.531 430.932,388.51 434.592,387.497L490.326,387.497C490.67,388.484 490.984,389.504 491.266,390.555Z" style="fill:rgb(189,160,162);fill-rule:nonzero;"/>
        </g>
        <g transform="matrix(4.16667,0,0,4.16667,0,0)">
            <path d="M492.71,398.665L394.821,398.665C398.438,397.647 402.052,396.627 405.669,395.606L492.327,395.606C492.481,396.6 492.609,397.62 492.71,398.665Z" style="fill:rgb(189,160,162);fill-rule:nonzero;"/>
        </g>
        <g transform="matrix(4.16667,0,0,4.16667,0,0)">
            <path d="M492.934,406.774L365.619,406.774C369.334,405.763 373.042,404.744 376.752,403.716L492.974,403.716C492.984,404.714 492.971,405.734 492.934,406.774Z" style="fill:rgb(189,160,162);fill-rule:nonzero;"/>
        </g>
        <g transform="matrix(4.16667,0,0,4.16667,0,0)">
            <path d="M392.175,293.67C389.676,285.917 383.758,287.712 383.204,287.899C382.623,287.967 376.506,288.875 377.563,296.953C378.626,305.078 383.341,309.482 387.761,308.188C392.311,307.467 394.689,301.47 392.175,293.67Z" style="fill:rgb(126,62,58);fill-rule:nonzero;"/>
        </g>
        <g transform="matrix(4.16667,0,0,4.16667,0,0)">
            <path d="M442.077,293.67C444.576,285.917 450.494,287.712 451.048,287.899C451.629,287.967 457.746,288.875 456.689,296.953C455.626,305.078 450.912,309.482 446.491,308.188C441.941,307.467 439.563,301.47 442.077,293.67Z" style="fill:rgb(126,62,58);fill-rule:nonzero;"/>
        </g>
        <g transform="matrix(4.16667,0,0,4.16667,0,0)">
            <path d="M386.112,281.925C389.209,247.934 415.05,249.838 417.487,250.094C419.924,249.838 445.765,247.934 448.862,281.925C451.977,316.118 436.747,338.449 417.487,337.221C398.227,338.449 382.997,316.118 386.112,281.925Z" style="fill:rgb(164,85,83);fill-rule:nonzero;"/>
        </g>
        <g transform="matrix(4.16667,0,0,4.16667,0,0)">
            <path d="M421.943,297.918C422.369,298.703 422.698,299.508 422.995,300.321C423.289,301.133 423.538,301.956 423.76,302.783C423.878,303.196 423.96,303.616 424.062,304.032C424.167,304.447 424.246,304.868 424.322,305.289C424.489,306.128 424.607,306.978 424.702,307.833L424.747,308.232L424.53,308.431C423.837,309.065 423.125,309.682 422.401,310.287C421.665,310.881 420.934,311.48 420.143,312.021C420.656,311.212 421.228,310.46 421.795,309.703C422.374,308.958 422.964,308.224 423.574,307.508L423.402,308.106C423.145,307.285 422.912,306.459 422.728,305.624C422.628,305.207 422.531,304.79 422.46,304.368C422.386,303.946 422.293,303.529 422.234,303.104C422.105,302.256 422.003,301.403 421.945,300.541C421.89,299.678 421.868,298.808 421.943,297.918Z" style="fill:rgb(126,62,58);fill-rule:nonzero;"/>
        </g>
        <g transform="matrix(4.16667,0,0,4.16667,0,0)">
            <path d="M430.661,318.127C424.509,324.107 414.088,323.776 406.195,318.446" style="fill:white;fill-rule:nonzero;"/>
        </g>
        <g transform="matrix(4.16667,0,0,4.16667,0,0)">
            <path d="M441.856,286.393C441.856,286.393 441.587,286.244 441.116,285.983C440.887,285.858 440.609,285.706 440.291,285.531C439.979,285.366 439.627,285.18 439.242,284.977C438.845,284.806 438.448,284.578 438.004,284.404C437.789,284.308 437.568,284.21 437.342,284.109C437.115,284.026 436.882,283.941 436.645,283.855C436.185,283.651 435.683,283.576 435.205,283.407C434.71,283.356 434.223,283.167 433.728,283.187L432.991,283.127C432.749,283.156 432.506,283.164 432.263,283.177C431.771,283.157 431.314,283.34 430.839,283.398C430.366,283.473 429.941,283.702 429.496,283.82L429.167,283.922L428.868,284.073C428.665,284.168 428.468,284.26 428.279,284.348C427.904,284.534 427.519,284.669 427.229,284.871C426.931,285.058 426.648,285.205 426.415,285.332C425.948,285.585 425.649,285.717 425.649,285.717C425.649,285.717 425.767,285.433 426.031,284.957C426.164,284.721 426.324,284.425 426.535,284.105C426.721,283.761 427.016,283.447 427.351,283.106C427.697,282.78 428.009,282.331 428.499,282.047C428.977,281.754 429.45,281.359 430.044,281.139C430.337,281.02 430.643,280.913 430.954,280.804C431.259,280.673 431.588,280.617 431.925,280.579C432.26,280.533 432.599,280.481 432.941,280.449C433.281,280.453 433.624,280.478 433.966,280.497C434.66,280.511 435.301,280.741 435.944,280.897C436.253,281.008 436.548,281.142 436.841,281.27C437.138,281.39 437.417,281.528 437.672,281.698C437.931,281.859 438.189,282.009 438.431,282.171C438.657,282.351 438.879,282.526 439.095,282.697C439.532,283.026 439.863,283.431 440.195,283.762C440.817,284.471 441.246,285.124 441.499,285.61C441.762,286.09 441.856,286.393 441.856,286.393Z" style="fill:rgb(45,35,52);fill-rule:nonzero;"/>
        </g>
        <g transform="matrix(4.16667,0,0,4.16667,0,0)">
            <path d="M409.667,286.393C409.667,286.393 409.398,286.244 408.927,285.983C408.698,285.858 408.421,285.706 408.102,285.531C407.79,285.366 407.438,285.18 407.053,284.977C406.656,284.806 406.26,284.578 405.815,284.404C405.6,284.308 405.379,284.21 405.154,284.109C404.926,284.026 404.693,283.941 404.456,283.855C403.996,283.651 403.494,283.576 403.017,283.407C402.521,283.356 402.034,283.167 401.539,283.187L400.802,283.127C400.56,283.156 400.317,283.164 400.074,283.177C399.582,283.157 399.125,283.34 398.65,283.398C398.177,283.473 397.752,283.702 397.307,283.82L396.979,283.922L396.679,284.073C396.476,284.168 396.279,284.26 396.09,284.348C395.715,284.534 395.33,284.669 395.04,284.871C394.742,285.058 394.459,285.205 394.227,285.332C393.759,285.585 393.46,285.717 393.46,285.717C393.46,285.717 393.579,285.433 393.842,284.957C393.975,284.721 394.135,284.425 394.346,284.105C394.532,283.761 394.827,283.447 395.162,283.106C395.508,282.78 395.82,282.331 396.31,282.047C396.788,281.754 397.261,281.359 397.855,281.139C398.148,281.02 398.454,280.913 398.765,280.804C399.07,280.673 399.4,280.617 399.736,280.579C400.071,280.533 400.41,280.481 400.752,280.449C401.093,280.453 401.435,280.478 401.777,280.497C402.471,280.511 403.112,280.741 403.755,280.897C404.064,281.008 404.359,281.142 404.652,281.27C404.949,281.39 405.229,281.528 405.483,281.698C405.743,281.859 406,282.009 406.242,282.171C406.469,282.351 406.69,282.526 406.906,282.697C407.344,283.026 407.675,283.431 408.006,283.762C408.628,284.471 409.057,285.124 409.31,285.61C409.573,286.09 409.667,286.393 409.667,286.393Z" style="fill:rgb(45,35,52);fill-rule:nonzero;"/>
        </g>
        <g transform="matrix(4.16667,0,0,4.16667,0,0)">
            <path d="M408.646,298.71C408.646,298.71 408.576,298.434 408.419,297.972C408.262,297.51 408.018,296.86 407.637,296.148C407.251,295.442 406.712,294.674 405.961,294.114C405.59,293.831 405.165,293.606 404.704,293.465C404.477,293.386 404.245,293.311 403.994,293.295C403.749,293.262 403.507,293.21 403.249,293.236C403.011,293.245 402.708,293.214 402.523,293.249C402.263,293.299 401.937,293.311 401.736,293.391C401.33,293.523 400.867,293.678 400.518,293.969C400.145,294.225 399.856,294.576 399.596,294.924C399.362,295.293 399.162,295.669 399.015,296.042C398.725,296.787 398.578,297.467 398.492,297.946C398.407,298.426 398.382,298.71 398.382,298.71C398.382,298.71 398.306,298.435 398.255,297.937C398.209,297.441 398.179,296.715 398.357,295.847C398.443,295.413 398.592,294.947 398.825,294.475C399.079,294.019 399.386,293.523 399.857,293.15C400.299,292.749 400.85,292.453 401.49,292.263C401.808,292.155 402.048,292.152 402.332,292.09C402.696,292.026 402.958,292.058 403.277,292.042C403.582,292.024 403.889,292.088 404.195,292.139C404.503,292.172 404.798,292.27 405.089,292.379C405.389,292.462 405.655,292.617 405.914,292.777C406.185,292.916 406.405,293.12 406.629,293.305C407.505,294.083 407.992,295.053 408.264,295.878C408.543,296.711 408.622,297.43 408.651,297.927C408.676,298.427 408.646,298.71 408.646,298.71Z" style="fill:rgb(45,35,52);fill-rule:nonzero;"/>
        </g>
        <g transform="matrix(4.16667,0,0,4.16667,0,0)">
            <path d="M437.572,298.243C437.572,298.243 437.502,297.967 437.345,297.505C437.188,297.044 436.944,296.393 436.563,295.681C436.177,294.976 435.638,294.207 434.886,293.648C434.516,293.365 434.091,293.14 433.63,292.999C433.402,292.919 433.171,292.844 432.92,292.828C432.675,292.795 432.432,292.744 432.175,292.769C431.937,292.779 431.634,292.748 431.449,292.783C431.189,292.832 430.863,292.845 430.662,292.924C430.256,293.056 429.793,293.211 429.444,293.502C429.07,293.758 428.782,294.109 428.522,294.457C428.288,294.826 428.087,295.202 427.941,295.575C427.651,296.321 427.504,297 427.418,297.479C427.333,297.959 427.308,298.243 427.308,298.243C427.308,298.243 427.232,297.969 427.181,297.471C427.134,296.975 427.105,296.248 427.283,295.381C427.369,294.947 427.517,294.48 427.751,294.009C428.005,293.552 428.312,293.057 428.783,292.684C429.225,292.282 429.776,291.987 430.416,291.797C430.733,291.688 430.973,291.685 431.258,291.624C431.622,291.56 431.884,291.592 432.203,291.575C432.507,291.558 432.815,291.622 433.121,291.672C433.429,291.705 433.724,291.803 434.015,291.913C434.314,291.996 434.581,292.151 434.84,292.311C435.111,292.449 435.33,292.654 435.555,292.839C436.431,293.616 436.918,294.586 437.19,295.412C437.469,296.244 437.548,296.964 437.577,297.461C437.602,297.96 437.572,298.243 437.572,298.243Z" style="fill:rgb(45,35,52);fill-rule:nonzero;"/>
        </g>
        <g transform="matrix(4.16667,0,0,4.16667,0,0)">
            <path d="M418.488,250.094C418.488,250.094 420.084,270.93 388.483,279.658C388.483,279.658 389.386,290.192 386.678,300.124C386.678,300.124 376.445,285.376 381.26,267.921C386.076,250.465 410.473,236.481 418.488,250.094Z" style="fill:rgb(45,35,52);fill-rule:nonzero;"/>
        </g>
        <g transform="matrix(4.16667,0,0,4.16667,0,0)">
            <path d="M415.998,250.094C415.998,250.094 415.402,270.93 447.003,279.658C447.003,279.658 445.498,292.9 448.207,302.832C448.207,302.832 459.041,285.376 454.226,267.921C449.411,250.465 424.013,236.481 415.998,250.094Z" style="fill:rgb(45,35,52);fill-rule:nonzero;"/>
        </g>
        <g transform="matrix(4.16667,0,0,4.16667,0,0)">
            <path d="M393.258,278.152C388.647,274.938 384.543,270.799 381.793,266.231C381.596,266.79 381.417,267.353 381.26,267.921C376.445,285.376 386.678,300.124 386.678,300.124C389.386,290.192 388.483,279.658 388.483,279.658C390.174,279.191 391.751,278.683 393.258,278.152Z" style="fill:rgb(30,22,39);fill-rule:nonzero;"/>
        </g>
    </g>
</svg>
