<?xml version="1.0" encoding="UTF-8" standalone="no"?>
<!DOCTYPE svg PUBLIC "-//W3C//DTD SVG 1.1//EN" "http://www.w3.org/Graphics/SVG/1.1/DTD/svg11.dtd">
<svg width="100%" height="100%" viewBox="0 0 838 993" version="1.1" xmlns="http://www.w3.org/2000/svg" xmlns:xlink="http://www.w3.org/1999/xlink" xml:space="preserve" xmlns:serif="http://www.serif.com/" style="fill-rule:evenodd;clip-rule:evenodd;stroke-linejoin:round;stroke-miterlimit:2;">
    <g transform="matrix(1.33333,0,0,1.33333,-2839.87,-1321.05)">
        <g transform="matrix(4.16667,0,0,4.16667,0,0)">
            <path d="M607.243,353.397C598.761,348.771 601.074,326.406 601.074,326.406L588.371,327.225L588.371,326.409L587.012,326.817L585.653,326.409L585.653,327.225L572.95,326.406C572.95,326.406 575.263,348.771 566.781,353.397C558.299,358.024 508.178,360.337 513.576,412L660.448,412C665.846,360.337 615.725,358.024 607.243,353.397Z" style="fill:rgb(247,161,153);fill-rule:nonzero;"/>
        </g>
        <g transform="matrix(4.16667,0,0,4.16667,0,0)">
            <path d="M571.169,347.628C581.315,346.116 591.455,344.555 601.588,342.947C600.163,335.236 601.074,326.406 601.074,326.406L588.371,327.225L588.371,326.409L587.012,326.817L585.653,326.409L585.653,327.225L572.95,326.406C572.95,326.406 574.289,339.401 571.169,347.628Z" style="fill:rgb(223,135,126);fill-rule:nonzero;"/>
        </g>
        <g transform="matrix(4.16667,0,0,4.16667,0,0)">
            <path d="M612.651,354.349C606.714,360.451 597.433,364.383 586.994,364.383C576.555,364.383 567.273,360.451 561.336,354.349C545.838,358.664 507.734,366.272 512.511,412L661.476,412C666.254,366.272 628.149,358.664 612.651,354.349Z" style="fill:rgb(85,149,187);fill-rule:nonzero;"/>
        </g>
        <g transform="matrix(4.16667,0,0,4.16667,0,0)">
            <clipPath id="_clip1">
                <path d="M612.652,354.349C606.714,360.451 597.433,364.383 586.994,364.383C576.555,364.383 567.273,360.451 561.336,354.349C545.838,358.664 507.734,366.272 512.511,412L661.476,412C666.254,366.272 628.149,358.664 612.652,354.349Z"/>
            </clipPath>
            <g clip-path="url(#_clip1)">
                <path d="M631.83,358.364C633.144,360.335 634.458,362.307 635.773,364.278C635.877,364.105 635.981,363.932 636.085,363.759C633.588,364.285 631.091,364.811 628.594,365.336C628.763,365.464 628.931,365.591 629.1,365.718C630.283,363.221 631.466,360.724 632.649,358.227C632.87,357.761 631.985,357.73 631.807,358.105C630.625,360.602 629.442,363.099 628.259,365.596C628.105,365.922 628.543,366.025 628.766,365.978C631.263,365.452 633.76,364.927 636.257,364.401C636.474,364.356 636.72,364.107 636.57,363.882C635.255,361.91 633.941,359.939 632.627,357.968C632.391,357.615 631.564,357.966 631.83,358.364Z" style="fill:rgb(45,35,52);fill-rule:nonzero;"/>
                <path d="M617.193,358.346C618.507,360.317 619.821,362.289 621.135,364.26C621.247,364.116 621.359,363.972 621.471,363.828C618.974,364.354 616.477,364.879 613.98,365.405C614.14,365.498 614.299,365.591 614.459,365.683C615.642,363.186 616.824,360.689 618.007,358.192C618.203,357.778 617.324,357.845 617.185,358.14C616.002,360.637 614.819,363.134 613.636,365.631C613.491,365.937 613.93,365.948 614.115,365.909C616.612,365.384 619.109,364.858 621.606,364.332C621.779,364.296 622.081,364.109 621.942,363.9C620.628,361.929 619.314,359.957 617.999,357.986C617.813,357.707 616.97,358.012 617.193,358.346Z" style="fill:rgb(45,35,52);fill-rule:nonzero;"/>
                <path d="M602.556,358.33C603.87,360.301 605.185,362.273 606.499,364.244C606.617,364.125 606.736,364.007 606.855,363.888C604.358,364.413 601.861,364.939 599.364,365.465C599.526,365.508 599.688,365.552 599.85,365.595C601.033,363.098 602.216,360.601 603.399,358.104C603.506,357.877 602.652,357.967 602.529,358.228C601.346,360.725 600.163,363.222 598.98,365.719C598.877,365.936 599.405,365.863 599.467,365.85C601.964,365.324 604.461,364.798 606.958,364.273C607.091,364.245 607.437,364.101 607.314,363.916C606,361.945 604.685,359.973 603.371,358.002C603.226,357.784 602.377,358.062 602.556,358.33Z" style="fill:rgb(45,35,52);fill-rule:nonzero;"/>
                <path d="M587.894,358.283C589.209,360.254 590.523,362.226 591.837,364.197C592.007,364.092 592.176,363.988 592.346,363.883C589.849,364.409 587.352,364.934 584.854,365.46C584.975,365.503 585.096,365.547 585.216,365.59C586.399,363.093 587.582,360.596 588.765,358.099C588.858,357.902 588.014,357.987 587.898,358.233C586.715,360.73 585.532,363.227 584.349,365.724C584.272,365.888 584.652,365.867 584.711,365.854C587.208,365.329 589.705,364.803 592.203,364.277C592.263,364.265 592.816,364.12 592.711,363.963C591.397,361.992 590.083,360.02 588.768,358.049C588.603,357.801 587.791,358.128 587.894,358.283Z" style="fill:rgb(45,35,52);fill-rule:nonzero;"/>
                <path d="M573.297,358.351C574.611,360.322 575.925,362.293 577.24,364.265C577.35,364.113 577.46,363.962 577.57,363.81C575.072,364.336 572.575,364.862 570.078,365.388C570.24,365.489 570.402,365.591 570.564,365.692C571.747,363.195 572.93,360.698 574.113,358.201C574.316,357.772 573.434,357.816 573.285,358.131C572.102,360.628 570.919,363.125 569.737,365.622C569.589,365.935 570.029,365.968 570.223,365.927C572.72,365.401 575.217,364.875 577.714,364.35C577.899,364.311 578.187,364.11 578.044,363.895C576.73,361.924 575.415,359.953 574.101,357.981C573.903,357.684 573.063,357.999 573.297,358.351Z" style="fill:rgb(45,35,52);fill-rule:nonzero;"/>
                <path d="M558.63,358.283C559.944,360.254 561.258,362.226 562.573,364.197C562.743,364.097 562.914,363.996 563.084,363.895C560.587,364.421 558.09,364.946 555.593,365.472C555.712,365.51 555.832,365.549 555.951,365.587C557.134,363.09 558.317,360.593 559.499,358.095C559.583,357.919 558.747,357.998 558.634,358.236C557.451,360.733 556.268,363.231 555.086,365.728C555.011,365.885 555.389,365.854 555.443,365.842C557.94,365.317 560.438,364.791 562.935,364.265C562.991,364.253 563.544,364.11 563.446,363.963C562.132,361.992 560.818,360.02 559.504,358.049C559.346,357.812 558.538,358.145 558.63,358.283Z" style="fill:rgb(45,35,52);fill-rule:nonzero;"/>
                <path d="M544.03,358.343C545.345,360.315 546.659,362.286 547.973,364.258C548.086,364.117 548.199,363.977 548.312,363.837C545.815,364.363 543.318,364.888 540.821,365.414C540.979,365.502 541.138,365.591 541.296,365.679C542.479,363.182 543.662,360.685 544.845,358.188C545.037,357.782 544.159,357.86 544.024,358.144C542.841,360.641 541.659,363.138 540.476,365.636C540.332,365.938 540.772,365.938 540.951,365.9C543.448,365.375 545.945,364.849 548.442,364.323C548.61,364.288 548.919,364.108 548.781,363.903C547.467,361.931 546.153,359.96 544.838,357.988C544.659,357.719 543.814,358.018 544.03,358.343Z" style="fill:rgb(45,35,52);fill-rule:nonzero;"/>
                <path d="M529.396,358.334C530.71,360.305 532.024,362.277 533.338,364.248C533.455,364.123 533.572,363.998 533.689,363.873C531.192,364.399 528.695,364.924 526.198,365.45C526.362,365.5 526.526,365.55 526.69,365.599C527.872,363.102 529.055,360.605 530.238,358.108C530.355,357.86 529.495,357.952 529.366,358.224C528.183,360.721 527,363.218 525.818,365.715C525.71,365.942 526.241,365.879 526.309,365.865C528.806,365.339 531.303,364.813 533.8,364.287C533.944,364.257 534.279,364.104 534.151,363.912C532.837,361.941 531.523,359.969 530.209,357.998C530.054,357.766 529.205,358.048 529.396,358.334Z" style="fill:rgb(45,35,52);fill-rule:nonzero;"/>
                <path d="M514.768,358.351C516.081,360.323 517.396,362.294 518.711,364.266C518.82,364.113 518.93,363.96 519.039,363.807C516.542,364.332 514.044,364.858 511.548,365.384C511.711,365.487 511.873,365.591 512.036,365.694C513.218,363.197 514.401,360.7 515.584,358.203C515.789,357.771 514.906,357.81 514.755,358.129C513.573,360.626 512.39,363.123 511.207,365.62C511.059,365.934 511.498,365.972 511.694,365.931C514.192,365.405 516.689,364.879 519.185,364.353C519.373,364.314 519.658,364.11 519.515,363.895C518.2,361.923 516.886,359.952 515.572,357.98C515.37,357.679 514.531,357.996 514.768,358.351Z" style="fill:rgb(45,35,52);fill-rule:nonzero;"/>
                <path d="M646.424,358.283C647.738,360.254 649.052,362.226 650.366,364.197C650.54,364.106 650.713,364.015 650.886,363.924C648.389,364.45 645.892,364.976 643.395,365.502C643.511,365.527 643.627,365.553 643.742,365.579C644.925,363.082 646.108,360.585 647.291,358.087C647.351,357.962 646.534,358.025 646.43,358.244C645.247,360.741 644.064,363.239 642.881,365.736C642.815,365.875 643.187,365.822 643.229,365.813C645.726,365.287 648.223,364.762 650.721,364.236C650.766,364.226 651.32,364.083 651.24,363.963C649.926,361.992 648.612,360.02 647.297,358.049C647.157,357.838 646.359,358.186 646.424,358.283Z" style="fill:rgb(45,35,52);fill-rule:nonzero;"/>
                <path d="M640.389,370.984C641.703,372.956 643.018,374.927 644.332,376.899C644.436,376.726 644.54,376.552 644.644,376.379C642.147,376.905 639.65,377.431 637.153,377.957C637.322,378.084 637.491,378.211 637.66,378.338C638.842,375.841 640.025,373.344 641.208,370.847C641.429,370.381 640.545,370.35 640.367,370.725C639.184,373.222 638.001,375.719 636.818,378.217C636.664,378.542 637.102,378.645 637.325,378.598C639.822,378.073 642.319,377.547 644.816,377.021C645.033,376.976 645.279,376.728 645.129,376.502C643.815,374.531 642.5,372.559 641.186,370.588C640.951,370.235 640.124,370.586 640.389,370.984Z" style="fill:rgb(45,35,52);fill-rule:nonzero;"/>
                <path d="M625.752,370.966C627.066,372.938 628.38,374.909 629.695,376.88C629.807,376.736 629.919,376.592 630.031,376.448C627.533,376.974 625.036,377.5 622.539,378.025C622.699,378.118 622.858,378.211 623.018,378.304C624.201,375.806 625.384,373.309 626.567,370.812C626.763,370.398 625.883,370.466 625.744,370.76C624.561,373.257 623.378,375.754 622.195,378.251C622.05,378.558 622.49,378.568 622.674,378.529C625.171,378.004 627.669,377.478 630.166,376.952C630.339,376.916 630.641,376.729 630.501,376.52C629.187,374.549 627.873,372.578 626.559,370.606C626.373,370.328 625.529,370.632 625.752,370.966Z" style="fill:rgb(45,35,52);fill-rule:nonzero;"/>
                <path d="M611.115,370.95C612.43,372.922 613.744,374.893 615.058,376.865C615.177,376.746 615.295,376.627 615.414,376.508C612.917,377.034 610.42,377.559 607.923,378.085C608.085,378.129 608.247,378.172 608.409,378.216C609.592,375.719 610.775,373.222 611.958,370.724C612.065,370.498 611.211,370.587 611.088,370.848C609.905,373.345 608.722,375.842 607.539,378.339C607.437,378.556 607.964,378.483 608.026,378.47C610.523,377.944 613.02,377.419 615.517,376.893C615.651,376.865 615.997,376.721 615.873,376.536C614.559,374.565 613.245,372.594 611.93,370.622C611.786,370.404 610.937,370.682 611.115,370.95Z" style="fill:rgb(45,35,52);fill-rule:nonzero;"/>
                <path d="M596.454,370.903C597.768,372.875 599.082,374.846 600.396,376.818C600.566,376.713 600.736,376.608 600.905,376.503C598.408,377.029 595.911,377.555 593.414,378.08C593.534,378.124 593.655,378.167 593.776,378.21C594.958,375.713 596.141,373.216 597.324,370.719C597.417,370.522 596.574,370.607 596.457,370.853C595.274,373.35 594.091,375.848 592.909,378.345C592.831,378.508 593.211,378.487 593.27,378.475C595.768,377.949 598.265,377.423 600.762,376.898C600.823,376.885 601.375,376.741 601.27,376.583C599.956,374.612 598.642,372.641 597.328,370.669C597.163,370.422 596.351,370.749 596.454,370.903Z" style="fill:rgb(45,35,52);fill-rule:nonzero;"/>
                <path d="M581.856,370.971C583.17,372.942 584.485,374.914 585.799,376.885C585.909,376.734 586.019,376.582 586.129,376.431C583.632,376.956 581.135,377.482 578.638,378.008C578.799,378.109 578.961,378.211 579.123,378.313C580.306,375.815 581.489,373.318 582.672,370.821C582.875,370.392 581.994,370.436 581.845,370.751C580.662,373.248 579.479,375.745 578.296,378.242C578.148,378.555 578.588,378.588 578.782,378.547C581.279,378.021 583.776,377.496 586.273,376.97C586.458,376.931 586.746,376.73 586.603,376.516C585.289,374.544 583.975,372.573 582.661,370.602C582.462,370.304 581.622,370.619 581.856,370.971Z" style="fill:rgb(45,35,52);fill-rule:nonzero;"/>
                <path d="M567.189,370.903C568.503,372.875 569.818,374.846 571.132,376.818C571.302,376.717 571.473,376.616 571.644,376.515C569.147,377.041 566.649,377.567 564.152,378.092C564.272,378.131 564.391,378.169 564.51,378.207C565.693,375.71 566.876,373.213 568.059,370.716C568.143,370.539 567.306,370.619 567.193,370.857C566.01,373.354 564.828,375.851 563.645,378.348C563.57,378.505 563.949,378.474 564.003,378.463C566.5,377.937 568.997,377.411 571.494,376.886C571.55,376.874 572.104,376.73 572.006,376.583C570.691,374.612 569.377,372.641 568.063,370.669C567.905,370.432 567.097,370.765 567.189,370.903Z" style="fill:rgb(45,35,52);fill-rule:nonzero;"/>
                <path d="M552.59,370.964C553.904,372.935 555.218,374.907 556.533,376.878C556.646,376.738 556.758,376.598 556.871,376.457C554.374,376.983 551.877,377.509 549.38,378.034C549.539,378.123 549.697,378.211 549.855,378.299C551.038,375.802 552.221,373.305 553.404,370.808C553.596,370.402 552.718,370.48 552.584,370.765C551.401,373.262 550.218,375.759 549.035,378.256C548.892,378.559 549.331,378.558 549.51,378.521C552.008,377.995 554.505,377.469 557.002,376.943C557.169,376.908 557.478,376.729 557.341,376.523C556.026,374.551 554.712,372.58 553.398,370.609C553.218,370.339 552.373,370.639 552.59,370.964Z" style="fill:rgb(45,35,52);fill-rule:nonzero;"/>
                <path d="M537.955,370.954C539.269,372.926 540.583,374.897 541.898,376.868C542.015,376.743 542.132,376.618 542.249,376.493C539.752,377.019 537.255,377.545 534.757,378.07C534.921,378.12 535.085,378.17 535.249,378.22C536.432,375.723 537.615,373.226 538.797,370.728C538.915,370.481 538.054,370.572 537.925,370.844C536.742,373.341 535.56,375.838 534.377,378.335C534.269,378.562 534.8,378.499 534.868,378.485C537.366,377.959 539.863,377.433 542.36,376.908C542.503,376.878 542.839,376.724 542.711,376.532C541.397,374.561 540.082,372.59 538.768,370.618C538.613,370.386 537.764,370.668 537.955,370.954Z" style="fill:rgb(45,35,52);fill-rule:nonzero;"/>
                <path d="M523.327,370.972C524.642,372.943 525.956,374.915 527.27,376.886C527.38,376.733 527.489,376.58 527.599,376.427C525.102,376.953 522.604,377.478 520.107,378.004C520.27,378.108 520.432,378.211 520.594,378.314C521.778,375.817 522.961,373.32 524.143,370.823C524.348,370.391 523.466,370.43 523.315,370.749C522.132,373.246 520.948,375.744 519.766,378.241C519.617,378.554 520.057,378.592 520.254,378.551C522.75,378.025 525.248,377.499 527.745,376.974C527.932,376.934 528.217,376.73 528.074,376.515C526.76,374.543 525.445,372.572 524.13,370.601C523.93,370.299 523.091,370.616 523.327,370.972Z" style="fill:rgb(45,35,52);fill-rule:nonzero;"/>
                <path d="M654.983,370.903C656.297,372.875 657.611,374.846 658.926,376.818C659.099,376.727 659.272,376.636 659.445,376.545C656.948,377.07 654.451,377.596 651.954,378.122C652.07,378.147 652.186,378.173 652.302,378.199C653.485,375.702 654.667,373.205 655.85,370.708C655.91,370.582 655.093,370.646 654.989,370.865C653.806,373.362 652.624,375.859 651.441,378.356C651.375,378.495 651.746,378.442 651.789,378.433C654.286,377.908 656.783,377.382 659.28,376.856C659.326,376.847 659.879,376.703 659.8,376.583C658.485,374.612 657.171,372.641 655.857,370.669C655.716,370.458 654.919,370.807 654.983,370.903Z" style="fill:rgb(45,35,52);fill-rule:nonzero;"/>
                <path d="M631.83,383.605C633.144,385.576 634.458,387.547 635.773,389.519C635.877,389.346 635.981,389.173 636.085,389C633.588,389.525 631.091,390.051 628.594,390.577C628.763,390.704 628.931,390.831 629.1,390.959C630.283,388.462 631.466,385.964 632.649,383.467C632.87,383.001 631.985,382.97 631.807,383.345C630.625,385.843 629.442,388.34 628.259,390.837C628.105,391.163 628.543,391.266 628.766,391.219C631.263,390.693 633.76,390.167 636.257,389.642C636.474,389.596 636.72,389.348 636.57,389.123C635.255,387.151 633.941,385.18 632.627,383.208C632.391,382.855 631.564,383.206 631.83,383.605Z" style="fill:rgb(45,35,52);fill-rule:nonzero;"/>
                <path d="M617.193,383.586C618.507,385.558 619.821,387.529 621.135,389.501C621.247,389.357 621.359,389.213 621.471,389.069C618.974,389.594 616.477,390.12 613.98,390.646C614.14,390.739 614.299,390.831 614.459,390.924C615.642,388.427 616.824,385.93 618.007,383.433C618.203,383.019 617.324,383.086 617.185,383.38C616.002,385.878 614.819,388.375 613.636,390.872C613.491,391.178 613.93,391.189 614.115,391.15C616.612,390.624 619.109,390.098 621.606,389.573C621.779,389.536 622.081,389.35 621.942,389.141C620.628,387.169 619.314,385.198 617.999,383.227C617.813,382.948 616.97,383.252 617.193,383.586Z" style="fill:rgb(45,35,52);fill-rule:nonzero;"/>
                <path d="M602.556,383.571C603.87,385.542 605.185,387.513 606.499,389.485C606.617,389.366 606.736,389.247 606.855,389.128C604.358,389.654 601.861,390.18 599.364,390.705C599.526,390.749 599.688,390.792 599.85,390.836C601.033,388.339 602.216,385.842 603.399,383.345C603.506,383.118 602.652,383.207 602.529,383.468C601.346,385.965 600.163,388.462 598.98,390.96C598.877,391.176 599.405,391.103 599.467,391.09C601.964,390.565 604.461,390.039 606.958,389.513C607.091,389.485 607.437,389.341 607.314,389.157C606,387.185 604.685,385.214 603.371,383.242C603.226,383.025 602.377,383.302 602.556,383.571Z" style="fill:rgb(45,35,52);fill-rule:nonzero;"/>
                <path d="M587.894,383.524C589.209,385.495 590.523,387.466 591.837,389.438C592.007,389.333 592.176,389.228 592.346,389.124C589.849,389.649 587.352,390.175 584.854,390.701C584.975,390.744 585.096,390.787 585.216,390.831C586.399,388.334 587.582,385.836 588.765,383.339C588.858,383.143 588.014,383.227 587.898,383.473C586.715,385.971 585.532,388.468 584.349,390.965C584.272,391.129 584.652,391.107 584.711,391.095C587.208,390.569 589.705,390.044 592.203,389.518C592.263,389.505 592.816,389.361 592.711,389.204C591.397,387.232 590.083,385.261 588.768,383.289C588.603,383.042 587.791,383.369 587.894,383.524Z" style="fill:rgb(45,35,52);fill-rule:nonzero;"/>
                <path d="M573.297,383.591C574.611,385.562 575.925,387.534 577.24,389.505C577.35,389.354 577.46,389.202 577.57,389.051C575.072,389.577 572.575,390.102 570.078,390.628C570.24,390.73 570.402,390.831 570.564,390.933C571.747,388.436 572.93,385.939 574.113,383.442C574.316,383.012 573.434,383.056 573.285,383.371C572.102,385.869 570.919,388.366 569.737,390.863C569.589,391.175 570.029,391.208 570.223,391.167C572.72,390.642 575.217,390.116 577.714,389.59C577.899,389.551 578.187,389.35 578.044,389.136C576.73,387.165 575.415,385.193 574.101,383.222C573.903,382.924 573.063,383.239 573.297,383.591Z" style="fill:rgb(45,35,52);fill-rule:nonzero;"/>
                <path d="M558.63,383.524C559.944,385.495 561.258,387.466 562.573,389.438C562.743,389.337 562.914,389.236 563.084,389.136C560.587,389.661 558.09,390.187 555.593,390.713C555.712,390.751 555.832,390.789 555.951,390.827C557.134,388.33 558.317,385.833 559.499,383.336C559.583,383.159 558.747,383.239 558.634,383.477C557.451,385.974 556.268,388.471 555.086,390.968C555.011,391.126 555.389,391.094 555.443,391.083C557.94,390.557 560.438,390.032 562.935,389.506C562.991,389.494 563.544,389.351 563.446,389.204C562.132,387.232 560.818,385.261 559.504,383.289C559.346,383.052 558.538,383.386 558.63,383.524Z" style="fill:rgb(45,35,52);fill-rule:nonzero;"/>
                <path d="M544.03,383.584C545.345,385.555 546.659,387.527 547.973,389.498C548.086,389.358 548.199,389.218 548.312,389.078C545.815,389.603 543.318,390.129 540.821,390.655C540.979,390.743 541.138,390.831 541.296,390.919C542.479,388.422 543.662,385.925 544.845,383.428C545.037,383.022 544.159,383.1 544.024,383.385C542.841,385.882 541.659,388.379 540.476,390.876C540.332,391.179 540.772,391.179 540.951,391.141C543.448,390.615 545.945,390.089 548.442,389.564C548.61,389.529 548.919,389.349 548.781,389.143C547.467,387.172 546.153,385.2 544.838,383.229C544.659,382.96 543.814,383.259 544.03,383.584Z" style="fill:rgb(45,35,52);fill-rule:nonzero;"/>
                <path d="M529.396,383.574C530.71,385.546 532.024,387.517 533.338,389.489C533.455,389.364 533.572,389.239 533.689,389.113C531.192,389.639 528.695,390.165 526.198,390.69C526.362,390.74 526.526,390.79 526.69,390.84C527.872,388.343 529.055,385.846 530.238,383.349C530.355,383.101 529.495,383.193 529.366,383.464C528.183,385.961 527,388.459 525.818,390.956C525.71,391.182 526.241,391.119 526.309,391.105C528.806,390.579 531.303,390.054 533.8,389.528C533.944,389.498 534.279,389.344 534.151,389.153C532.837,387.181 531.523,385.21 530.209,383.238C530.054,383.006 529.205,383.289 529.396,383.574Z" style="fill:rgb(45,35,52);fill-rule:nonzero;"/>
                <path d="M514.768,383.592C516.081,385.563 517.396,387.535 518.711,389.506C518.82,389.353 518.93,389.2 519.039,389.047C516.542,389.573 514.044,390.099 511.548,390.624C511.711,390.728 511.873,390.831 512.036,390.935C513.218,388.438 514.401,385.94 515.584,383.443C515.789,383.011 514.906,383.05 514.755,383.369C513.573,385.867 512.39,388.364 511.207,390.861C511.059,391.175 511.498,391.213 511.694,391.171C514.192,390.645 516.689,390.12 519.185,389.594C519.373,389.555 519.658,389.35 519.515,389.135C518.2,387.164 516.886,385.192 515.572,383.221C515.37,382.919 514.531,383.237 514.768,383.592Z" style="fill:rgb(45,35,52);fill-rule:nonzero;"/>
                <path d="M646.424,383.524C647.738,385.495 649.052,387.466 650.366,389.438C650.54,389.347 650.713,389.256 650.886,389.165C648.389,389.691 645.892,390.216 643.395,390.742C643.511,390.768 643.627,390.793 643.742,390.819C644.925,388.322 646.108,385.825 647.291,383.328C647.351,383.202 646.534,383.266 646.43,383.485C645.247,385.982 644.064,388.479 642.881,390.976C642.815,391.115 643.187,391.062 643.229,391.054C645.726,390.528 648.223,390.002 650.721,389.476C650.766,389.467 651.32,389.323 651.24,389.204C649.926,387.232 648.612,385.261 647.297,383.289C647.157,383.078 646.359,383.427 646.424,383.524Z" style="fill:rgb(45,35,52);fill-rule:nonzero;"/>
                <path d="M631.83,408.845C633.144,410.817 634.458,412.788 635.773,414.759C635.877,414.586 635.981,414.413 636.085,414.24C633.588,414.766 631.091,415.292 628.594,415.817C628.763,415.945 628.931,416.072 629.1,416.199C630.283,413.702 631.466,411.205 632.649,408.708C632.87,408.242 631.985,408.211 631.807,408.586C630.625,411.083 629.442,413.58 628.259,416.077C628.105,416.403 628.543,416.506 628.766,416.459C631.263,415.934 633.76,415.408 636.257,414.882C636.474,414.837 636.72,414.589 636.57,414.363C635.255,412.392 633.941,410.42 632.627,408.449C632.391,408.096 631.564,408.447 631.83,408.845Z" style="fill:rgb(45,35,52);fill-rule:nonzero;"/>
                <path d="M617.193,408.827C618.507,410.798 619.821,412.77 621.135,414.741C621.247,414.597 621.359,414.453 621.471,414.309C618.974,414.835 616.477,415.361 613.98,415.886C614.14,415.979 614.299,416.072 614.459,416.164C615.642,413.667 616.824,411.17 618.007,408.673C618.203,408.259 617.324,408.326 617.185,408.621C616.002,411.118 614.819,413.615 613.636,416.112C613.491,416.418 613.93,416.429 614.115,416.39C616.612,415.865 619.109,415.339 621.606,414.813C621.779,414.777 622.081,414.59 621.942,414.381C620.628,412.41 619.314,410.438 617.999,408.467C617.813,408.188 616.97,408.493 617.193,408.827Z" style="fill:rgb(45,35,52);fill-rule:nonzero;"/>
                <path d="M602.556,408.811C603.87,410.783 605.185,412.754 606.499,414.725C606.617,414.606 606.736,414.488 606.855,414.369C604.358,414.894 601.861,415.42 599.364,415.946C599.526,415.989 599.688,416.033 599.85,416.077C601.033,413.58 602.216,411.082 603.399,408.585C603.506,408.358 602.652,408.448 602.529,408.709C601.346,411.206 600.163,413.703 598.98,416.2C598.877,416.417 599.405,416.344 599.467,416.331C601.964,415.805 604.461,415.279 606.958,414.754C607.091,414.726 607.437,414.582 607.314,414.397C606,412.426 604.685,410.454 603.371,408.483C603.226,408.265 602.377,408.543 602.556,408.811Z" style="fill:rgb(45,35,52);fill-rule:nonzero;"/>
                <path d="M587.894,408.764C589.209,410.736 590.523,412.707 591.837,414.678C592.007,414.574 592.176,414.469 592.346,414.364C589.849,414.89 587.352,415.416 584.854,415.941C584.975,415.985 585.096,416.028 585.216,416.071C586.399,413.574 587.582,411.077 588.765,408.58C588.858,408.383 588.014,408.468 587.898,408.714C586.715,411.211 585.532,413.708 584.349,416.206C584.272,416.369 584.652,416.348 584.711,416.336C587.208,415.81 589.705,415.284 592.203,414.758C592.263,414.746 592.816,414.602 592.711,414.444C591.397,412.473 590.083,410.501 588.768,408.53C588.603,408.283 587.791,408.609 587.894,408.764Z" style="fill:rgb(45,35,52);fill-rule:nonzero;"/>
                <path d="M573.297,408.832C574.611,410.803 575.925,412.774 577.24,414.746C577.35,414.594 577.46,414.443 577.57,414.292C575.072,414.817 572.575,415.343 570.078,415.869C570.24,415.97 570.402,416.072 570.564,416.173C571.747,413.676 572.93,411.179 574.113,408.682C574.316,408.253 573.434,408.297 573.285,408.612C572.102,411.109 570.919,413.606 569.737,416.103C569.589,416.416 570.029,416.449 570.223,416.408C572.72,415.882 575.217,415.357 577.714,414.831C577.899,414.792 578.187,414.591 578.044,414.377C576.73,412.405 575.415,410.434 574.101,408.462C573.903,408.165 573.063,408.48 573.297,408.832Z" style="fill:rgb(45,35,52);fill-rule:nonzero;"/>
                <path d="M558.63,408.764C559.944,410.736 561.258,412.707 562.573,414.678C562.743,414.578 562.914,414.477 563.084,414.376C560.587,414.902 558.09,415.427 555.593,415.953C555.712,415.991 555.832,416.03 555.951,416.068C557.134,413.571 558.317,411.074 559.499,408.576C559.583,408.4 558.747,408.479 558.634,408.717C557.451,411.215 556.268,413.712 555.086,416.209C555.011,416.366 555.389,416.335 555.443,416.323C557.94,415.798 560.438,415.272 562.935,414.746C562.991,414.735 563.544,414.591 563.446,414.444C562.132,412.473 560.818,410.501 559.504,408.53C559.346,408.293 558.538,408.626 558.63,408.764Z" style="fill:rgb(45,35,52);fill-rule:nonzero;"/>
                <path d="M544.03,408.825C545.345,410.796 546.659,412.767 547.973,414.739C548.086,414.599 548.199,414.458 548.312,414.318C545.815,414.844 543.318,415.37 540.821,415.895C540.979,415.983 541.138,416.072 541.296,416.16C542.479,413.663 543.662,411.166 544.845,408.669C545.037,408.263 544.159,408.341 544.024,408.625C542.841,411.123 541.659,413.62 540.476,416.117C540.332,416.419 540.772,416.419 540.951,416.382C543.448,415.856 545.945,415.33 548.442,414.804C548.61,414.769 548.919,414.59 548.781,414.384C547.467,412.412 546.153,410.441 544.838,408.469C544.659,408.2 543.814,408.499 544.03,408.825Z" style="fill:rgb(45,35,52);fill-rule:nonzero;"/>
                <path d="M529.396,408.815C530.71,410.786 532.024,412.758 533.338,414.729C533.455,414.604 533.572,414.479 533.689,414.354C531.192,414.88 528.695,415.405 526.198,415.931C526.362,415.981 526.526,416.031 526.69,416.081C527.872,413.584 529.055,411.086 530.238,408.589C530.355,408.341 529.495,408.433 529.366,408.705C528.183,411.202 527,413.699 525.818,416.196C525.71,416.423 526.241,416.36 526.309,416.346C528.806,415.82 531.303,415.294 533.8,414.769C533.944,414.738 534.279,414.585 534.151,414.393C532.837,412.422 531.523,410.45 530.209,408.479C530.054,408.247 529.205,408.529 529.396,408.815Z" style="fill:rgb(45,35,52);fill-rule:nonzero;"/>
                <path d="M514.768,408.833C516.081,410.804 517.396,412.775 518.711,414.747C518.82,414.594 518.93,414.441 519.039,414.288C516.542,414.814 514.044,415.339 511.548,415.865C511.711,415.968 511.873,416.072 512.036,416.175C513.218,413.678 514.401,411.181 515.584,408.684C515.789,408.252 514.906,408.291 514.755,408.61C513.573,411.107 512.39,413.604 511.207,416.102C511.059,416.415 511.498,416.453 511.694,416.412C514.192,415.886 516.689,415.36 519.185,414.835C519.373,414.795 519.658,414.591 519.515,414.376C518.2,412.404 516.886,410.433 515.572,408.461C515.37,408.16 514.531,408.477 514.768,408.833Z" style="fill:rgb(45,35,52);fill-rule:nonzero;"/>
                <path d="M646.424,408.764C647.738,410.736 649.052,412.707 650.366,414.678C650.54,414.587 650.713,414.496 650.886,414.405C648.389,414.931 645.892,415.457 643.395,415.983C643.511,416.008 643.627,416.034 643.742,416.06C644.925,413.563 646.108,411.066 647.291,408.568C647.351,408.443 646.534,408.506 646.43,408.726C645.247,411.223 644.064,413.72 642.881,416.217C642.815,416.356 643.187,416.303 643.229,416.294C645.726,415.768 648.223,415.243 650.721,414.717C650.766,414.707 651.32,414.564 651.24,414.444C649.926,412.473 648.612,410.501 647.297,408.53C647.157,408.319 646.359,408.667 646.424,408.764Z" style="fill:rgb(45,35,52);fill-rule:nonzero;"/>
                <path d="M640.389,396.225C641.703,398.196 643.018,400.168 644.332,402.139C644.436,401.966 644.54,401.793 644.644,401.62C642.147,402.146 639.65,402.671 637.153,403.197C637.322,403.324 637.491,403.452 637.66,403.579C638.842,401.082 640.025,398.585 641.208,396.088C641.429,395.622 640.545,395.59 640.367,395.966C639.184,398.463 638.001,400.96 636.818,403.457C636.664,403.783 637.102,403.886 637.325,403.839C639.822,403.313 642.319,402.788 644.816,402.262C645.033,402.216 645.279,401.968 645.129,401.743C643.815,399.771 642.5,397.8 641.186,395.828C640.951,395.475 640.124,395.827 640.389,396.225Z" style="fill:rgb(45,35,52);fill-rule:nonzero;"/>
                <path d="M625.752,396.207C627.066,398.178 628.38,400.149 629.695,402.121C629.807,401.977 629.919,401.833 630.031,401.689C627.533,402.215 625.036,402.74 622.539,403.266C622.699,403.359 622.858,403.451 623.018,403.544C624.201,401.047 625.384,398.55 626.567,396.053C626.763,395.639 625.883,395.706 625.744,396.001C624.561,398.498 623.378,400.995 622.195,403.492C622.05,403.798 622.49,403.809 622.674,403.77C625.171,403.244 627.669,402.719 630.166,402.193C630.339,402.157 630.641,401.97 630.501,401.761C629.187,399.79 627.873,397.818 626.559,395.847C626.373,395.568 625.529,395.872 625.752,396.207Z" style="fill:rgb(45,35,52);fill-rule:nonzero;"/>
                <path d="M611.115,396.191C612.43,398.162 613.744,400.134 615.058,402.105C615.177,401.986 615.295,401.867 615.414,401.748C612.917,402.274 610.42,402.8 607.923,403.326C608.085,403.369 608.247,403.413 608.409,403.456C609.592,400.959 610.775,398.462 611.958,395.965C612.065,395.738 611.211,395.828 611.088,396.088C609.905,398.585 608.722,401.083 607.539,403.58C607.437,403.797 607.964,403.724 608.026,403.711C610.523,403.185 613.02,402.659 615.517,402.133C615.651,402.105 615.997,401.962 615.873,401.777C614.559,399.805 613.245,397.834 611.93,395.863C611.786,395.645 610.937,395.923 611.115,396.191Z" style="fill:rgb(45,35,52);fill-rule:nonzero;"/>
                <path d="M596.454,396.144C597.768,398.115 599.082,400.087 600.396,402.058C600.566,401.953 600.736,401.848 600.905,401.744C598.408,402.27 595.911,402.795 593.414,403.321C593.534,403.364 593.655,403.408 593.776,403.451C594.958,400.954 596.141,398.457 597.324,395.96C597.417,395.763 596.574,395.847 596.457,396.094C595.274,398.591 594.091,401.088 592.909,403.585C592.831,403.749 593.211,403.728 593.27,403.715C595.768,403.19 598.265,402.664 600.762,402.138C600.823,402.125 601.375,401.981 601.27,401.824C599.956,399.852 598.642,397.881 597.328,395.91C597.163,395.662 596.351,395.989 596.454,396.144Z" style="fill:rgb(45,35,52);fill-rule:nonzero;"/>
                <path d="M581.856,396.211C583.17,398.183 584.485,400.154 585.799,402.125C585.909,401.974 586.019,401.823 586.129,401.671C583.632,402.197 581.135,402.723 578.638,403.248C578.799,403.35 578.961,403.451 579.123,403.553C580.306,401.056 581.489,398.559 582.672,396.062C582.875,395.633 581.994,395.677 581.845,395.992C580.662,398.489 579.479,400.986 578.296,403.483C578.148,403.796 578.588,403.829 578.782,403.788C581.279,403.262 583.776,402.736 586.273,402.211C586.458,402.172 586.746,401.97 586.603,401.756C585.289,399.785 583.975,397.813 582.661,395.842C582.462,395.545 581.622,395.86 581.856,396.211Z" style="fill:rgb(45,35,52);fill-rule:nonzero;"/>
                <path d="M567.189,396.144C568.503,398.115 569.818,400.087 571.132,402.058C571.302,401.957 571.473,401.857 571.644,401.756C569.147,402.282 566.649,402.807 564.152,403.333C564.272,403.371 564.391,403.409 564.51,403.448C565.693,400.951 566.876,398.453 568.059,395.956C568.143,395.779 567.306,395.859 567.193,396.097C566.01,398.594 564.828,401.091 563.645,403.589C563.57,403.746 563.949,403.715 564.003,403.703C566.5,403.177 568.997,402.652 571.494,402.126C571.55,402.114 572.104,401.971 572.006,401.824C570.691,399.852 569.377,397.881 568.063,395.91C567.905,395.673 567.097,396.006 567.189,396.144Z" style="fill:rgb(45,35,52);fill-rule:nonzero;"/>
                <path d="M552.59,396.204C553.904,398.176 555.218,400.147 556.533,402.119C556.646,401.978 556.758,401.838 556.871,401.698C554.374,402.224 551.877,402.749 549.38,403.275C549.539,403.363 549.697,403.451 549.855,403.54C551.038,401.043 552.221,398.545 553.404,396.048C553.596,395.642 552.718,395.721 552.584,396.005C551.401,398.502 550.218,400.999 549.035,403.496C548.892,403.799 549.331,403.799 549.51,403.761C552.008,403.236 554.505,402.71 557.002,402.184C557.169,402.149 557.478,401.969 557.341,401.763C556.026,399.792 554.712,397.821 553.398,395.849C553.218,395.58 552.373,395.879 552.59,396.204Z" style="fill:rgb(45,35,52);fill-rule:nonzero;"/>
                <path d="M537.955,396.195C539.269,398.166 540.583,400.137 541.898,402.109C542.015,401.984 542.132,401.859 542.249,401.734C539.752,402.259 537.255,402.785 534.757,403.311C534.921,403.361 535.085,403.41 535.249,403.46C536.432,400.963 537.615,398.466 538.797,395.969C538.915,395.721 538.054,395.813 537.925,396.085C536.742,398.582 535.56,401.079 534.377,403.576C534.269,403.802 534.8,403.74 534.868,403.725C537.366,403.2 539.863,402.674 542.36,402.148C542.503,402.118 542.839,401.965 542.711,401.773C541.397,399.801 540.082,397.83 538.768,395.859C538.613,395.626 537.764,395.909 537.955,396.195Z" style="fill:rgb(45,35,52);fill-rule:nonzero;"/>
                <path d="M523.327,396.212C524.642,398.184 525.956,400.155 527.27,402.127C527.38,401.973 527.489,401.821 527.599,401.668C525.102,402.193 522.604,402.719 520.107,403.245C520.27,403.348 520.432,403.452 520.594,403.555C521.778,401.058 522.961,398.561 524.143,396.064C524.348,395.632 523.466,395.671 523.315,395.99C522.132,398.487 520.948,400.984 519.766,403.481C519.617,403.795 520.057,403.833 520.254,403.792C522.75,403.266 525.248,402.74 527.745,402.214C527.932,402.175 528.217,401.97 528.074,401.755C526.76,399.784 525.445,397.813 524.13,395.841C523.93,395.54 523.091,395.857 523.327,396.212Z" style="fill:rgb(45,35,52);fill-rule:nonzero;"/>
                <path d="M654.983,396.144C656.297,398.115 657.611,400.087 658.926,402.058C659.099,401.967 659.272,401.876 659.445,401.785C656.948,402.311 654.451,402.837 651.954,403.362C652.07,403.388 652.186,403.414 652.302,403.439C653.485,400.942 654.667,398.445 655.85,395.948C655.91,395.823 655.093,395.886 654.989,396.105C653.806,398.602 652.624,401.099 651.441,403.597C651.375,403.736 651.746,403.683 651.789,403.674C654.286,403.148 656.783,402.622 659.28,402.097C659.326,402.087 659.879,401.944 659.8,401.824C658.485,399.852 657.171,397.881 655.857,395.91C655.716,395.698 654.919,396.047 654.983,396.144Z" style="fill:rgb(45,35,52);fill-rule:nonzero;"/>
            </g>
        </g>
        <g transform="matrix(4.16667,0,0,4.16667,0,0)">
            <path d="M574.79,323.367C574.79,323.367 561.989,320.203 550.802,324.903C539.616,329.602 541.178,297.857 542.052,296.745C542.926,295.633 563.578,283.083 563.578,283.083L574.79,323.367Z" style="fill:rgb(214,178,156);fill-rule:nonzero;"/>
        </g>
        <g transform="matrix(4.16667,0,0,4.16667,0,0)">
            <path d="M596.944,322.927C596.944,322.927 609.911,320.53 620.798,325.887C631.685,331.243 632.014,299.461 631.208,298.299C630.402,297.137 610.534,283.381 610.534,283.381L596.944,322.927Z" style="fill:rgb(214,178,156);fill-rule:nonzero;"/>
        </g>
        <g transform="matrix(4.16667,0,0,4.16667,0,0)">
            <path d="M562.175,293.67C559.676,285.917 553.758,287.712 553.204,287.899C552.623,287.967 546.506,288.875 547.563,296.953C548.626,305.078 553.341,309.482 557.761,308.188C562.311,307.467 564.689,301.47 562.175,293.67Z" style="fill:rgb(223,135,126);fill-rule:nonzero;"/>
        </g>
        <g transform="matrix(4.16667,0,0,4.16667,0,0)">
            <path d="M612.077,293.67C614.576,285.917 620.494,287.712 621.048,287.899C621.629,287.967 627.746,288.875 626.689,296.953C625.626,305.078 620.912,309.482 616.491,308.188C611.941,307.467 609.563,301.47 612.077,293.67Z" style="fill:rgb(223,135,126);fill-rule:nonzero;"/>
        </g>
        <g transform="matrix(4.16667,0,0,4.16667,0,0)">
            <path d="M556.112,281.925C559.209,247.934 585.05,249.838 587.487,250.094C589.924,249.838 615.765,247.934 618.862,281.925C621.977,316.118 606.747,338.449 587.487,337.221C568.227,338.449 552.997,316.118 556.112,281.925Z" style="fill:rgb(247,161,153);fill-rule:nonzero;"/>
        </g>
        <g transform="matrix(4.16667,0,0,4.16667,0,0)">
            <path d="M552.041,290.545L560.915,297.375L582.51,298.451L582.738,298.199L582.741,298.195C582.797,298.134 583.495,297.391 584.609,296.68C585.723,295.966 587.239,295.295 588.938,295.297C590.606,295.303 592.492,295.912 594.538,297.898L594.742,298.097L614.621,298.44L623.092,291.57L622.189,290.456L614.123,296.997L595.051,296.668L595.039,297.385L595.539,296.871C593.288,294.667 590.98,293.857 588.938,293.863C586.791,293.865 584.984,294.719 583.716,295.55C582.446,296.384 581.701,297.208 581.673,297.238L582.205,297.718L582.241,297.002L561.435,295.965L552.916,289.409L552.042,290.545L552.041,290.545Z" style="fill:rgb(118,91,103);fill-rule:nonzero;"/>
        </g>
        <g transform="matrix(4.16667,0,0,4.16667,0,0)">
            <path d="M561.359,296.772C561.359,302.578 566.065,307.284 571.871,307.284C577.677,307.284 582.383,302.578 582.383,296.772C582.383,290.967 577.677,286.26 571.871,286.26C566.065,286.26 561.359,290.967 561.359,296.772Z" style="fill:rgb(143,195,215);fill-rule:nonzero;"/>
        </g>
        <g transform="matrix(4.16667,0,0,4.16667,0,0)">
            <path d="M562.028,296.772L560.689,296.772C560.69,302.948 565.695,307.953 571.871,307.954C578.046,307.953 583.052,302.948 583.052,296.772C583.052,290.597 578.046,285.591 571.871,285.591C565.695,285.591 560.69,290.597 560.689,296.772L562.028,296.772C562.028,294.052 563.129,291.596 564.911,289.812C566.694,288.03 569.151,286.93 571.871,286.929C574.591,286.93 577.047,288.03 578.831,289.812C580.613,291.596 581.713,294.052 581.714,296.772C581.713,299.493 580.613,301.949 578.831,303.732C577.047,305.515 574.591,306.615 571.871,306.615C569.151,306.615 566.694,305.515 564.911,303.732C563.129,301.949 562.028,299.493 562.028,296.772Z" style="fill:rgb(118,91,103);fill-rule:nonzero;"/>
        </g>
        <g transform="matrix(4.16667,0,0,4.16667,0,0)">
            <path d="M593.85,296.772C593.85,302.578 598.556,307.284 604.362,307.284C610.168,307.284 614.874,302.578 614.874,296.772C614.874,290.967 610.168,286.26 604.362,286.26C598.556,286.26 593.85,290.967 593.85,296.772Z" style="fill:rgb(143,195,215);fill-rule:nonzero;"/>
        </g>
        <g transform="matrix(4.16667,0,0,4.16667,0,0)">
            <path d="M594.519,296.772L593.181,296.772C593.181,302.948 598.186,307.953 604.362,307.954C610.538,307.953 615.543,302.948 615.543,296.772C615.543,290.597 610.538,285.591 604.362,285.591C598.186,285.591 593.181,290.597 593.181,296.772L594.519,296.772C594.52,294.052 595.62,291.596 597.402,289.812C599.185,288.03 601.642,286.93 604.362,286.929C607.082,286.93 609.539,288.03 611.322,289.812C613.104,291.596 614.205,294.052 614.205,296.772C614.205,299.493 613.104,301.949 611.322,303.732C609.539,305.515 607.082,306.615 604.362,306.615C601.642,306.615 599.185,305.515 597.402,303.732C595.62,301.949 594.52,299.493 594.519,296.772Z" style="fill:rgb(118,91,103);fill-rule:nonzero;"/>
        </g>
        <g transform="matrix(4.16667,0,0,4.16667,0,0)">
            <path d="M591.943,298.751C592.369,299.536 592.698,300.342 592.995,301.154C593.289,301.967 593.538,302.789 593.76,303.617C593.878,304.029 593.96,304.449 594.062,304.865C594.167,305.28 594.245,305.701 594.321,306.123C594.489,306.962 594.607,307.811 594.702,308.666L594.747,309.066L594.53,309.264C593.837,309.899 593.125,310.515 592.401,311.12C591.665,311.715 590.934,312.313 590.143,312.854C590.656,312.045 591.228,311.293 591.795,310.536C592.374,309.791 592.964,309.057 593.574,308.341L593.402,308.939C593.145,308.118 592.912,307.293 592.728,306.457C592.628,306.041 592.531,305.624 592.46,305.201C592.386,304.78 592.293,304.362 592.234,303.937C592.105,303.09 592.003,302.237 591.945,301.374C591.89,300.511 591.868,299.641 591.943,298.751Z" style="fill:rgb(223,135,126);fill-rule:nonzero;"/>
        </g>
        <g transform="matrix(4.16667,0,0,4.16667,0,0)">
            <path d="M600.661,318.96C594.509,324.941 584.088,324.609 576.195,319.28" style="fill:white;fill-rule:nonzero;"/>
        </g>
        <g transform="matrix(4.16667,0,0,4.16667,0,0)">
            <path d="M611.856,287.226C611.856,287.226 611.587,287.077 611.116,286.816C610.887,286.691 610.609,286.539 610.291,286.364C609.979,286.199 609.627,286.013 609.242,285.81C608.845,285.64 608.448,285.411 608.004,285.237C607.789,285.141 607.568,285.043 607.342,284.942C607.115,284.859 606.882,284.775 606.645,284.688C606.185,284.484 605.683,284.409 605.205,284.24C604.71,284.189 604.223,284.001 603.728,284.02L602.991,283.96C602.749,283.989 602.506,283.997 602.263,284.011C601.771,283.99 601.314,284.173 600.839,284.232C600.366,284.307 599.941,284.536 599.496,284.653L599.167,284.755L598.868,284.906C598.665,285.002 598.468,285.093 598.279,285.182C597.904,285.368 597.519,285.502 597.229,285.704C596.931,285.891 596.648,286.038 596.415,286.166C595.948,286.418 595.649,286.551 595.649,286.551C595.649,286.551 595.767,286.266 596.031,285.791C596.164,285.554 596.324,285.258 596.535,284.938C596.721,284.594 597.016,284.28 597.351,283.939C597.697,283.614 598.009,283.164 598.499,282.88C598.977,282.588 599.45,282.192 600.044,281.972C600.337,281.853 600.643,281.747 600.954,281.637C601.259,281.507 601.588,281.451 601.925,281.412C602.26,281.366 602.599,281.314 602.941,281.283C603.281,281.287 603.624,281.311 603.966,281.33C604.66,281.344 605.301,281.574 605.944,281.731C606.253,281.842 606.548,281.976 606.841,282.103C607.138,282.223 607.417,282.361 607.672,282.532C607.932,282.692 608.189,282.842 608.431,283.005C608.657,283.184 608.879,283.359 609.095,283.53C609.532,283.86 609.864,284.265 610.195,284.595C610.817,285.304 611.246,285.957 611.499,286.443C611.762,286.923 611.856,287.226 611.856,287.226Z" style="fill:rgb(45,35,52);fill-rule:nonzero;"/>
        </g>
        <g transform="matrix(4.16667,0,0,4.16667,0,0)">
            <path d="M579.667,287.226C579.667,287.226 579.398,287.077 578.927,286.816C578.698,286.691 578.42,286.539 578.102,286.364C577.79,286.199 577.438,286.013 577.053,285.81C576.656,285.64 576.26,285.411 575.815,285.237C575.6,285.141 575.379,285.043 575.154,284.942C574.926,284.859 574.693,284.775 574.456,284.688C573.996,284.484 573.494,284.409 573.016,284.24C572.521,284.189 572.034,284.001 571.539,284.02L570.802,283.96C570.56,283.989 570.317,283.997 570.075,284.011C569.582,283.99 569.125,284.173 568.65,284.232C568.177,284.307 567.752,284.536 567.307,284.653L566.979,284.755L566.679,284.906C566.476,285.002 566.279,285.093 566.09,285.182C565.715,285.368 565.33,285.502 565.041,285.704C564.742,285.891 564.459,286.038 564.227,286.166C563.76,286.418 563.46,286.551 563.46,286.551C563.46,286.551 563.579,286.266 563.842,285.791C563.975,285.554 564.135,285.258 564.346,284.938C564.532,284.594 564.827,284.28 565.162,283.939C565.508,283.614 565.82,283.164 566.31,282.88C566.788,282.588 567.261,282.192 567.855,281.972C568.148,281.853 568.454,281.747 568.765,281.637C569.07,281.507 569.399,281.451 569.736,281.412C570.071,281.366 570.411,281.314 570.752,281.283C571.093,281.287 571.435,281.311 571.777,281.33C572.471,281.344 573.112,281.574 573.755,281.731C574.064,281.842 574.359,281.976 574.652,282.103C574.949,282.223 575.229,282.361 575.483,282.532C575.743,282.692 576,282.842 576.242,283.005C576.469,283.184 576.69,283.359 576.906,283.53C577.344,283.86 577.675,284.265 578.006,284.595C578.628,285.304 579.057,285.957 579.31,286.443C579.573,286.923 579.667,287.226 579.667,287.226Z" style="fill:rgb(45,35,52);fill-rule:nonzero;"/>
        </g>
        <g transform="matrix(4.16667,0,0,4.16667,0,0)">
            <path d="M578.646,299.543C578.646,299.543 578.576,299.267 578.419,298.805C578.262,298.344 578.018,297.693 577.637,296.981C577.251,296.275 576.712,295.507 575.961,294.947C575.59,294.664 575.165,294.439 574.704,294.299C574.477,294.219 574.245,294.144 573.994,294.128C573.749,294.095 573.507,294.043 573.249,294.069C573.011,294.078 572.708,294.048 572.523,294.082C572.263,294.132 571.937,294.145 571.736,294.224C571.33,294.356 570.867,294.511 570.518,294.802C570.145,295.058 569.856,295.409 569.596,295.757C569.362,296.126 569.162,296.502 569.015,296.875C568.725,297.62 568.578,298.3 568.492,298.779C568.407,299.259 568.382,299.543 568.382,299.543C568.382,299.543 568.306,299.269 568.255,298.771C568.208,298.275 568.179,297.548 568.357,296.68C568.443,296.246 568.592,295.78 568.825,295.309C569.079,294.852 569.386,294.357 569.857,293.984C570.299,293.582 570.85,293.287 571.49,293.097C571.808,292.988 572.047,292.985 572.332,292.923C572.696,292.86 572.958,292.892 573.277,292.875C573.581,292.858 573.89,292.922 574.195,292.972C574.503,293.005 574.799,293.103 575.089,293.213C575.389,293.296 575.655,293.451 575.914,293.611C576.185,293.749 576.404,293.953 576.629,294.139C577.505,294.916 577.992,295.886 578.264,296.712C578.543,297.544 578.622,298.264 578.651,298.761C578.676,299.26 578.646,299.543 578.646,299.543Z" style="fill:rgb(45,35,52);fill-rule:nonzero;"/>
        </g>
        <g transform="matrix(4.16667,0,0,4.16667,0,0)">
            <path d="M607.572,299.077C607.572,299.077 607.502,298.8 607.345,298.338C607.188,297.877 606.944,297.227 606.563,296.515C606.177,295.809 605.638,295.041 604.886,294.481C604.516,294.198 604.091,293.973 603.63,293.832C603.403,293.752 603.171,293.678 602.92,293.661C602.675,293.629 602.432,293.577 602.175,293.602C601.937,293.612 601.633,293.581 601.449,293.616C601.189,293.665 600.863,293.678 600.662,293.757C600.256,293.89 599.793,294.044 599.444,294.335C599.07,294.591 598.782,294.942 598.522,295.291C598.288,295.659 598.088,296.036 597.941,296.408C597.651,297.154 597.504,297.834 597.418,298.312C597.333,298.793 597.308,299.077 597.308,299.077C597.308,299.077 597.232,298.802 597.181,298.304C597.134,297.808 597.105,297.082 597.283,296.214C597.369,295.78 597.518,295.313 597.751,294.842C598.005,294.386 598.312,293.89 598.783,293.517C599.225,293.115 599.776,292.82 600.416,292.63C600.734,292.522 600.973,292.518 601.258,292.457C601.622,292.393 601.883,292.425 602.203,292.409C602.507,292.391 602.815,292.455 603.12,292.505C603.429,292.539 603.724,292.636 604.015,292.746C604.314,292.829 604.581,292.984 604.84,293.144C605.111,293.283 605.33,293.487 605.555,293.672C606.431,294.45 606.918,295.419 607.19,296.245C607.469,297.077 607.548,297.797 607.577,298.294C607.602,298.794 607.572,299.077 607.572,299.077Z" style="fill:rgb(45,35,52);fill-rule:nonzero;"/>
        </g>
        <g transform="matrix(4.16667,0,0,4.16667,0,0)">
            <path d="M557.372,246.053C557.372,246.053 567.039,233.719 586.372,241.719C597.372,234.719 605.705,238.053 613.705,244.053L588.039,257.053L557.372,246.053Z" style="fill:rgb(253,214,186);fill-rule:nonzero;"/>
        </g>
        <g transform="matrix(4.16667,0,0,4.16667,0,0)">
            <path d="M522.203,317.837C522.203,317.837 522.091,317.506 521.882,316.885C521.662,316.267 521.379,315.349 521.068,314.156C520.925,313.558 520.794,312.891 520.635,312.164C520.508,311.433 520.392,310.636 520.279,309.781C520.138,308.067 520.003,306.096 520.336,303.965C520.664,301.854 521.205,299.526 522.404,297.333C522.641,296.753 523.028,296.25 523.351,295.699C523.685,295.154 524.021,294.599 524.451,294.106C524.86,293.599 525.262,293.071 525.699,292.57C526.172,292.103 526.65,291.631 527.132,291.156C527.596,290.658 528.142,290.253 528.676,289.823C529.218,289.406 529.736,288.941 530.31,288.556C531.48,287.827 532.605,286.965 533.879,286.368C535.1,285.728 536.331,285.083 537.567,284.435C538.661,283.761 539.758,283.027 540.715,282.107C542.691,280.351 544.158,278.085 545.251,275.676C546.315,273.246 547.088,270.698 547.717,268.18C548.342,265.659 548.91,263.185 549.549,260.848C550.179,258.51 550.929,256.316 551.833,254.379C552.722,252.434 553.8,250.771 554.911,249.438C556.044,248.118 557.181,247.12 558.174,246.387C559.175,245.664 560.015,245.179 560.607,244.894C561.191,244.597 561.503,244.437 561.503,244.437C561.503,244.437 561.21,244.629 560.662,244.988C560.103,245.325 559.345,245.917 558.418,246.69C557.505,247.485 556.483,248.543 555.5,249.894C554.541,251.263 553.647,252.925 552.888,254.832C552.134,256.743 551.532,258.898 550.997,261.213C550.499,263.558 549.973,266.031 549.43,268.59C548.839,271.158 548.158,273.848 547.016,276.459C545.867,279.055 544.265,281.598 542.065,283.58C540.997,284.589 539.757,285.416 538.474,286.177C537.241,286.81 536.013,287.441 534.794,288.066L533.899,288.525C533.607,288.686 533.334,288.877 533.05,289.046C532.485,289.394 531.924,289.74 531.365,290.084C530.812,290.435 530.32,290.859 529.799,291.238C529.286,291.629 528.758,291.997 528.318,292.451C527.857,292.883 527.399,293.312 526.946,293.737C526.539,294.204 526.137,294.666 525.738,295.124C525.316,295.566 524.987,296.066 524.657,296.558C524.338,297.056 523.952,297.51 523.714,298.038C523.445,298.55 523.18,299.056 522.918,299.553C522.713,300.077 522.51,300.593 522.31,301.101C522.083,301.601 521.974,302.13 521.828,302.637C521.693,303.148 521.526,303.644 521.464,304.151C521.379,304.655 521.294,305.149 521.213,305.631C521.172,306.12 521.13,306.597 521.091,307.063C520.972,307.995 521.046,308.89 521.018,309.73C521.06,310.568 521.112,311.357 521.179,312.084C521.276,312.809 521.367,313.476 521.448,314.077C521.672,315.269 521.825,316.22 521.986,316.856C522.128,317.496 522.203,317.837 522.203,317.837Z" style="fill:rgb(253,214,186);fill-rule:nonzero;"/>
        </g>
        <g transform="matrix(4.16667,0,0,4.16667,0,0)">
            <path d="M588.58,261.364C588.58,261.364 588.262,261.217 587.646,261.01C587.029,260.804 586.117,260.519 584.938,260.303C583.764,260.094 582.305,259.947 580.718,260.176C579.137,260.405 577.464,261.141 576.222,262.554C576.066,262.728 575.909,262.904 575.75,263.082C575.624,263.29 575.497,263.5 575.369,263.712C575.241,263.923 575.112,264.135 574.982,264.349C574.854,264.565 574.783,264.823 574.679,265.06C574.582,265.301 574.483,265.543 574.384,265.788L574.244,266.118L574.122,266.535C573.964,267.09 573.783,267.662 573.637,268.227C573.093,270.391 572.819,272.883 572.477,275.463C572.136,278.048 571.745,280.861 570.675,283.585C569.632,286.306 567.999,288.87 566.006,291.013C565.511,291.551 564.963,292.03 564.443,292.539C563.93,293.059 563.368,293.51 562.804,293.954C562.241,294.397 561.694,294.866 561.119,295.283C560.535,295.684 559.952,296.084 559.372,296.482C558.131,297.328 557.213,297.925 556.537,298.759C555.825,299.606 555.373,300.62 555.16,301.726C554.755,303.953 555.144,306.39 555.682,308.639C556.232,310.9 556.91,313.054 557.481,315.068C558.07,317.079 558.542,318.968 558.809,320.68C559.09,322.389 559.124,323.93 558.938,325.172C558.767,326.422 558.334,327.325 558.033,327.905C557.675,328.462 557.474,328.742 557.474,328.742C557.474,328.742 557.619,328.427 557.891,327.838C558.102,327.226 558.344,326.312 558.363,325.126C558.385,323.941 558.153,322.511 557.723,320.91C557.287,319.307 556.635,317.537 555.902,315.595C555.162,313.653 554.299,311.556 553.593,309.206C552.901,306.876 552.214,304.239 552.645,301.289C552.863,299.831 553.453,298.321 554.424,297.078C554.669,296.77 554.902,296.457 555.22,296.175C555.509,295.905 555.847,295.555 556.099,295.388L556.985,294.74L557.798,294.166C558.341,293.784 558.887,293.4 559.434,293.016C559.969,292.617 560.465,292.177 560.985,291.759C561.505,291.341 562.021,290.918 562.476,290.44C562.942,289.973 563.438,289.527 563.881,289.043C565.696,287.134 567.122,284.94 568.07,282.566C569.02,280.189 569.546,277.649 569.958,275.088C570.374,272.516 570.812,270.006 571.583,267.571C571.772,266.99 571.981,266.449 572.174,265.899L572.321,265.49C572.41,265.279 572.462,265.191 572.534,265.037C572.671,264.761 572.807,264.488 572.941,264.217C573.086,263.951 573.193,263.674 573.365,263.426C573.542,263.182 573.718,262.939 573.891,262.699C574.066,262.463 574.24,262.227 574.411,261.995C574.623,261.792 574.833,261.59 575.041,261.391C576.701,259.773 578.847,259.129 580.614,259.077C582.406,259 583.903,259.379 585.08,259.747C586.265,260.114 587.123,260.573 587.708,260.865C588.289,261.17 588.58,261.364 588.58,261.364Z" style="fill:rgb(253,214,186);fill-rule:nonzero;"/>
        </g>
        <g transform="matrix(4.16667,0,0,4.16667,0,0)">
            <path d="M559.773,244.053C543.107,254.386 555.107,277.719 537.773,287.386C520.44,297.053 522.107,310.386 525.773,320.053C527.076,323.487 530.695,325.36 534.816,326.353C533.542,321.344 532.527,314.214 534.372,307.386C534.372,307.386 533.055,319.028 537.016,326.798C539.138,327.15 541.305,327.315 543.295,327.368C542.786,325.347 542.429,322.819 542.705,320.053C542.705,320.053 543.425,323.647 544.935,327.388C548.669,327.386 551.44,327.053 551.44,327.053C558.107,319.053 541.773,300.719 554.107,294.386C572.313,285.037 568.107,275.719 573.107,265.386C578.107,255.053 587.372,262.053 587.372,262.053C589.039,242.386 576.44,233.719 559.773,244.053Z" style="fill:rgb(253,214,186);fill-rule:nonzero;"/>
        </g>
        <g transform="matrix(4.16667,0,0,4.16667,0,0)">
            <path d="M651.276,317.837C651.276,317.837 651.351,317.496 651.492,316.856C651.654,316.22 651.807,315.269 652.031,314.077C652.112,313.476 652.202,312.809 652.3,312.084C652.367,311.357 652.417,310.568 652.461,309.73C652.432,308.89 652.506,307.995 652.387,307.063C652.348,306.597 652.307,306.12 652.265,305.631C652.183,305.149 652.1,304.655 652.014,304.151C651.953,303.644 651.786,303.148 651.651,302.637C651.503,302.13 651.395,301.601 651.168,301.101C650.969,300.593 650.766,300.077 650.56,299.553C650.299,299.056 650.034,298.55 649.765,298.038C649.527,297.51 649.141,297.056 648.822,296.558C648.492,296.066 648.162,295.566 647.74,295.124C647.342,294.666 646.939,294.204 646.533,293.737C646.08,293.312 645.622,292.883 645.161,292.451C644.72,291.997 644.192,291.629 643.68,291.238C643.158,290.859 642.667,290.435 642.113,290.084C641.555,289.74 640.993,289.394 640.429,289.046C640.144,288.877 639.872,288.686 639.58,288.525L638.685,288.066C637.466,287.441 636.237,286.81 635.004,286.177C633.721,285.416 632.482,284.589 631.413,283.58C629.214,281.598 627.611,279.055 626.462,276.459C625.32,273.848 624.639,271.158 624.049,268.59C623.505,266.031 622.98,263.558 622.482,261.213C621.947,258.898 621.345,256.743 620.591,254.832C619.832,252.925 618.937,251.263 617.978,249.894C616.996,248.543 615.974,247.485 615.061,246.69C614.134,245.917 613.375,245.325 612.816,244.988C612.268,244.629 611.976,244.437 611.976,244.437C611.976,244.437 612.287,244.597 612.871,244.894C613.464,245.179 614.303,245.664 615.304,246.387C616.298,247.12 617.435,248.118 618.567,249.438C619.678,250.771 620.757,252.434 621.646,254.379C622.55,256.316 623.3,258.51 623.929,260.848C624.568,263.185 625.137,265.659 625.762,268.18C626.391,270.698 627.164,273.246 628.228,275.676C629.32,278.085 630.787,280.351 632.763,282.107C633.72,283.027 634.817,283.761 635.911,284.435C637.147,285.083 638.379,285.728 639.6,286.368C640.873,286.965 641.998,287.827 643.169,288.556C643.743,288.941 644.261,289.406 644.803,289.823C645.336,290.253 645.883,290.658 646.347,291.156C646.828,291.631 647.306,292.103 647.779,292.57C648.217,293.071 648.619,293.599 649.028,294.106C649.457,294.599 649.794,295.154 650.128,295.699C650.451,296.25 650.837,296.753 651.075,297.333C652.273,299.526 652.815,301.854 653.142,303.965C653.476,306.096 653.339,308.067 653.199,309.781C653.087,310.636 652.97,311.433 652.844,312.164C652.685,312.891 652.554,313.558 652.41,314.156C652.099,315.349 651.816,316.267 651.596,316.885C651.387,317.506 651.276,317.837 651.276,317.837Z" style="fill:rgb(253,214,186);fill-rule:nonzero;"/>
        </g>
        <g transform="matrix(4.16667,0,0,4.16667,0,0)">
            <path d="M584.899,261.364C584.899,261.364 585.189,261.17 585.771,260.865C586.355,260.573 587.214,260.114 588.398,259.747C589.576,259.379 591.072,259 592.865,259.077C594.632,259.129 596.778,259.773 598.438,261.391C598.646,261.59 598.855,261.792 599.067,261.995C599.239,262.227 599.412,262.463 599.587,262.699C599.761,262.939 599.936,263.182 600.113,263.426C600.285,263.674 600.393,263.951 600.537,264.217C600.672,264.488 600.808,264.761 600.945,265.037C601.017,265.191 601.068,265.279 601.158,265.49L601.305,265.899C601.498,266.449 601.707,266.99 601.896,267.571C602.666,270.006 603.104,272.516 603.521,275.088C603.932,277.649 604.459,280.189 605.408,282.566C606.357,284.94 607.782,287.134 609.597,289.043C610.041,289.527 610.537,289.973 611.002,290.44C611.457,290.918 611.974,291.341 612.494,291.759C613.013,292.177 613.51,292.617 614.044,293.016C614.592,293.4 615.137,293.784 615.68,294.166L616.494,294.74L617.379,295.388C617.632,295.555 617.969,295.905 618.259,296.175C618.576,296.457 618.81,296.77 619.054,297.078C620.026,298.321 620.616,299.831 620.834,301.289C621.264,304.239 620.577,306.876 619.885,309.206C619.18,311.556 618.316,313.653 617.576,315.596C616.843,317.537 616.192,319.307 615.755,320.91C615.326,322.511 615.093,323.941 615.115,325.126C615.135,326.312 615.376,327.226 615.588,327.838C615.86,328.427 616.005,328.742 616.005,328.742C616.005,328.742 615.803,328.462 615.445,327.905C615.144,327.325 614.711,326.422 614.54,325.172C614.354,323.93 614.389,322.389 614.67,320.68C614.937,318.968 615.409,317.079 615.997,315.068C616.568,313.054 617.246,310.9 617.796,308.639C618.334,306.39 618.723,303.953 618.318,301.726C618.106,300.62 617.653,299.606 616.941,298.759C616.266,297.925 615.347,297.328 614.106,296.482C613.526,296.084 612.944,295.684 612.359,295.283C611.785,294.866 611.238,294.397 610.674,293.954C610.11,293.51 609.549,293.059 609.036,292.539C608.516,292.03 607.968,291.551 607.472,291.013C605.479,288.87 603.847,286.306 602.803,283.585C601.733,280.861 601.342,278.048 601.002,275.463C600.66,272.883 600.386,270.391 599.841,268.227C599.695,267.662 599.514,267.09 599.356,266.535L599.235,266.118L599.094,265.788C598.995,265.543 598.897,265.301 598.799,265.06C598.696,264.823 598.624,264.565 598.497,264.349C598.367,264.135 598.237,263.923 598.109,263.712C597.982,263.5 597.855,263.29 597.729,263.082C597.57,262.904 597.412,262.728 597.256,262.554C596.015,261.141 594.341,260.405 592.761,260.176C591.174,259.947 589.714,260.094 588.54,260.303C587.361,260.519 586.449,260.804 585.833,261.01C585.216,261.217 584.899,261.364 584.899,261.364Z" style="fill:rgb(253,214,186);fill-rule:nonzero;"/>
        </g>
        <g transform="matrix(4.16667,0,0,4.16667,0,0)">
            <path d="M635.705,287.386C618.372,277.719 630.372,254.386 613.705,244.053C597.039,233.719 585.705,242.386 587.372,262.053C587.372,262.053 595.372,255.053 600.372,265.386C605.372,275.719 601.165,285.037 619.372,294.386C631.705,300.719 615.372,319.053 622.039,327.053C622.039,327.053 627.333,327.692 633.16,327.204C634.252,324.421 635.426,320.413 636.039,315.053C636.039,315.053 636.999,320.835 635.263,326.977C636.78,326.776 638.291,326.484 639.722,326.074C640.286,324.464 640.771,322.749 641.039,321.053C641.039,321.053 641.17,323.026 640.891,325.705C644.045,324.61 646.644,322.85 647.705,320.053C651.372,310.386 653.039,297.053 635.705,287.386Z" style="fill:rgb(253,214,186);fill-rule:nonzero;"/>
        </g>
    </g>
</svg>
