<?xml version="1.0" encoding="UTF-8" standalone="no"?>
<!DOCTYPE svg PUBLIC "-//W3C//DTD SVG 1.1//EN" "http://www.w3.org/Graphics/SVG/1.1/DTD/svg11.dtd">
<svg width="100%" height="100%" viewBox="0 0 836 1025" version="1.1" xmlns="http://www.w3.org/2000/svg" xmlns:xlink="http://www.w3.org/1999/xlink" xml:space="preserve" xmlns:serif="http://www.serif.com/" style="fill-rule:evenodd;clip-rule:evenodd;stroke-linejoin:round;stroke-miterlimit:2;">
    <g transform="matrix(1.33333,0,0,1.33333,-962.994,-2.84725)">
        <g transform="matrix(4.16667,0,0,4.16667,0,0)">
            <path d="M268.743,126.397C260.26,121.771 262.574,99.407 262.574,99.407L249.871,100.225L249.871,99.409L248.512,99.817L247.153,99.409L247.153,100.225L234.45,99.407C234.45,99.407 236.763,121.771 228.281,126.397C219.799,131.024 169.678,133.337 175.076,185L321.949,185C327.346,133.337 277.225,131.024 268.743,126.397Z" style="fill:rgb(164,85,83);fill-rule:nonzero;"/>
        </g>
        <g transform="matrix(4.16667,0,0,4.16667,0,0)">
            <path d="M232.669,120.628C242.816,119.116 252.955,117.555 263.088,115.947C261.663,108.236 262.574,99.407 262.574,99.407L249.871,100.225L249.871,99.41L248.512,99.817L247.153,99.41L247.153,100.225L234.45,99.407C234.45,99.407 235.789,112.401 232.669,120.628Z" style="fill:rgb(126,62,58);fill-rule:nonzero;"/>
        </g>
        <g transform="matrix(4.16667,0,0,4.16667,0,0)">
            <path d="M279.414,128.532C274.862,140.413 262.747,148.912 248.512,148.912C234.277,148.912 222.162,140.413 217.61,128.532C200.139,133.323 169.425,143.585 173.752,185L323.272,185C327.599,143.585 296.885,133.323 279.414,128.532Z" style="fill:rgb(253,230,231);fill-rule:nonzero;"/>
        </g>
        <g transform="matrix(4.16667,0,0,4.16667,0,0)">
            <path d="M323.272,185L321.949,185L323.272,185C323.275,184.98 323.276,184.962 323.278,184.942C323.276,184.961 323.274,184.981 323.272,185Z" style="fill:rgb(229,228,228);fill-rule:nonzero;"/>
        </g>
        <g transform="matrix(4.16667,0,0,4.16667,0,0)">
            <path d="M321.949,185L189.231,185L321.949,185Z" style="fill:rgb(151,80,80);fill-rule:nonzero;"/>
        </g>
        <g transform="matrix(4.16667,0,0,4.16667,0,0)">
            <path d="M323.281,184.921C323.282,184.906 323.283,184.898 323.285,184.883C323.283,184.896 323.282,184.908 323.281,184.921ZM323.287,184.858C323.288,184.848 323.289,184.835 323.29,184.825C323.289,184.837 323.288,184.846 323.287,184.858ZM323.293,184.799C323.294,184.789 323.296,184.776 323.297,184.765C323.296,184.776 323.294,184.788 323.293,184.799ZM323.299,184.739C323.3,184.729 323.301,184.718 323.302,184.708C323.301,184.718 323.3,184.728 323.299,184.739ZM323.305,184.681C323.306,184.67 323.307,184.658 323.308,184.648C323.307,184.66 323.306,184.669 323.305,184.681ZM323.311,184.622C323.312,184.612 323.313,184.6 323.314,184.59C323.313,184.6 323.312,184.611 323.311,184.622ZM323.317,184.564C323.318,184.554 323.319,184.542 323.32,184.532C323.319,184.542 323.318,184.554 323.317,184.564ZM323.323,184.503C323.324,184.495 323.325,184.483 323.326,184.476C323.325,184.485 323.324,184.493 323.323,184.503ZM323.329,184.445C323.329,184.437 323.33,184.426 323.331,184.419C323.33,184.428 323.329,184.435 323.329,184.445ZM323.334,184.385C323.335,184.377 323.336,184.37 323.336,184.363C323.336,184.371 323.335,184.377 323.334,184.385ZM323.34,184.328C323.341,184.32 323.341,184.312 323.342,184.304C323.341,184.311 323.34,184.321 323.34,184.328ZM323.345,184.269C323.346,184.264 323.347,184.256 323.347,184.251C323.346,184.258 323.346,184.262 323.345,184.269ZM323.351,184.211L323.351,184.207L323.351,184.211ZM323.361,184.109C323.361,184.104 323.361,184.103 323.362,184.098C323.361,184.102 323.361,184.106 323.361,184.109ZM323.366,184.05C323.366,184.048 323.367,184.045 323.367,184.042C323.367,184.045 323.366,184.048 323.366,184.05ZM323.371,184C323.371,183.995 323.372,183.989 323.372,183.984C323.372,183.99 323.371,183.994 323.371,184ZM323.376,183.945C323.376,183.94 323.377,183.932 323.377,183.927C323.377,183.933 323.376,183.939 323.376,183.945ZM323.381,183.888C323.381,183.883 323.382,183.874 323.383,183.869C323.382,183.876 323.381,183.881 323.381,183.888ZM323.386,183.83C323.387,183.822 323.387,183.821 323.388,183.814C323.387,183.82 323.387,183.824 323.386,183.83ZM323.391,183.771C323.392,183.766 323.392,183.762 323.393,183.757C323.392,183.761 323.392,183.767 323.391,183.771ZM323.396,183.714C323.397,183.709 323.397,183.707 323.398,183.702C323.397,183.706 323.397,183.709 323.396,183.714ZM323.401,183.658C323.402,183.651 323.402,183.65 323.403,183.643C323.402,183.648 323.402,183.653 323.401,183.658ZM323.406,183.599C323.407,183.597 323.407,183.594 323.407,183.592C323.407,183.594 323.407,183.597 323.406,183.599Z" style="fill:rgb(229,228,228);fill-rule:nonzero;"/>
        </g>
        <g transform="matrix(4.16667,0,0,4.16667,0,0)">
            <path d="M323.272,185L189.231,185C209.306,180.048 229.26,174.614 248.967,168.337C269.989,161.641 292.595,156.888 311.337,144.761C319.463,152.917 325.005,165.035 323.412,183.541C323.41,183.558 323.409,183.574 323.407,183.592C323.407,183.594 323.407,183.597 323.406,183.599C323.405,183.613 323.404,183.629 323.403,183.643C323.402,183.65 323.402,183.651 323.401,183.658C323.4,183.672 323.399,183.688 323.398,183.702C323.397,183.707 323.397,183.709 323.396,183.714C323.395,183.728 323.394,183.743 323.393,183.757C323.392,183.762 323.392,183.766 323.391,183.771C323.39,183.785 323.389,183.8 323.388,183.814C323.387,183.821 323.387,183.822 323.386,183.83C323.385,183.842 323.384,183.856 323.383,183.869C323.382,183.874 323.381,183.883 323.381,183.888C323.38,183.901 323.379,183.914 323.377,183.927C323.377,183.932 323.376,183.94 323.376,183.945C323.375,183.958 323.373,183.971 323.372,183.984C323.372,183.989 323.371,183.995 323.371,184C323.369,184.014 323.368,184.028 323.367,184.042C323.367,184.045 323.366,184.048 323.366,184.05C323.364,184.067 323.363,184.082 323.362,184.098C323.361,184.103 323.361,184.104 323.361,184.109C323.357,184.142 323.354,184.175 323.351,184.207L323.351,184.211C323.35,184.224 323.348,184.239 323.347,184.251C323.347,184.256 323.346,184.264 323.345,184.269C323.344,184.281 323.343,184.292 323.342,184.304C323.341,184.312 323.341,184.32 323.34,184.328C323.339,184.34 323.338,184.351 323.336,184.363C323.336,184.37 323.335,184.377 323.334,184.385C323.333,184.395 323.332,184.408 323.331,184.419C323.33,184.426 323.329,184.437 323.329,184.445C323.328,184.454 323.326,184.466 323.326,184.476C323.325,184.483 323.324,184.495 323.323,184.503C323.322,184.512 323.321,184.522 323.32,184.532C323.319,184.542 323.318,184.554 323.317,184.564C323.316,184.574 323.315,184.58 323.314,184.59C323.313,184.6 323.312,184.612 323.311,184.622C323.31,184.63 323.309,184.64 323.308,184.648C323.307,184.658 323.306,184.67 323.305,184.681C323.304,184.689 323.303,184.699 323.302,184.708C323.301,184.718 323.3,184.729 323.299,184.739C323.298,184.748 323.298,184.756 323.297,184.765C323.296,184.776 323.294,184.789 323.293,184.799C323.292,184.807 323.291,184.817 323.29,184.825C323.289,184.835 323.288,184.848 323.287,184.858C323.286,184.866 323.285,184.874 323.285,184.883C323.283,184.898 323.282,184.906 323.281,184.921C323.28,184.928 323.279,184.935 323.278,184.942C323.276,184.962 323.275,184.98 323.272,185Z" style="fill:rgb(234,209,211);fill-rule:nonzero;"/>
        </g>
        <g transform="matrix(4.16667,0,0,4.16667,0,0)">
            <path d="M282.372,129.367L282.372,185L323.272,185C327.365,145.832 300.12,134.532 282.372,129.367Z" style="fill:rgb(85,149,187);fill-rule:nonzero;"/>
        </g>
        <g transform="matrix(4.16667,0,0,4.16667,0,0)">
            <path d="M214.372,129.448C196.619,134.651 169.681,146.039 173.752,185L214.372,185L214.372,129.448Z" style="fill:rgb(85,149,187);fill-rule:nonzero;"/>
        </g>
        <g transform="matrix(4.16667,0,0,4.16667,0,0)">
            <path d="M214.862,129.448L214.862,185C214.862,185 194.362,150.052 195.362,138.052C196.362,126.051 212.862,125.345 214.862,129.448Z" style="fill:rgb(91,187,230);fill-rule:nonzero;"/>
        </g>
        <g transform="matrix(4.16667,0,0,4.16667,0,0)">
            <path d="M281.337,129.448L281.337,185C281.337,185 301.837,150.052 300.837,138.052C299.837,126.051 283.337,125.345 281.337,129.448Z" style="fill:rgb(91,187,230);fill-rule:nonzero;"/>
        </g>
        <g transform="matrix(4.16667,0,0,4.16667,0,0)">
            <path d="M223.675,66.671C221.176,58.917 215.258,60.712 214.704,60.9C214.123,60.967 208.006,61.876 209.063,69.953C210.126,78.079 214.841,82.482 219.261,81.189C223.811,80.467 226.189,74.47 223.675,66.671Z" style="fill:rgb(126,62,58);fill-rule:nonzero;"/>
        </g>
        <g transform="matrix(4.16667,0,0,4.16667,0,0)">
            <path d="M273.577,66.671C276.076,58.917 281.994,60.712 282.548,60.9C283.129,60.967 289.246,61.876 288.189,69.953C287.126,78.079 282.412,82.482 277.991,81.189C273.441,80.467 271.063,74.47 273.577,66.671Z" style="fill:rgb(126,62,58);fill-rule:nonzero;"/>
        </g>
        <g transform="matrix(4.16667,0,0,4.16667,0,0)">
            <path d="M217.612,54.925C220.709,20.935 246.55,22.839 248.987,23.095C251.424,22.839 277.265,20.935 280.362,54.925C283.477,89.118 268.247,111.449 248.987,110.221C229.727,111.449 214.497,89.118 217.612,54.925Z" style="fill:rgb(164,85,83);fill-rule:nonzero;"/>
        </g>
        <g transform="matrix(4.16667,0,0,4.16667,0,0)">
            <path d="M253.443,58.911C253.873,60.471 254.204,62.042 254.503,63.616C254.799,65.191 255.049,66.771 255.272,68.354C255.39,69.144 255.473,69.939 255.575,70.731C255.679,71.524 255.758,72.319 255.834,73.114C256.001,74.703 256.118,76.297 256.212,77.895L256.238,78.325L255.928,78.516C254.91,79.143 253.877,79.749 252.835,80.341C251.784,80.919 250.736,81.503 249.642,82.02C250.518,81.185 251.441,80.419 252.359,79.647C253.287,78.888 254.224,78.143 255.176,77.42L254.892,78.041C254.634,76.462 254.4,74.88 254.215,73.293C254.116,72.5 254.019,71.707 253.948,70.911C253.874,70.116 253.78,69.322 253.723,68.525C253.594,66.932 253.493,65.336 253.437,63.734C253.384,62.132 253.364,60.527 253.443,58.911Z" style="fill:rgb(126,62,58);fill-rule:nonzero;"/>
        </g>
        <g transform="matrix(4.16667,0,0,4.16667,0,0)">
            <path d="M262.161,88.126C256.009,94.106 245.588,93.774 237.695,88.445" style="fill:white;fill-rule:nonzero;"/>
        </g>
        <g transform="matrix(4.16667,0,0,4.16667,0,0)">
            <path d="M273.356,56.391C273.356,56.391 273.087,56.242 272.616,55.981C272.387,55.856 272.109,55.704 271.791,55.53C271.479,55.365 271.127,55.178 270.742,54.975C270.345,54.805 269.949,54.577 269.504,54.403C269.289,54.307 269.068,54.208 268.842,54.108C268.615,54.025 268.382,53.94 268.145,53.854C267.685,53.65 267.183,53.575 266.705,53.406C266.21,53.355 265.723,53.166 265.228,53.185L264.491,53.125C264.249,53.154 264.006,53.162 263.763,53.176C263.271,53.155 262.814,53.338 262.339,53.397C261.866,53.472 261.441,53.701 260.996,53.818L260.667,53.92L260.368,54.072C260.165,54.167 259.967,54.259 259.778,54.347C259.403,54.533 259.019,54.668 258.729,54.869C258.431,55.056 258.148,55.203 257.915,55.331C257.448,55.584 257.148,55.716 257.148,55.716C257.148,55.716 257.268,55.432 257.531,54.956C257.664,54.719 257.824,54.424 258.035,54.104C258.221,53.759 258.515,53.445 258.851,53.105C259.196,52.779 259.509,52.33 259.999,52.046C260.476,51.753 260.95,51.357 261.544,51.137C261.837,51.018 262.143,50.912 262.454,50.803C262.759,50.672 263.088,50.616 263.425,50.578C263.76,50.531 264.099,50.479 264.441,50.448C264.781,50.452 265.124,50.476 265.466,50.496C266.16,50.51 266.801,50.739 267.444,50.896C267.753,51.007 268.048,51.141 268.341,51.269C268.638,51.388 268.917,51.527 269.172,51.697C269.432,51.857 269.689,52.007 269.931,52.17C270.157,52.349 270.379,52.525 270.595,52.695C271.032,53.025 271.363,53.43 271.695,53.76C272.317,54.47 272.746,55.122 272.999,55.609C273.262,56.089 273.356,56.391 273.356,56.391Z" style="fill:rgb(45,35,52);fill-rule:nonzero;"/>
        </g>
        <g transform="matrix(4.16667,0,0,4.16667,0,0)">
            <path d="M241.167,56.391C241.167,56.391 240.898,56.242 240.427,55.981C240.198,55.856 239.921,55.704 239.602,55.53C239.29,55.365 238.938,55.178 238.554,54.975C238.156,54.805 237.76,54.577 237.316,54.403C237.1,54.307 236.879,54.208 236.654,54.108C236.426,54.025 236.193,53.94 235.956,53.854C235.496,53.65 234.994,53.575 234.517,53.406C234.021,53.355 233.534,53.166 233.039,53.185L232.302,53.125C232.06,53.154 231.817,53.162 231.575,53.176C231.082,53.155 230.625,53.338 230.15,53.397C229.677,53.472 229.252,53.701 228.807,53.818L228.479,53.92L228.179,54.072C227.976,54.167 227.779,54.259 227.59,54.347C227.215,54.533 226.83,54.668 226.541,54.869C226.243,55.056 225.959,55.203 225.727,55.331C225.26,55.584 224.96,55.716 224.96,55.716C224.96,55.716 225.079,55.432 225.342,54.956C225.475,54.719 225.635,54.424 225.846,54.104C226.032,53.759 226.327,53.445 226.662,53.105C227.008,52.779 227.32,52.33 227.81,52.046C228.288,51.753 228.761,51.357 229.355,51.137C229.648,51.018 229.954,50.912 230.265,50.803C230.571,50.672 230.9,50.616 231.236,50.578C231.571,50.531 231.91,50.479 232.252,50.448C232.593,50.452 232.935,50.476 233.277,50.496C233.971,50.51 234.612,50.739 235.256,50.896C235.564,51.007 235.859,51.141 236.152,51.269C236.449,51.388 236.729,51.527 236.983,51.697C237.243,51.857 237.501,52.007 237.742,52.17C237.969,52.349 238.19,52.525 238.406,52.695C238.844,53.025 239.175,53.43 239.506,53.76C240.128,54.47 240.557,55.122 240.81,55.609C241.073,56.089 241.167,56.391 241.167,56.391Z" style="fill:rgb(45,35,52);fill-rule:nonzero;"/>
        </g>
        <g transform="matrix(4.16667,0,0,4.16667,0,0)">
            <path d="M240.146,68.708C240.146,68.708 240.076,68.432 239.919,67.97C239.762,67.509 239.518,66.858 239.137,66.146C238.751,65.441 238.212,64.672 237.461,64.113C237.09,63.83 236.665,63.605 236.204,63.464C235.977,63.384 235.745,63.31 235.494,63.293C235.249,63.26 235.007,63.209 234.749,63.234C234.511,63.244 234.208,63.213 234.023,63.248C233.763,63.297 233.437,63.31 233.236,63.389C232.83,63.522 232.368,63.676 232.019,63.967C231.645,64.223 231.356,64.574 231.096,64.922C230.862,65.291 230.662,65.668 230.515,66.04C230.225,66.786 230.078,67.466 229.992,67.944C229.907,68.424 229.882,68.708 229.882,68.708C229.882,68.708 229.806,68.434 229.755,67.936C229.709,67.44 229.679,66.713 229.857,65.846C229.943,65.412 230.092,64.945 230.325,64.474C230.579,64.017 230.886,63.522 231.357,63.149C231.799,62.747 232.35,62.452 232.99,62.262C233.308,62.154 233.548,62.15 233.832,62.089C234.196,62.025 234.458,62.057 234.777,62.04C235.082,62.023 235.389,62.087 235.695,62.137C236.003,62.171 236.298,62.268 236.589,62.378C236.889,62.461 237.155,62.616 237.414,62.776C237.685,62.914 237.905,63.119 238.129,63.304C239.005,64.082 239.492,65.051 239.764,65.877C240.043,66.709 240.122,67.429 240.151,67.926C240.176,68.426 240.146,68.708 240.146,68.708Z" style="fill:rgb(45,35,52);fill-rule:nonzero;"/>
        </g>
        <g transform="matrix(4.16667,0,0,4.16667,0,0)">
            <path d="M269.072,68.242C269.072,68.242 269.002,67.966 268.845,67.503C268.688,67.042 268.444,66.392 268.063,65.68C267.677,64.974 267.138,64.206 266.387,63.646C266.016,63.363 265.591,63.138 265.13,62.998C264.902,62.918 264.671,62.843 264.42,62.827C264.175,62.794 263.932,62.742 263.675,62.768C263.437,62.777 263.134,62.746 262.949,62.781C262.689,62.831 262.363,62.843 262.162,62.923C261.756,63.055 261.293,63.21 260.944,63.5C260.57,63.757 260.282,64.108 260.022,64.456C259.788,64.825 259.587,65.201 259.441,65.574C259.151,66.319 259.004,66.999 258.918,67.478C258.833,67.958 258.808,68.242 258.808,68.242C258.808,68.242 258.732,67.967 258.681,67.469C258.634,66.973 258.605,66.247 258.782,65.379C258.868,64.945 259.018,64.479 259.251,64.007C259.505,63.551 259.812,63.055 260.282,62.683C260.725,62.281 261.276,61.985 261.915,61.795C262.233,61.687 262.473,61.684 262.758,61.622C263.122,61.558 263.384,61.59 263.703,61.574C264.007,61.556 264.315,61.62 264.621,61.671C264.929,61.704 265.224,61.802 265.515,61.911C265.814,61.994 266.081,62.15 266.34,62.309C266.611,62.448 266.83,62.652 267.055,62.837C267.931,63.615 268.418,64.585 268.69,65.41C268.969,66.243 269.048,66.962 269.077,67.46C269.102,67.959 269.072,68.242 269.072,68.242Z" style="fill:rgb(45,35,52);fill-rule:nonzero;"/>
        </g>
        <g transform="matrix(4.16667,0,0,4.16667,0,0)">
            <path d="M281.705,28.719C279.962,21.746 275.803,19.984 273.809,19.538C272.66,1.576 224.663,-1.716 224.039,1.719C223.372,5.385 241.039,11.385 241.039,11.385C241.039,11.385 209.372,3.052 211.039,10.385C212.393,16.342 225.184,15.701 229.937,15.25C223.254,16.083 200.406,19.753 210.705,30.052C211.548,30.894 212.464,31.612 213.427,32.24C212.468,45.009 216.256,75.052 216.256,75.052L218.922,75.052L217.922,54.385C223.089,53.352 225.451,41.109 226.253,35.652C235.001,35.777 243.791,32.807 247.045,31.577C245.084,32.489 241.99,34.578 245.372,37.719C248.824,40.924 261.206,37.019 267.42,34.768C268.563,39.636 272.236,53.291 277.707,54.385L276.707,75.052L279.372,75.052C279.372,75.052 284.039,38.052 281.705,28.719Z" style="fill:rgb(253,214,186);fill-rule:nonzero;"/>
        </g>
        <g transform="matrix(4.16667,0,0,4.16667,0,0)">
            <path d="M281.705,28.719C279.962,21.746 275.803,19.984 273.809,19.538C273.599,16.255 271.819,13.464 269.054,11.113C267.561,23.293 258.647,33.649 247.334,38.661C252.203,39.844 262.081,36.702 267.42,34.768C268.563,39.636 272.236,53.291 277.707,54.385L276.707,75.052L279.372,75.052C279.372,75.052 284.039,38.052 281.705,28.719Z" style="fill:rgb(214,178,156);fill-rule:nonzero;"/>
        </g>
    </g>
</svg>
