<?xml version="1.0" encoding="UTF-8" standalone="no"?>
<!DOCTYPE svg PUBLIC "-//W3C//DTD SVG 1.1//EN" "http://www.w3.org/Graphics/SVG/1.1/DTD/svg11.dtd">
<svg width="100%" height="100%" viewBox="0 0 825 980" version="1.1" xmlns="http://www.w3.org/2000/svg" xmlns:xlink="http://www.w3.org/1999/xlink" xml:space="preserve" xmlns:serif="http://www.serif.com/" style="fill-rule:evenodd;clip-rule:evenodd;stroke-linejoin:round;stroke-miterlimit:2;">
    <g transform="matrix(1.33333,0,0,1.33333,-17.6087,-1309.52)">
        <g transform="matrix(4.16667,0,0,4.16667,0,0)">
            <path d="M119.372,261.385C119.372,261.385 122.039,280.385 130.039,293.051C141.576,311.318 126.705,313.718 129.705,326.385C132.705,339.051 155.705,349.718 128.371,378.718C110.483,397.698 89.038,360.718 89.038,360.718L83.038,312.385L119.372,261.385Z" style="fill:rgb(242,109,100);fill-rule:nonzero;"/>
        </g>
        <g transform="matrix(4.16667,0,0,4.16667,0,0)">
            <path d="M110.546,292.298C107.66,290.136 104.855,287.902 102.113,285.611L83.038,309.251L89.038,351.926C89.038,351.926 94.346,360.005 101.883,366.063C103.84,363.895 108.441,373.951 111.039,373.051C119.705,370.051 135.372,353.385 124.039,340.718C110.502,325.589 126.705,308.385 110.546,292.298Z" style="fill:rgb(241,93,88);fill-rule:nonzero;"/>
        </g>
        <g transform="matrix(4.16667,0,0,4.16667,0,0)">
            <path d="M97.243,353.397C88.761,348.771 91.074,326.406 91.074,326.406L78.371,327.225L78.371,326.409L77.012,326.817L75.652,326.409L75.652,327.225L62.949,326.406C62.949,326.406 65.262,348.771 56.78,353.397C48.298,358.024 -1.822,360.337 3.575,412L150.449,412C155.846,360.337 105.725,358.024 97.243,353.397Z" style="fill:rgb(246,150,124);fill-rule:nonzero;"/>
        </g>
        <g transform="matrix(4.16667,0,0,4.16667,0,0)">
            <path d="M61.168,347.628C71.315,346.116 81.455,344.555 91.588,342.947C90.162,335.236 91.074,326.406 91.074,326.406L78.371,327.225L78.371,326.409L77.011,326.817L75.652,326.409L75.652,327.225L62.949,326.406C62.949,326.406 64.288,339.401 61.168,347.628Z" style="fill:rgb(216,127,104);fill-rule:nonzero;"/>
        </g>
        <g transform="matrix(4.16667,0,0,4.16667,0,0)">
            <path d="M109.102,391.718C106.848,380.409 107.382,368.392 110.13,357.309C107.984,356.686 105.981,356.155 104.198,355.674C103.389,365.01 102.294,374.49 98.78,382.901C97.427,386.14 95.795,389.055 93.904,391.718L109.102,391.718Z" style="fill:rgb(45,35,52);fill-rule:nonzero;"/>
        </g>
        <g transform="matrix(4.16667,0,0,4.16667,0,0)">
            <path d="M124.539,362.171C116.152,373.647 98.174,381.581 77.345,381.581C56.515,381.581 38.538,373.647 30.151,362.171C15.226,369.209 0.516,382.706 3.577,412L151.113,412C154.174,382.706 139.465,369.209 124.539,362.171Z" style="fill:rgb(67,133,132);fill-rule:nonzero;"/>
        </g>
        <g transform="matrix(4.16667,0,0,4.16667,0,0)">
            <path d="M73.538,398.385C103.166,398.385 129.097,389.816 143.364,377.003C138.291,370.065 131.44,365.425 124.539,362.171C116.152,373.647 98.174,381.581 77.345,381.581C56.515,381.581 38.538,373.647 30.151,362.171C22,366.015 13.922,371.792 8.759,381.009C23.651,391.568 47.12,398.385 73.538,398.385Z" style="fill:rgb(82,156,153);fill-rule:nonzero;"/>
        </g>
        <g transform="matrix(4.16667,0,0,4.16667,0,0)">
            <path d="M52.175,293.67C49.676,285.917 43.758,287.712 43.204,287.899C42.623,287.967 36.506,288.875 37.562,296.953C38.625,305.078 43.34,309.482 47.761,308.188C52.31,307.467 54.689,301.47 52.175,293.67Z" style="fill:rgb(216,127,104);fill-rule:nonzero;"/>
        </g>
        <g transform="matrix(4.16667,0,0,4.16667,0,0)">
            <path d="M102.077,293.67C104.576,285.917 110.494,287.712 111.048,287.899C111.629,287.967 117.746,288.875 116.689,296.953C115.626,305.078 110.912,309.482 106.491,308.188C101.941,307.467 99.563,301.47 102.077,293.67Z" style="fill:rgb(216,127,104);fill-rule:nonzero;"/>
        </g>
        <g transform="matrix(4.16667,0,0,4.16667,0,0)">
            <path d="M46.112,281.925C49.209,247.934 75.049,249.838 77.487,250.094C79.924,249.838 105.765,247.934 108.862,281.925C111.977,316.118 96.747,338.449 77.487,337.221C58.226,338.449 42.996,316.118 46.112,281.925Z" style="fill:rgb(246,150,124);fill-rule:nonzero;"/>
        </g>
        <g transform="matrix(4.16667,0,0,4.16667,0,0)">
            <path d="M58.872,254.552C58.872,254.552 62.038,280.385 87.705,285.385L81.372,269.551C81.372,269.551 83.538,288.718 109.039,287.718C109.039,287.718 118.372,292.051 115.039,302.051C115.039,302.051 124.205,294.385 120.705,281.385C117.205,268.385 125.372,267.551 112.372,248.385C100.906,231.48 63.372,229.552 58.872,254.552Z" style="fill:rgb(242,109,100);fill-rule:nonzero;"/>
        </g>
        <g transform="matrix(4.16667,0,0,4.16667,0,0)">
            <path d="M66.038,249.052C66.038,249.052 53.705,239.052 44.372,250.385C35.038,261.718 37.372,279.385 28.705,290.385C20.038,301.385 21.372,311.051 32.038,321.385C42.705,331.718 2.038,341.385 15.038,367.051C28.038,392.718 60.372,379.051 62.705,358.718C65.038,338.385 63.705,334.051 63.705,334.051C63.705,334.051 50.038,323.385 47.705,306.385C45.372,289.385 49.372,281.051 56.705,275.051C64.038,269.051 70.705,263.718 66.038,249.052Z" style="fill:rgb(242,109,100);fill-rule:nonzero;"/>
        </g>
        <g transform="matrix(4.16667,0,0,4.16667,0,0)">
            <path d="M21.038,355.051C18.32,349.803 17.924,345.718 18.896,342.381C13.41,348.678 9.702,356.516 15.038,367.051C28.038,392.718 60.372,379.051 62.705,358.718C62.757,358.267 62.804,357.834 62.853,357.398C52.621,365.481 31.072,374.426 21.038,355.051Z" style="fill:rgb(241,93,88);fill-rule:nonzero;"/>
        </g>
        <g transform="matrix(4.16667,0,0,4.16667,0,0)">
            <path d="M81.942,298.919C82.368,299.704 82.698,300.509 82.994,301.321C83.289,302.134 83.537,302.956 83.76,303.784C83.877,304.197 83.96,304.617 84.062,305.033C84.166,305.448 84.245,305.869 84.321,306.29C84.489,307.129 84.607,307.979 84.702,308.833L84.746,309.233L84.53,309.431C83.836,310.066 83.124,310.683 82.4,311.288C81.664,311.882 80.933,312.48 80.143,313.022C80.656,312.212 81.227,311.46 81.795,310.704C82.373,309.958 82.964,309.224 83.573,308.509L83.401,309.106C83.145,308.286 82.912,307.46 82.727,306.624C82.628,306.208 82.531,305.791 82.46,305.369C82.386,304.947 82.292,304.529 82.234,304.104C82.105,303.257 82.002,302.404 81.945,301.542C81.89,300.679 81.868,299.809 81.942,298.919Z" style="fill:rgb(171,102,85);fill-rule:nonzero;"/>
        </g>
        <g transform="matrix(4.16667,0,0,4.16667,0,0)">
            <path d="M90.661,319.128C84.508,325.108 74.088,324.776 66.195,319.447" style="fill:white;fill-rule:nonzero;"/>
        </g>
        <g transform="matrix(4.16667,0,0,4.16667,0,0)">
            <path d="M101.856,287.393C101.856,287.393 101.587,287.244 101.116,286.983C100.887,286.858 100.609,286.706 100.291,286.532C99.978,286.367 99.626,286.18 99.242,285.977C98.845,285.807 98.448,285.579 98.004,285.405C97.789,285.309 97.568,285.21 97.342,285.11C97.114,285.027 96.881,284.942 96.644,284.856C96.184,284.652 95.683,284.577 95.205,284.408C94.709,284.357 94.223,284.168 93.728,284.188L92.991,284.127C92.748,284.156 92.505,284.164 92.263,284.178C91.771,284.157 91.314,284.34 90.839,284.399C90.365,284.474 89.941,284.703 89.495,284.82L89.167,284.923L88.868,285.074C88.664,285.169 88.468,285.261 88.279,285.349C87.904,285.535 87.518,285.67 87.229,285.871C86.931,286.059 86.647,286.205 86.415,286.333C85.948,286.586 85.649,286.718 85.649,286.718C85.649,286.718 85.767,286.434 86.03,285.958C86.164,285.721 86.323,285.426 86.534,285.106C86.721,284.761 87.016,284.447 87.35,284.107C87.696,283.781 88.008,283.332 88.498,283.048C88.976,282.755 89.45,282.359 90.043,282.139C90.337,282.02 90.643,281.914 90.953,281.805C91.259,281.674 91.588,281.618 91.925,281.58C92.26,281.533 92.599,281.481 92.941,281.45C93.281,281.454 93.623,281.478 93.966,281.498C94.66,281.512 95.3,281.741 95.944,281.898C96.252,282.009 96.548,282.143 96.84,282.271C97.137,282.39 97.417,282.529 97.671,282.699C97.931,282.859 98.189,283.009 98.43,283.172C98.657,283.351 98.879,283.527 99.094,283.697C99.532,284.027 99.863,284.432 100.195,284.762C100.817,285.472 101.246,286.124 101.499,286.611C101.762,287.091 101.856,287.393 101.856,287.393Z" style="fill:rgb(45,35,52);fill-rule:nonzero;"/>
        </g>
        <g transform="matrix(4.16667,0,0,4.16667,0,0)">
            <path d="M69.667,287.393C69.667,287.393 69.398,287.244 68.926,286.983C68.698,286.858 68.42,286.706 68.102,286.532C67.789,286.367 67.437,286.18 67.053,285.977C66.656,285.807 66.259,285.579 65.815,285.405C65.6,285.309 65.379,285.21 65.153,285.11C64.925,285.027 64.692,284.942 64.455,284.856C63.995,284.652 63.494,284.577 63.016,284.408C62.52,284.357 62.034,284.168 61.539,284.188L60.802,284.127C60.559,284.156 60.317,284.164 60.074,284.178C59.582,284.157 59.125,284.34 58.65,284.399C58.176,284.474 57.752,284.703 57.306,284.82L56.978,284.923L56.679,285.074C56.475,285.169 56.279,285.261 56.09,285.349C55.715,285.535 55.33,285.67 55.04,285.871C54.742,286.059 54.458,286.205 54.226,286.333C53.759,286.586 53.46,286.718 53.46,286.718C53.46,286.718 53.578,286.434 53.842,285.958C53.975,285.721 54.135,285.426 54.345,285.106C54.532,284.761 54.827,284.447 55.161,284.107C55.508,283.781 55.819,283.332 56.31,283.048C56.787,282.755 57.261,282.359 57.854,282.139C58.148,282.02 58.454,281.914 58.764,281.805C59.07,281.674 59.399,281.618 59.736,281.58C60.071,281.533 60.41,281.481 60.752,281.45C61.092,281.454 61.434,281.478 61.777,281.498C62.471,281.512 63.112,281.741 63.755,281.898C64.063,282.009 64.359,282.143 64.651,282.271C64.948,282.39 65.228,282.529 65.482,282.699C65.742,282.859 66,283.009 66.242,283.172C66.468,283.351 66.69,283.527 66.905,283.697C67.343,284.027 67.674,284.432 68.005,284.762C68.627,285.472 69.056,286.124 69.309,286.611C69.573,287.091 69.667,287.393 69.667,287.393Z" style="fill:rgb(45,35,52);fill-rule:nonzero;"/>
        </g>
        <g transform="matrix(4.16667,0,0,4.16667,0,0)">
            <path d="M68.646,299.71C68.646,299.71 68.576,299.434 68.418,298.972C68.261,298.511 68.017,297.86 67.637,297.148C67.251,296.443 66.711,295.675 65.96,295.115C65.59,294.832 65.165,294.607 64.704,294.466C64.476,294.386 64.245,294.312 63.994,294.295C63.749,294.262 63.506,294.211 63.249,294.236C63.011,294.246 62.707,294.215 62.522,294.25C62.263,294.299 61.937,294.312 61.736,294.391C61.33,294.524 60.867,294.678 60.518,294.969C60.144,295.225 59.856,295.576 59.595,295.925C59.362,296.293 59.161,296.67 59.015,297.042C58.724,297.788 58.578,298.468 58.492,298.946C58.406,299.426 58.382,299.71 58.382,299.71C58.382,299.71 58.305,299.436 58.254,298.938C58.208,298.442 58.179,297.715 58.357,296.848C58.443,296.414 58.591,295.947 58.825,295.476C59.078,295.019 59.385,294.524 59.856,294.151C60.299,293.749 60.849,293.454 61.49,293.264C61.807,293.156 62.047,293.152 62.332,293.091C62.696,293.027 62.957,293.059 63.277,293.042C63.581,293.025 63.889,293.089 64.194,293.139C64.502,293.173 64.798,293.27 65.088,293.38C65.388,293.463 65.655,293.618 65.913,293.778C66.185,293.917 66.404,294.121 66.629,294.306C67.504,295.084 67.992,296.053 68.264,296.879C68.543,297.711 68.622,298.431 68.651,298.928C68.676,299.428 68.646,299.71 68.646,299.71Z" style="fill:rgb(45,35,52);fill-rule:nonzero;"/>
        </g>
        <g transform="matrix(4.16667,0,0,4.16667,0,0)">
            <path d="M97.572,299.244C97.572,299.244 97.502,298.968 97.344,298.505C97.187,298.044 96.943,297.394 96.562,296.682C96.177,295.976 95.637,295.208 94.886,294.648C94.515,294.365 94.09,294.14 93.63,294C93.402,293.92 93.171,293.845 92.92,293.829C92.674,293.796 92.432,293.744 92.175,293.77C91.937,293.779 91.633,293.749 91.448,293.783C91.189,293.833 90.863,293.845 90.662,293.925C90.256,294.057 89.793,294.212 89.444,294.503C89.07,294.759 88.782,295.11 88.521,295.458C88.287,295.827 88.087,296.203 87.941,296.576C87.65,297.321 87.504,298.001 87.418,298.48C87.332,298.96 87.308,299.244 87.308,299.244C87.308,299.244 87.231,298.969 87.18,298.471C87.134,297.975 87.104,297.249 87.283,296.381C87.368,295.947 87.517,295.481 87.75,295.009C88.004,294.553 88.311,294.057 88.782,293.685C89.225,293.283 89.775,292.988 90.416,292.797C90.733,292.689 90.973,292.686 91.258,292.624C91.622,292.56 91.883,292.592 92.202,292.576C92.507,292.558 92.815,292.622 93.12,292.673C93.428,292.706 93.724,292.804 94.014,292.913C94.314,292.996 94.581,293.152 94.839,293.311C95.111,293.45 95.33,293.654 95.555,293.839C96.43,294.617 96.918,295.587 97.19,296.412C97.468,297.245 97.547,297.964 97.576,298.462C97.602,298.961 97.572,299.244 97.572,299.244Z" style="fill:rgb(45,35,52);fill-rule:nonzero;"/>
        </g>
    </g>
</svg>
